<?xml version="1.0" encoding="utf-8"?>
<!-- Generator: Adobe Illustrator 27.8.1, SVG Export Plug-In . SVG Version: 6.00 Build 0)  -->
<svg version="1.1" id="Layer_2" xmlns="http://www.w3.org/2000/svg" xmlns:xlink="http://www.w3.org/1999/xlink" x="0px" y="0px"
	 viewBox="0 0 2848 1720" style="enable-background:new 0 0 2848 1720;" xml:space="preserve">
<style type="text/css">
	.st0{display:none;fill:#F15BB5;}
	.st1{fill:none;}
	.st2{fill:#E6963E;}
	.st3{fill:#A64DB2;}
	.st4{fill:#893095;}
	.st5{fill:#8A3196;}
	.st6{fill:#FFD2CF;}
	.st7{fill:#D66431;}
	.st8{fill-rule:evenodd;clip-rule:evenodd;fill:#E6963E;}
</style>
<g>
	<g>
		<g>
			<g>
				<g>
					<path class="st5" d="M1071.11,959.45l10.62,1.24c25.21,2.93,37.55,4.24,62.91,6.65l8.62,0.82v40.98l-7.52-0.53
						c10.46,40.87,19.11,73.89,27.43,104.68l0.94-0.06l0.81-0.05v-102.63l-9-0.56V969.3l10.32,0.87
						c32.27,2.72,48.04,3.85,80.37,5.71l4.13,0.24l2.64,3.18c4.81,5.78,8.11,9.73,11.91,14.2v-16.58l9.98,0.48
						c32.34,1.56,48.14,2.1,80.48,2.79l4.1,0.09l2.75,3.03c4.98,5.49,8.39,9.23,12.21,13.39v-16.15l9.64,0.11
						c13.48,0.16,22.81,0.23,33.11,0.23c6.38,0,13.14-0.03,21.5-0.08l9.58-0.06v37.69l-4.11,0.02l7.39,10.1
						c2.55-3.56,4.87-6.82,7.29-10.22l-4.05,0.04v-37.71l9.38-0.14c21.15-0.31,31.49-0.55,52.67-1.24l9.83-0.32v38.15l-12.09,0.29
						c-16.23,20.82-25.5,32.41-41.18,51.93v36.4l9.02,0.11v39.45l-9.69-0.17c-16.95-0.3-25.27-0.39-42.4-0.45l-9.49-0.03v-39.26
						l8.81,0.02v-36.08l-13.58-16.91c-8.85-11.01-16.49-20.52-27.27-34.02l-4.34-0.04v97.98l-2.52,2.73
						c-7.89,8.56-11.83,12.85-19.71,21.54l-2.75,3.03l-4.1,0.09c-32.35,0.68-48.15,1.21-80.49,2.73l-9.97,0.47v-16.59
						c-3.77,4.44-7.09,8.39-11.91,14.19l-2.65,3.18l-4.13,0.23c-32.32,1.82-48.09,2.92-80.37,5.58l-0.76,0.06l-2.01,0.17
						c-16.47,1.37-24.51,2.1-40.99,3.7l-10.44,1.01v-41.77l5.67-0.4c-0.99-3.68-1.91-7.12-2.97-11.1
						c-9.48,0.36-16.49,0.64-26.03,1.03c-1.08,4.51-2.01,8.36-2.99,12.5l5.57-0.45v42.36l-8.48,0.93
						c-16.37,1.8-24.35,2.73-40.69,4.75l-10.69,1.32v-44.21l8.22-0.75c9.43-40.31,19.06-80.38,28.69-119.37l-7.22-0.62V959.45
						 M1218.62,1110.74c6.24-0.32,11.48-0.57,18.57-0.89c1.54-1.77,2.85-3.26,4.42-5.05v-85.59c-1.6-1.86-2.93-3.41-4.49-5.25
						c-7.06-0.33-12.29-0.59-18.5-0.92V1110.74 M1328.05,1106.66c6.39-0.16,11.71-0.27,18.96-0.42c1.42-1.5,2.66-2.8,4.09-4.3
						v-79.78c-1.46-1.57-2.71-2.91-4.16-4.47c-7.21-0.14-12.52-0.26-18.89-0.42V1106.66 M1107.59,1070.61
						c2.74-0.06,5.35-0.11,8.11-0.17c-1.49-5.81-2.81-11.01-4.1-16.09C1110.33,1059.47,1109.03,1064.73,1107.59,1070.61
						 M1064.77,952.32v7.13v43.25v5.83l5.62,0.48c-8.69,35.29-17.38,71.49-25.89,107.78l-3.66,0.33l-5.77,0.53v5.8v44.21v7.18
						l7.13-0.88l10.69-1.32c16.33-2.02,24.3-2.95,40.61-4.74l8.48-0.93l5.65-0.62v-5.69v-42.36v-6.06c2.7-0.11,5.33-0.21,8.05-0.32
						v4.81v41.77v6.99l6.96-0.67l10.44-1.01c16.54-1.6,24.57-2.33,40.91-3.69l2.01-0.17l0.76-0.06c32.21-2.66,47.95-3.75,80.21-5.57
						l4.13-0.23l2.76-0.16l1.77-2.12l2.65-3.18c0.23-0.28,0.46-0.55,0.68-0.82v5.82l6.65-0.31l9.97-0.47
						c32.28-1.52,48.04-2.05,80.32-2.73l4.1-0.09l2.73-0.06l1.84-2.02l2.75-3.03c7.8-8.59,11.75-12.9,19.68-21.5l2.52-2.73
						l1.68-1.82v-2.48v-85.26c7.64,9.55,13.84,17.26,20.31,25.32l12.18,15.17v27.48l-2.44-0.01l-6.37-0.02v6.37v39.26v6.33
						l6.33,0.02l9.49,0.03c17.05,0.06,25.36,0.15,42.31,0.45l9.69,0.17l6.46,0.11v-6.46v-39.45v-6.27l-6.27-0.08l-2.75-0.03v-27.89
						c14.94-18.61,23.66-29.53,37.99-47.89l9.08-0.22l6.2-0.15v-6.2V979v-6.56l-6.55,0.21l-9.83,0.32
						c-21.19,0.68-31.51,0.92-52.56,1.23l-9.38,0.14l-3.69,0.05l-2.78,0.02l-9.58,0.06c-8.82,0.06-15.44,0.08-21.46,0.08
						c-9.84,0-18.79-0.06-33.03-0.23l-9.64-0.11l-6.42-0.08v6.19c-0.38-0.42-0.76-0.84-1.16-1.28l-2.75-3.03l-1.83-2.02l-2.73-0.06
						l-4.1-0.09c-32.27-0.69-48.04-1.24-80.32-2.79l-9.98-0.48l-6.65-0.32v5.8c-0.22-0.27-0.45-0.54-0.68-0.82l-2.64-3.18
						l-1.76-2.12l-2.75-0.16l-4.13-0.24c-32.26-1.86-48-2.98-80.2-5.7l-10.32-0.87l-6.84-0.58v-0.02l-5.75-0.55l-8.62-0.82
						c-25.29-2.41-37.61-3.71-62.78-6.64l-10.62-1.24L1064.77,952.32L1064.77,952.32z M1168.57,1071.34
						c-4.52-17.18-9.29-35.56-14.49-55.78l5.53,0.39v0l5.91,0.37l3.05,0.19V1071.34L1168.57,1071.34z M1224.96,1104.07v-84.33
						c2.9,0.15,5.82,0.29,9.11,0.44c0.4,0.46,0.79,0.92,1.19,1.39v80.84c-0.36,0.41-0.71,0.81-1.07,1.22
						C1230.83,1103.79,1227.87,1103.93,1224.96,1104.07L1224.96,1104.07z M1334.4,1100.16v-76.39c3.03,0.07,6.13,0.14,9.72,0.21
						c0.21,0.23,0.42,0.45,0.63,0.68v74.74c-0.17,0.18-0.35,0.36-0.52,0.54C1340.59,1100.02,1337.45,1100.09,1334.4,1100.16
						L1334.4,1100.16z"/>
					<path class="st5" d="M1794.03,958.86l3.31,4.21c8.08,10.29,11.97,15.37,19.8,25.88l1.89,2.53v58.95l-1.66,2.43
						c-7.85,11.5-11.73,17.05-19.79,28.27l-2.91,4.05l-4.98-0.08c-15.21-0.25-24.24-0.39-37.15-0.58v33.26l8.99,0.69v42.41
						l-10.51-1.1c-17.02-1.78-25.35-2.59-42.46-4.14l-8.66-0.78v-22.32c-4.94,5.76-8.73,10.09-15.05,17.22l-3.15,3.56l-4.74-0.38
						c-23.18-1.86-34.5-2.66-57.72-4.09l-4.15-0.25l-2.64-3.21c-7.7-9.4-11.56-14.03-19.64-23.56l-2.26-2.66v-103.79l-9.01,0.36
						v-38.65l9.02-0.48c17.02-0.91,25.38-1.41,42.56-2.57l10.16-0.69v39.62l-9.01,0.45v91.97c1.59,1.84,2.92,3.37,4.48,5.19
						c7.76,0.38,13.1,0.66,20.75,1.08c1.28-1.44,2.42-2.73,3.75-4.25v-95.55l-9,0.52v-39.83l8.79-0.68
						c16.96-1.31,25.31-2.02,42.11-3.55l3.39-0.31c32.26-2.99,48-4.66,80.18-8.51L1794.03,958.86 M1752.54,1042.45
						c6.16-0.08,11.3-0.15,18.14-0.24c1.62-2.2,3-4.09,4.74-6.49v-26.2c-1.51-1.93-2.75-3.51-4.15-5.27
						c-7,0.59-12.25,1.02-18.72,1.53V1042.45 M1708.89,1114.67v-105.66l-1.73,0.12v105.42L1708.89,1114.67 M1796.82,952.14
						l-3.55,0.42l-5.32,0.64c-32.14,3.85-47.85,5.51-80.01,8.49l-3.39,0.31c-16.82,1.54-25.07,2.23-42.01,3.55l-8.79,0.68
						l-5.86,0.45v0l-5.05,0.34l-10.16,0.69c-17.13,1.15-25.47,1.66-42.47,2.56l-9.02,0.48l-6.01,0.32v6.02v38.65v6.6l6.6-0.26
						l2.42-0.1v97.19v2.33l1.51,1.78l2.26,2.66c8.05,9.5,11.89,14.11,19.57,23.48l2.64,3.22l1.76,2.14l2.77,0.17l4.15,0.25
						c23.13,1.42,34.44,2.22,57.6,4.08l4.74,0.38l3.16,0.25l2.1-2.37l3.15-3.56c1.44-1.63,2.74-3.1,3.94-4.46v5.35v5.8l5.78,0.52
						l8.66,0.78c17.15,1.55,25.46,2.37,42.37,4.13l10.51,1.1l7.01,0.73v-7.05v-42.41v-5.88l-5.86-0.45l-3.13-0.24v-20.94
						c9.44,0.14,17.82,0.27,30.7,0.48l4.98,0.08l3.32,0.05l1.94-2.7l2.91-4.05c8.09-11.27,11.99-16.84,19.87-28.4l1.66-2.43
						l1.1-1.62v-1.96v-58.95v-2.11l-1.26-1.69l-1.89-2.53c-7.86-10.55-11.77-15.65-19.89-26.01l-3.31-4.21L1796.82,952.14
						L1796.82,952.14z M1758.89,1011.65c3.04-0.24,6.07-0.49,9.5-0.78c0.22,0.28,0.44,0.56,0.67,0.85v21.95
						c-0.56,0.77-1.1,1.51-1.63,2.24c-3.04,0.04-5.78,0.08-8.54,0.11V1011.65L1758.89,1011.65z M1647.91,1019.12l6.71-0.39
						l2.29-0.13v86.42c-0.04,0.05-0.08,0.09-0.12,0.14c-5.2-0.28-9.6-0.51-15-0.78c-0.39-0.45-0.77-0.9-1.17-1.35v-83.57l2.98-0.15
						l4.3-0.22V1019.12L1647.91,1019.12z"/>
				</g>
				<path class="st3" d="M1050.94,1156.89c0-9.9,0-14.85,0-24.75c2.56-0.23,3.85-0.35,6.41-0.58
					c10.66-45.67,21.61-91.26,32.91-136.78c-3.85-0.32-5.77-0.49-9.62-0.82c0-9.53,0-14.29,0-23.82
					c25.22,2.93,37.85,4.27,63.11,6.67c0,8.84,0,13.26,0,22.11c-4.2-0.3-6.3-0.45-10.49-0.75c10.65,41.77,21.47,83.5,32.76,125.11
					c2.66-0.17,3.99-0.25,6.65-0.41c0,8.57,0,12.86,0,21.43c-16.45,1.37-24.68,2.12-41.12,3.71c0-8.96,0-13.45,0-22.41
					c3.34-0.24,5.01-0.36,8.35-0.59c-3.17-11.73-4.75-17.65-7.92-29.59c-16.35,0.61-24.52,0.93-40.86,1.62
					c-3.08,12.79-4.62,19.24-7.7,32.27c3.33-0.28,5-0.41,8.34-0.68c0,9.4,0,14.1,0,23.49
					C1075.42,1153.92,1067.25,1154.87,1050.94,1156.89z M1127.91,1079.73c-6.51-25.32-9.76-38.22-16.26-64.52
					c-6.5,25.57-9.76,38.6-16.26,65.19C1108.39,1080.12,1114.89,1079.99,1127.91,1079.73z"/>
				<path class="st3" d="M1175.44,1144.06c0-8.55,0-12.82,0-21.37c3.6-0.22,5.4-0.33,9-0.54c0-40.19,0-80.37,0-120.56
					c-3.6-0.22-5.4-0.33-9-0.55c0-8.55,0-12.82,0-21.37c32.22,2.72,48.35,3.87,80.62,5.73c7.9,9.5,11.84,14.16,19.74,23.36
					c0,35.46,0,70.91,0,106.37c-7.9,9.19-11.85,13.85-19.74,23.34C1223.8,1140.28,1207.67,1141.4,1175.44,1144.06z M1241.69,1119.18
					c3.78-4.34,5.66-6.5,9.44-10.77c0-30.91,0-61.82,0-92.73c-3.78-4.38-5.66-6.58-9.44-11.03c-13.04-0.6-19.56-0.93-32.6-1.64
					c0,39.26,0,78.51,0,117.77C1222.13,1120.09,1228.65,1119.77,1241.69,1119.18z"/>
				<path class="st3" d="M1284.82,1136.97c0-7.8,0-11.71,0-19.51c3.61-0.13,5.41-0.19,9.02-0.3c0-36.81,0-73.62,0-110.43
					c-3.61-0.12-5.41-0.18-9.02-0.31c0-7.8,0-11.71,0-19.51c32.28,1.55,48.43,2.11,80.74,2.8c7.9,8.71,11.86,13.02,19.76,21.59
					c0,33.78,0,67.56,0,101.34c-7.91,8.58-11.86,12.88-19.76,21.59C1333.25,1134.91,1317.1,1135.45,1284.82,1136.97z
					 M1351.17,1115.69c3.78-3.99,5.67-5.97,9.45-9.93c0-34.94,0-52.41,0-87.35c-3.78-4.05-5.67-6.08-9.45-10.16
					c-13.06-0.25-19.59-0.41-32.65-0.76c0,36.32,0,72.63,0,108.95C1331.58,1116.08,1338.11,1115.93,1351.17,1115.69z"/>
				<path class="st3" d="M1394.34,1008.86c0-7.47,0-11.2,0-18.67c21.91,0.26,32.87,0.29,54.78,0.15c0,7.45,0,11.18,0,18.63
					c-5.33,0.02-7.99,0.03-13.32,0.04c10.48,14.32,15.72,21.46,26.21,35.81c10.31-14.4,15.47-21.62,25.78-36.21
					c-5.24,0.07-7.86,0.11-13.1,0.16c0-7.48,0-11.22,0-18.7c21.14-0.31,31.71-0.56,52.84-1.24c0,7.61,0,11.41,0,19.01
					c-2.92,0.07-4.38,0.1-7.3,0.17c-18.38,23.62-27.58,35.11-45.97,57.99c0,19.66,0,29.5,0,49.16c3.61,0.04,5.41,0.06,9.02,0.1
					c0,8.14,0,12.21,0,20.35c-17.01-0.3-25.52-0.39-42.53-0.45c0-8.09,0-12.13,0-20.22c3.52,0.01,5.28,0.02,8.81,0.03
					c0-19.59,0-29.39,0-48.99c-18.3-22.82-27.45-34.12-45.76-57.07C1400.02,1008.9,1398.13,1008.89,1394.34,1008.86z"/>
				<path class="st3" d="M1591.07,1005.84c0-7.88,0-11.83,0-19.71c17.08-0.91,25.62-1.42,42.69-2.58c0,8.15,0,12.22,0,20.37
					c-3.6,0.18-5.41,0.27-9.01,0.44c0,34.87,0,69.73,0,104.6c3.78,4.34,5.66,6.52,9.44,10.94c11.75,0.57,17.63,0.88,29.38,1.53
					c3.69-4.14,5.53-6.22,9.21-10.43c0-36.41,0-72.82,0-109.23c-3.6,0.22-5.4,0.32-9,0.53c0-8.37,0-12.56,0-20.93
					c17.06-1.32,25.59-2.04,42.64-3.6c0,8.74,0,13.12,0,21.86c-3.51,0.24-5.27,0.36-8.78,0.59c0,40.1,0,80.21,0,120.31
					c-7.97,9.35-11.95,13.93-19.92,22.93c-23.14-1.86-34.72-2.68-57.89-4.1c-7.89-9.64-11.84-14.36-19.74-23.68
					c0-36.74,0-73.48,0-110.22C1596.48,1005.62,1594.68,1005.69,1591.07,1005.84z"/>
				<path class="st3" d="M1709.41,1146.18c0-8.77,0-13.16,0-21.93c3.6,0.24,5.4,0.36,8.99,0.61c0-42.02,0-84.04,0-126.06
					c-3.6,0.26-5.4,0.38-8.99,0.63c0-8.77,0-13.16,0-21.93c32.21-2.98,48.3-4.69,80.44-8.54c7.86,10.02,11.79,15.15,19.65,25.69
					c0,21.14,0,31.71,0,52.86c-7.86,11.52-11.79,17.13-19.65,28.08c-18.72-0.31-28.09-0.45-46.83-0.71c0,20.7,0,31.05,0,51.75
					c3.6,0.27,5.39,0.41,8.99,0.68c0,9.21,0,13.81,0,23.02C1734.98,1148.55,1726.46,1147.72,1709.41,1146.18z M1775.53,1051.67
					c3.76-5.08,5.64-7.65,9.41-12.86c0-13.03,0-19.54,0-32.56c-3.76-4.82-5.64-7.2-9.41-11.91c-13,1.11-19.5,1.64-32.51,2.64
					c0,22.05,0,33.07,0,55.12C1756.03,1051.93,1762.53,1051.85,1775.53,1051.67z"/>
			</g>
		</g>
		<path class="st8" d="M994.69,1266.88c-2.88,0.39-5.54-1.64-5.92-4.52c-0.39-2.89,1.64-5.54,4.52-5.92
			c2.81-0.38,453.65-63,860.8,0.02c2.87,0.44,4.84,3.14,4.4,6.01c-0.45,2.88-3.14,4.84-6.01,4.4
			C1444.5,1203.71,995.99,1266.7,994.69,1266.88z"/>
		<g>
			<path class="st1" d="M1506.78,703.86c-0.35-0.84-0.67-1.62-0.95-2.33c-0.17,0.26-0.35,0.52-0.55,0.78l1.48,1.72
				C1506.76,703.97,1506.77,703.92,1506.78,703.86z"/>
			<path class="st1" d="M1178.09,821.6l38.4-29.48c-5.21,0.23-11.08,0.11-17.47-0.62c-12.88-1.47-24.59-0.9-32.88,0l84.56-39.36
				c-12.5-3.97-20.79-8.98-25.91-12.94c0,0,0.55-0.29,1.43-0.73l-23.75-1.44c6.24-5.83,16.45-10.7,28.24-13.15
				c-0.71-0.59-1.41-1.19-2.09-1.81c0,0,4.62-0.57,7.43-3.3c0.16-0.16,0.4-0.27,0.68-0.36c-3.73,0.07-6.45,0.33-7.64,0.67
				c-14.4,4.04-37.45,1.04-41.92,0.39l-20.92-3l2.82-5.15c-19.04-4.05-32-15.39-32.78-16.08l-13.64-12.15l3.76-2.71
				c-7.42-5.66-12.63-11.61-14.29-13.59l-6.62-7.92c-7.4,14.2-13.85,28.87-19.33,43.87c0.01-0.01,0.02-0.02,0.03-0.03
				c0.02-0.02,0.04-0.05,0.06-0.07c-4.92,13.44-9.08,27.15-12.37,41.05c-0.47,2-0.93,4-1.36,6c-9.62,43.65-11.06,88.94-4.56,132.86
				c5.01-2.61,11.3-4.45,18.27-5.17c-1.97-3.05-3.08-6.4-3.08-9.94c0-13.78,16.56-24.95,36.98-24.95c0.05,0,0.09,0,0.14,0
				c-0.7-11.66,15.33-18.84,15.33-18.84s7.87,11.26,21.59,19.59c4.38,1.21,8.46,2.84,12.14,4.83c3.96-1.86,8.96-2.98,14.4-2.98
				c0.45,0,0.9,0.02,1.34,0.03c4.57-4.05,11.54-7.16,19.77-8.67C1192.46,830.61,1182.5,824.64,1178.09,821.6z"/>
			<path class="st1" d="M1367.76,726.58c-0.66,0.75-1.98,1.75-3.58,2.77c0.48,0.07,0.95,0.13,1.42,0.18
				c1.47,0.16,2.69,0.97,3.45,2.08c8.97-0.52,18.71-4.44,18.71-4.44s1.67-3.27,3.47-5.26c1.54-1.7,5.68-3.02,7.62-2.91
				c0.12-1.4,0.21-2.81,0.22-4.22c0.06-8.34-2.38-16.8-6.86-23.82c-0.77-1.2-1.59-2.36-2.45-3.58c-1.32-1.86-2.68-3.78-3.83-5.86
				c-2-3.63-2.93-7.09-2.8-10.34l-29.45,30.06c0.57,3.67,1.02,10.44,1.56,16.12c1.75-0.99,3.45-1.74,4.07-1.88
				c1.23-0.27,11.28,6.79,9.11,9.24c-0.13,0.14-0.28,0.3-0.45,0.46C1368.13,725.73,1368.09,726.21,1367.76,726.58z"/>
			<path class="st1" d="M1506.58,708.53c-0.16,0.06-0.29,0.13-0.46,0.19l0.48,0.4C1506.6,708.93,1506.59,708.73,1506.58,708.53z"/>
			<path class="st1" d="M1603.33,632.92c2.66-7.6,6.4-14.42,9.28-19.1c-5.6-6.43-9.83-13.96-17.74-9.1
				c-3.2,1.96-5.21,5.34-6.44,9.28l0,0c-0.2,0.64-0.37,1.3-0.53,1.96h0c-1.5,6.23-1.33,13.47-0.85,18.83
				c2.23-0.29,4.31-0.51,6.19-0.67C1597.91,633.68,1601.87,633.13,1603.33,632.92z"/>
			<path class="st1" d="M1578.16,741.86c0.12-0.44,0.21-0.87,0.29-1.3c0-0.02,0.01-0.05,0.01-0.07c0.23-1.33,0.29-2.66,0.22-4.15
				c-2.05-0.42-3.48-1.69-4.38-3.63c-6.52,5.78-14.99,19.2-19.41,26.59c0.01,1.75-0.09,3.13-0.1,4.03c0,0.22,0,0.41,0.01,0.57
				c0.04,0.56,0.21,1.16,0.45,1.75c1.85-0.15,3.73-0.22,5.64-0.22c0.39,0,0.77,0.01,1.16,0.02c0.19,0,0.39-0.01,0.58-0.01
				c4.19-7.98,9.36-14.92,12.99-18.8C1576.86,745.3,1577.67,743.66,1578.16,741.86z"/>
			<path class="st1" d="M1322.61,593.65c10.27-1.17,18.38-3.99,18.12-6.3c-0.26-2.31-8.8-3.24-19.07-2.07s-18.38,3.99-18.12,6.3
				C1303.8,593.89,1312.34,594.81,1322.61,593.65z"/>
			<path class="st1" d="M1391.31,732.53c0,0-11.64,5.52-22.9,6.97c-1.04,2.74-2.44,5.88-4.32,9.17c-2.18,3.81-4.99,7.81-8.62,11.62
				c2.74,5.64,5.64,11.34,8.73,16.99c0.29-0.9,0.66-1.78,1.12-2.64c2.29-4.25,6.12-7.16,9.2-9.22c1.03-0.69,2.09-1.36,3.15-2.02
				c2.36-1.49,4.59-2.89,6.59-4.6c7.2-6.16,10.52-15.53,12.51-25.49c-0.21,0.11-0.37,0.17-0.45,0.2
				C1395.41,733.73,1391.31,732.53,1391.31,732.53z"/>
			<path class="st1" d="M1253.72,719.28c-4.73-0.54-9.14-0.79-12.92-0.87c2.64,0.31,6.1,0.97,9.92,1.5
				C1251.71,719.67,1252.71,719.46,1253.72,719.28z"/>
			<path class="st2" d="M1170.71,569.36c48.93-49.69,112.34-85.71,181.14-101.42c4.27-1.11,8.63-1.78,12.94-2.7
				c4.32-0.86,8.65-1.78,13.03-2.33l13.11-1.92c4.39-0.49,8.79-0.86,13.19-1.29l6.6-0.63l6.63-0.29l9.77-0.42l3.49-0.15
				c2.21-0.04,4.43-0.05,6.64-0.05c4.52,0,9.04,0.09,13.56,0.24c2.12,0.07,4.25,0.16,6.37,0.26c6.43,0.33,12.85,0.83,19.25,1.49
				c2.71,0.28,5.41,0.59,8.11,0.92c4.11,0.51,8.22,1.09,12.32,1.74c2.19,0.35,4.38,0.71,6.57,1.1c4.37,0.77,8.74,1.62,13.08,2.54
				c6.52,1.39,13.01,2.95,19.45,4.68c8.59,2.31,17.11,4.92,25.53,7.84c0,0,0,0,0,0c0,0,0,0,0,0c-2.08-0.81-4.16-1.6-6.25-2.37
				c-2.09-0.77-4.19-1.53-6.29-2.26c-6.31-2.2-12.69-4.24-19.12-6.11c-2.14-0.62-4.29-1.23-6.44-1.81
				c-6.91-1.88-13.87-3.55-20.88-5.04c-14.46-3.07-29.1-5.3-43.85-6.67c-0.4-0.04-0.8-0.08-1.2-0.12
				c-4.46-0.39-8.93-0.71-13.41-0.96c-4.47-0.25-8.95-0.43-13.44-0.52l-7.53,0.04l0,0l-5.92,0.03l-6.73,0.04l-6.72,0.38
				c-4.48,0.27-8.97,0.48-13.46,0.8l-13.41,1.45c-4.49,0.39-8.92,1.15-13.36,1.86c-4.43,0.76-8.92,1.29-13.31,2.25
				c-70.87,13.35-137.85,47.83-190.88,97.7c-11.94,11.35-23.43,23.26-33.88,36.06c6.24,1.64,13.1,2.81,20.31,3.69
				C1153.55,587.63,1161.89,578.27,1170.71,569.36z"/>
			<path class="st3" d="M1554.89,759.3c-0.01-1.21-0.07-2.59-0.25-4.14c0.44,3.78,0.16,6.65,0.15,8.16
				C1554.8,762.43,1554.9,761.06,1554.89,759.3z"/>
			<path class="st3" d="M1528.07,736.91c-0.18-0.7-0.38-1.39-0.6-2.07C1527.69,735.52,1527.89,736.21,1528.07,736.91z"/>
			<path class="st4" d="M1554.8,763.9c-0.01-0.16-0.01-0.35-0.01-0.57c0.02-1.52,0.3-4.38-0.15-8.16c0.18,1.54,0.24,2.93,0.25,4.14
				c4.42-7.39,12.89-20.8,19.41-26.59c-1.38-2.99-1.52-7.51-0.85-12.68c-0.41-0.49-0.78-0.82-1.11-0.93
				c-0.97-0.35-0.53-2.46,0.91-5.27c1.35,2.9,2.36,4.86,2.36,4.86l2.66-6.34l0.61,3.48l2.25-6.95l1.43,2.04c0,0,0.6-1.06,1.46-3.02
				c0.2-0.46,0.41-0.96,0.64-1.51c0.27-0.67,0.56-1.42,0.85-2.22c1.51-4.17,3.2-10.08,4-17.23c2.61-5.17,4.85-10.46,6.73-15.67
				c0.62-1.72,1.2-3.43,1.74-5.12c17.12-15.25,23.02-29.21,21.24-46.55c0.66,0.36,1.34,0.67,2.05,0.93v0c0,0,0,0,0,0
				c0.21,0.07,0.42,0.15,0.63,0.21c0.3,0.09,0.6,0.18,0.91,0.25l0,0c0.31,0.07,0.63,0.12,0.95,0.16c0.05,0.01,0.09,0.02,0.14,0.02
				c0.51,0.07,1.03,0.11,1.56,0.12c0,0,0,0,0,0c1.97,0.02,4.02-0.54,5.97-1.55c0.45-0.24,0.9-0.5,1.34-0.78
				c0.16-0.1,0.31-0.2,0.46-0.31c1.69-1.17,3.24-2.69,4.51-4.49c1.11-1.57,2.01-3.36,2.59-5.29c0.23-0.77,0.42-1.57,0.55-2.4
				c0.7-4.52-0.29-9.69-4-14.93c-0.69,0.31-0.74,1.11-0.53,2.26c0.06,0.33,0.14,0.68,0.23,1.06c0.09,0.38,0.2,0.79,0.31,1.21
				c0.6,2.35,1.32,5.35,0.7,8.43c-0.06,0.28-0.12,0.56-0.21,0.84c-0.39,1.38-1.08,2.76-2.18,4.1l0,0c-0.13,0.16-0.28,0.33-0.43,0.49
				c-0.38,0.41-0.78,0.83-1.24,1.23c-0.61,0.53-1.3,1.05-2.08,1.56c-2.17,1.41-4.03,1.5-5.76,0.71c0,0,0-0.01,0.01-0.01
				c-0.17-0.08-0.33-0.15-0.5-0.24c0,0,0,0,0,0c-0.04-0.02-0.08-0.04-0.12-0.06c-0.63-0.37-1.25-0.85-1.86-1.42
				c-0.46-0.43-0.91-0.91-1.36-1.43c-0.3-0.35-0.6-0.71-0.9-1.1c-0.6-0.76-1.2-1.59-1.82-2.45c-3.38-4.74-7.09-10.64-12.56-13.8
				c-0.25-0.14-0.5-0.28-0.76-0.41c-3.07-1.58-6.68-2.3-11.07-1.52c-1.46,0.26-3.01,0.69-4.65,1.31c-4.11,1.54-7.3,4.48-9.78,8.16
				c-0.08,0.13-0.16,0.26-0.24,0.39l0,0c0,0,0,0,0,0c-3.22,4.93-5.21,11.12-6.42,17.06l0,0c0,0,0,0,0,0
				c-1.63,8.01-1.86,15.56-1.82,18.94c0,0.35,0.01,0.63,0.02,0.89c5.3-1.41,10.52-2.33,15.13-2.94c-0.48-5.36-0.64-12.6,0.85-18.83
				h0c0.16-0.67,0.33-1.32,0.53-1.96l0,0c1.23-3.95,3.25-7.32,6.44-9.28c7.91-4.86,12.14,2.68,17.74,9.1
				c-2.88,4.68-6.61,11.49-9.28,19.1c-1.46,0.21-5.42,0.76-10.11,1.2c-0.17,0.02-0.33,0.03-0.5,0.05
				c1.23,15.82-2.45,45.53-15.57,69.16c-1.03,0.02-2.08-0.26-2.97-0.91c-2.49-1.82-4.82-3.64-7.03-5.47
				c0.52,2.65,1.49,5.65,2.59,8.58c1.02,2.7,2.15,5.33,3.15,7.52c-2.55,6.96-2.43,17.79-12.17,21.98
				c-2.33,10.31-4.9,13.44-6.94,15.53c0.42,1.65,0.7,3.21,0.86,4.62c-0.2,0.5-0.49,0.91-0.87,1.2c-3.69,2.71-12.61-1.14-22.21-22.93
				c-2.65-6.01-6.83-10.35-9.82-14.11c-0.9,0.12-2-0.07-2-0.07c-0.13-0.11-0.27-0.22-0.41-0.33c1.75,2.46,5.48,8.14,7.8,14.89
				c0.12,0.34,0.23,0.68,0.34,1.02c0.22,0.68,0.42,1.37,0.6,2.07c0.18,0.7,0.34,1.41,0.48,2.12c1.87,9.48,5.54,20.99,19.54,27.57
				c2.32-0.44,4.71-0.76,7.16-0.95C1555.01,765.05,1554.84,764.46,1554.8,763.9z M1580.25,702.11c0.04-0.04,0.09-0.08,0.13-0.13
				C1580.34,702.03,1580.29,702.07,1580.25,702.11z M1578.37,703.14c0.19-0.05,0.38-0.12,0.56-0.2
				C1578.75,703.02,1578.56,703.08,1578.37,703.14z M1579.39,702.72c0.09-0.05,0.17-0.1,0.26-0.15
				C1579.56,702.62,1579.48,702.67,1579.39,702.72z M1578.13,703.2c-0.32,0.07-0.65,0.12-0.98,0.13
				C1577.48,703.32,1577.81,703.27,1578.13,703.2z"/>
			<path class="st4" d="M1565.09,639.83c-0.01-0.02-0.02-0.04-0.03-0.06c-1.63-3.72-12.9-25.68-27.9-31.43
				c-2.88-1.11-5.9-1.61-9.02-1.28c-1.74,0.19-3.32,0.5-4.74,0.93c-7.11,2.13-10.43,7.01-12.24,12.5c-0.09,0.27-0.18,0.55-0.26,0.83
				c-1.57,5.28-1.88,11.02-2.86,15.4c-0.31,1.38-0.69,2.63-1.19,3.69c-0.17,0.35-0.35,0.68-0.55,0.99
				c-0.02,0.04-0.05,0.07-0.08,0.11c0,0,0,0,0,0c-0.11,0.16-0.22,0.3-0.34,0.44c0,0,0.01,0.01,0.01,0.01
				c-1.19,1.48-2.89,2.24-5.46,1.96c-0.46-0.05-0.9-0.12-1.33-0.19c-0.85-0.15-1.63-0.35-2.35-0.6c-0.19-0.06-0.36-0.14-0.54-0.21
				c-0.21-0.08-0.41-0.16-0.61-0.24v0c-6.14-2.71-6.97-8.8-7.8-12.4c-0.04-0.19-0.09-0.38-0.13-0.55c-0.13-0.53-0.28-0.99-0.45-1.35
				c-0.11-0.24-0.24-0.44-0.38-0.6c-0.15-0.15-0.31-0.26-0.5-0.3c-0.09-0.02-0.2-0.03-0.3-0.03c-1.47,9.82,2.78,16.55,8.42,20.01
				c2.98,1.83,6.36,2.75,9.48,2.72c2.08-0.02,4.05-0.45,5.71-1.31c0,0,0,0,0,0c0.48-0.25,0.92-0.52,1.34-0.81
				c0.04-0.03,0.07-0.05,0.11-0.08c0.4-0.28,0.78-0.58,1.14-0.9c0,0,0,0,0,0c0,0,0,0,0,0c0.28-0.25,0.55-0.51,0.8-0.77c0,0,0,0,0,0
				l0,0c8.22-8.68,3.13-27.13,16.47-26.01c3.74,0.31,7.06,2.41,9.94,5.38l0,0c0.47,0.48,0.92,0.99,1.36,1.51
				c5.04,5.95,8.56,14.34,10.38,19.42C1555.41,643.76,1560.18,641.55,1565.09,639.83z"/>
			<path class="st3" d="M1678.66,716.07c-10.21-24.3-22.86-47.76-23.52-62.19c-0.33-7.28,4.88-16.33,11.86-20.24
				c11.49-6.43,30.22-4.64,48.07,4.47l-7.55,5.16c12.81,5.79,25,11.67,32.89,18.1c-13.02-27.54-24.6-30.57-24.6-30.57l0.39,6.32
				c-18.74-10.05-36.9-11.83-49.93-4.53c-8.5,4.76-13.32,12.99-12.91,22.01c0.7,15.28,12.26,37.54,22.64,62.24
				c19.11,45.51,39.09,97.39,15.83,120.19c2.37-0.56,4.88-0.99,7.47-1.26C1717.94,809.61,1697.25,760.34,1678.66,716.07z"/>
			<path class="st3" d="M1578.46,740.49c0,0.02-0.01,0.05-0.01,0.07C1578.45,740.54,1578.46,740.52,1578.46,740.49z"/>
			<path class="st3" d="M1597.97,740.36c-6.15-2.51-13.21-1.72-19.81,1.5c0,0,0,0,0,0c-0.48,1.8-1.29,3.44-2.54,4.77
				c-3.64,3.88-8.8,10.82-12.99,18.8c0.19,0,0.39-0.01,0.58-0.01c19.37,0,36.14,7.81,44.4,19.2c1.26-6.39,0.27-13.65-3.09-22.73
				c0,0,8.42,11.02,5.87,25.53c0.4,0,0.79,0.01,1.19,0.02c0.45-0.89,0.88-1.79,1.26-2.72
				C1620.2,766.68,1611.91,746.06,1597.97,740.36z"/>
			<path class="st4" d="M1643.47,838.07c1.38,0.34,2.69,0.72,3.96,1.13c-0.2-2-0.48-4.1-0.88-6.18
				C1645.9,834.79,1644.86,836.49,1643.47,838.07z"/>
			<path class="st3" d="M1585.51,704.17c-0.29,0.81-0.58,1.55-0.85,2.22c2.82,0.36,5.41,0.78,5.41,0.78
				c-2.32,0.31-4.32,0.55-6.05,0.73c-0.86,1.96-1.46,3.02-1.46,3.02l-1.43-2.04l-2.25,6.95l-0.61-3.48l-2.66,6.34
				c0,0-1.02-1.95-2.36-4.86c-1.44,2.8-1.88,4.91-0.91,5.27c0.32,0.12,0.7,0.45,1.11,0.93c-0.67,5.17-0.53,9.69,0.85,12.68
				c0.9,1.94,2.33,3.21,4.38,3.63c0-0.01,0-0.01,0-0.02c4.75,1.24,9.4-1.48,11.65-4.55c6.75,5.77,15.58,6.95,20.14,4.4
				c2.92-1.64,4.18-4.79,4.72-8.45c-0.06-0.01-0.12-0.02-0.18-0.04c0,0,0.08-0.01,0.2-0.04c0-0.03,0.01-0.06,0.01-0.08
				c0.08,0.01,0.15,0.03,0.23,0.04c3.2-0.52,24.03-3.08,42.26,14.08c10.02,9.44,17.82,22.87,23.73,40.46c0,0,0.83,4.91,1.52,8.08
				c-0.02,0.05-0.05,0.1-0.07,0.15c-0.01,0.03-0.02,0.07-0.04,0.1c-0.12,0.15-0.24,0.3-0.35,0.44
				c-10.28-32.73-27.46-49.61-48.78-58.02c21.21,8.58,38.6,25.63,48.78,58.02c-1.65,2-2.71,2.81-2.74,2.93
				c-0.03,0.14-1.16,2.96-1.98,3.34c-0.82,0.38,0.34,1.02,1.19,0.2c0.79-0.76,1.96-2.67,3.13-2.86c-0.06,0.82-0.09,1.56-0.1,2.09
				c-0.34,1.71-1.27,4.91-1.55,6.54c-0.34,1.96,0.19,2.55,0.42,1.62c0.2-0.83,1.64-3.99,2.21-7.01c0.23,0.07,0.48,0.14,0.74,0.21
				c-0.18,1.81-0.52,4.31-0.57,5.68c-0.07,1.98,0.54,2.5,0.63,1.55c0.08-0.82,1.01-3.92,1.22-6.88c0.2,0.05,0.4,0.1,0.58,0.14
				c0.37,1.75,0.79,4.04,1.15,5.28c0.54,1.91,1.28,2.21,1.08,1.28c-0.17-0.77-0.24-3.71-0.86-6.48c0.2-0.83-1.17-5.83-2.18-7.52
				c-7.63-31.72-25.79-74.58-77-91.13C1600.22,705.71,1591.55,705.46,1585.51,704.17z M1576.28,733.41c0-0.85,1.1-1.53,2.45-1.53
				s2.45,0.69,2.45,1.53c0,0.85-1.1,1.53-2.45,1.53S1576.28,734.26,1576.28,733.41z M1607.82,705.2c2.96,0,3.06,2.56,1.33,2.56
				c-2.45,0-6.85-0.1-14-0.61C1595.14,707.14,1604.85,705.2,1607.82,705.2z M1607.41,735.46c-1.35,0-2.45-0.69-2.45-1.53
				s1.1-1.53,2.45-1.53c1.35,0,2.45,0.69,2.45,1.53S1608.76,735.46,1607.41,735.46z"/>
			<path class="st4" d="M1682.49,790.93c0.11-0.14,0.24-0.29,0.35-0.44c0.01-0.03,0.02-0.07,0.04-0.1c0.02-0.06,0.05-0.1,0.07-0.15
				c-0.69-3.17-1.52-8.08-1.52-8.08c-5.91-17.59-13.7-31.03-23.73-40.46c-18.22-17.15-39.06-14.59-42.26-14.08
				c-0.08-0.01-0.15-0.03-0.23-0.04c0,0.03-0.01,0.06-0.01,0.08c-0.12,0.02-0.2,0.04-0.2,0.04c0.06,0.01,0.12,0.02,0.18,0.04
				c-0.54,3.66-1.79,6.81-4.72,8.45c-4.56,2.56-13.39,1.37-20.14-4.4c-2.25,3.07-6.91,5.79-11.65,4.55c0,0.01,0,0.01,0,0.02
				c0.06,1.49,0.01,2.82-0.22,4.15c0,0.02-0.01,0.05-0.01,0.07c-0.08,0.43-0.17,0.86-0.29,1.3c0,0,0,0,0,0
				c6.61-3.21,13.67-4.01,19.81-1.5c13.94,5.69,22.23,26.31,14.86,44.36c-0.38,0.93-0.81,1.83-1.26,2.72
				c16.15,0.57,29.02,11.17,29.02,24.18c0,1.56-0.19,3.09-0.55,4.57c4.59,3.49,7.31,7.83,7.31,12.52c0,0.8-0.08,1.59-0.24,2.37
				l1.66,2.65c0,0,0.89-11.64-1.61-22.16l2.96,3.31c0,0-1.26-13.49-6.37-23.83l4.34,2.93c0,0-3.17-8.9-8.58-16.94
				c-2.46-6.78-5.75-13.6-10.13-20.32c-0.16-0.25-0.33-0.48-0.49-0.72c0.05-8.48-0.97-17.24-3.06-25.78
				c2.68,0.78,5.31,1.67,7.88,2.68C1655.02,741.32,1672.21,758.2,1682.49,790.93z"/>
			<path class="st5" d="M1585.51,704.17c6.03,1.29,14.7,1.54,22.35-4.24c0.04-0.03,0.07-0.05,0.11-0.08
				c-7.82-10.97-11.21-21-11.73-28.58c-1.88,5.21-4.12,10.5-6.73,15.67C1588.72,694.09,1587.03,700,1585.51,704.17z"/>
			<path class="st5" d="M1609.15,707.76c1.73,0,1.64-2.56-1.33-2.56s-12.68,1.94-12.68,1.94
				C1602.3,707.65,1606.69,707.76,1609.15,707.76z"/>
			<path class="st5" d="M1584.66,706.39c-0.22,0.55-0.44,1.06-0.64,1.51c1.72-0.19,3.72-0.42,6.05-0.73
				C1590.07,707.17,1587.48,706.76,1584.66,706.39z"/>
			<path class="st4" d="M1604.51,761.9c3.36,9.08,4.36,16.34,3.09,22.73c0.66,0.92,1.28,1.85,1.83,2.81
				c0.26-0.01,0.52-0.02,0.78-0.02c0.06,0,0.12,0,0.17,0C1612.93,772.92,1604.51,761.9,1604.51,761.9z"/>
			<path class="st4" d="M1607.41,732.39c-1.35,0-2.45,0.69-2.45,1.53s1.1,1.53,2.45,1.53c1.35,0,2.45-0.69,2.45-1.53
				S1608.76,732.39,1607.41,732.39z"/>
			<path class="st4" d="M1581.19,733.41c0-0.85-1.1-1.53-2.45-1.53s-2.45,0.69-2.45,1.53c0,0.85,1.1,1.53,2.45,1.53
				S1581.19,734.26,1581.19,733.41z"/>
			<path class="st4" d="M1541.88,655.32c1.19-1.63,2.55-3.14,4.03-4.54c-6.53-9.88-15.28-16.99-15.28-16.99
				c-1.53,16.4,2.52,27.92,16.18,37.84C1544.61,666.76,1542.95,661.4,1541.88,655.32z"/>
			<path class="st3" d="M1577.15,703.33c13.12-23.63,16.8-53.34,15.57-69.16c0.17-0.02,0.33-0.03,0.5-0.05
				c-1.88,0.16-3.96,0.38-6.19,0.67c-4.61,0.61-9.83,1.53-15.13,2.94c-2.27,0.6-4.56,1.3-6.82,2.09c-4.91,1.73-9.68,3.94-13.89,6.76
				c-1.89,1.27-3.66,2.67-5.29,4.2c-1.48,1.4-2.84,2.9-4.03,4.54c1.07,6.07,2.72,11.43,4.93,16.32c4.44,9.85,11.2,17.73,20.33,25.3
				c2.21,1.83,4.55,3.65,7.03,5.47C1575.07,703.07,1576.12,703.35,1577.15,703.33z"/>
			<path class="st3" d="M1579.65,702.57c-0.08,0.05-0.17,0.1-0.26,0.15C1579.48,702.67,1579.56,702.62,1579.65,702.57z"/>
			<path class="st3" d="M1578.93,702.94c-0.18,0.08-0.37,0.14-0.56,0.2C1578.56,703.08,1578.75,703.02,1578.93,702.94z"/>
			<path class="st3" d="M1577.15,703.33c0.33-0.01,0.66-0.05,0.98-0.13C1577.81,703.27,1577.48,703.32,1577.15,703.33z"/>
			<path class="st3" d="M1580.38,701.99c-0.04,0.04-0.08,0.09-0.13,0.13C1580.29,702.07,1580.34,702.03,1580.38,701.99z"/>
			<path class="st3" d="M1519.74,719.26c0,0,1.1,0.19,2,0.07c2.99,3.75,7.17,8.1,9.82,14.11c9.6,21.79,18.52,25.64,22.21,22.93
				c0.39-0.28,0.67-0.69,0.87-1.2c-0.17-1.42-0.45-2.97-0.86-4.62c2.04-2.08,4.6-5.21,6.94-15.53c9.74-4.19,9.62-15.01,12.17-21.98
				c-1-2.19-2.13-4.81-3.15-7.52c-9.91,10.9-16.62,28.49-19.31,36.44c-0.46-0.85-0.94-1.71-1.5-2.59
				c-6.17-9.81-21.44-19.4-26.97-22.66c-1.14-1.66-0.88-3.97-0.66-5.92c1.13-4.35,3.01-10.33,3.01-10.33c-2.47-1.6-4.78-10-4.78-10
				c-1.68,4.66,1.68,10.88,1.68,10.88s-1.18,3.41-3.87,5.97c-1.04,0.32-2.11,0.76-3.29,0.89c-1.63,0.18-3.54-3.2-4.9-5.46
				c-0.6-1.08-1.33-2.64-1.96-4.03c0.95-2.96,0.24-5.15,0.24-5.15c-0.1,0.67-0.56,1.85-1.14,3.13c-0.27-0.62-0.44-1.02-0.44-1.02
				c0.78-10.06-1.3-11.57-1.3-11.57c0.39,3.19-0.73,11.61-0.73,11.61s0.31,1.21,1.2,3.64c-0.94,1.89-1.8,3.46-1.8,3.46
				s0.99,1.46,2.94,3.93c-0.97,0.16-1.78,0.3-1.97,0.34c-0.52,0.13-0.13,2.07-0.13,2.07s1.62,2.14,3.56,3.95l0.01-0.06
				c2.05,2,8.48,3.32,11.71,5.86c1.75,2.46,5.48,8.14,7.8,14.89c-2.32-6.76-6.04-12.43-7.8-14.89
				C1519.47,719.04,1519.62,719.14,1519.74,719.26z M1505.83,701.53c0.28,0.71,0.59,1.49,0.95,2.33c-0.01,0.06-0.01,0.11-0.02,0.17
				l-1.48-1.72C1505.48,702.05,1505.66,701.79,1505.83,701.53z M1506.58,708.53c0,0.2,0.01,0.39,0.02,0.59l-0.48-0.4
				C1506.29,708.66,1506.43,708.6,1506.58,708.53z"/>
			<path class="st4" d="M1255.31,619.75l-9.25,2.63c0,0,0,0,0,0l0,0c0,0,0.11,1.82,0.47,4.52c-0.03-0.02-0.05-0.03-0.08-0.05
				c4.35,2.94,7.53,6.66,9.21,11.44c9.95,28.27,28.68,43.93,36.66,49.58c2.02-2.25,4.95-3.65,8.22-3.61
				c2.98,0.04,6.46,0.2,10.33,0.57c3.68-2.12,4.89-6.92,5.52-9.96c1.8,2.74,4.97,6.69,9.17,8.59c-0.44,1.46-0.42,2.64-0.14,3.6
				c2.61,0.55,5.31,1.22,8.06,1.99c-0.18-1.14-0.34-1.83-0.34-1.83c2.81-3.07,11.08,1.38,13.72,2.92c1.46-0.98,2.66-1.96,3.53-2.92
				c12.66-13.92,4.61-29.34-3.79-43.38c0,0,0,0,0,0c-0.02-0.14-0.05-0.26-0.08-0.4c-0.29-1.69-0.7-3.2-1.22-4.57
				c-4.44-11.98-15.93-12.04-16.16-12.04c-0.41-0.4-1.05-0.69-1.83-0.91c-6.16-25.25-55.07-30.76-69.43-59.23c0,0,0,0,0,0
				c-0.3-0.58-0.57-1.17-0.83-1.77c-0.06-0.14-0.13-0.28-0.19-0.43c-0.27-0.64-0.53-1.3-0.77-1.96l0,0c0,0,0,0,0,0
				c0,0-9.39,18.28,1.98,33.16l-8.96-1.84c0,0,0,0.01,0,0.01l-0.01,0c0,0-0.73,10.49,1.52,18.35
				C1251.57,615.51,1253.04,618.35,1255.31,619.75z M1325.11,678.83c-5.08-1.13-8.87-4.23-11.42-8.3c0.01,0.01,0.01,0.01,0.02,0.02
				c0,0-1.9-2.91-2.59-6.63c-8.36-2.28-6.51-9.6-2.81-9.99c1.85-0.2,3.28,0.54,4.27,1.57c0.83-1.6,2.68-5.4,3.78-9.63l15.14-9.27
				c0.01,0,0.01,0,0.02,0c2.54,3.56,5.93,5.37,8.85,6.29c0.15,0.26,0.29,0.51,0.43,0.79c1.31,2.96,2.01,6.69,2.33,11.19
				C1344.24,670.9,1340.67,682.28,1325.11,678.83z"/>
			<path class="st3" d="M1391.23,721.91c-1.8,1.99-3.47,5.26-3.47,5.26s-9.75,3.92-18.71,4.44c-0.76-1.11-1.98-1.92-3.45-2.08
				c-0.47-0.05-0.94-0.11-1.42-0.18c-3.67,2.34-8.88,4.78-11.44,4.5c0,0-3.48,0.67-8.55,1.5c3.36,7.92,7.12,16.35,11.29,24.93
				c3.63-3.81,6.45-7.8,8.62-11.61c1.88-3.29,3.28-6.43,4.32-9.17c11.27-1.45,22.9-6.97,22.9-6.97s4.1,1.2,4.99,0.97
				c0.08-0.02,0.24-0.09,0.45-0.2c0.5-2.52,0.92-5.07,1.29-7.63c0.31-2.15,0.61-4.4,0.8-6.67
				C1396.91,718.89,1392.77,720.22,1391.23,721.91z"/>
			<path class="st3" d="M1401.94,730.19c2.42-1.62,4.65-3.39,4.43-4.14c-0.24-0.8-1.73-2.42-3.27-3.89
				c-0.17,1.42-0.36,2.82-0.55,4.18C1402.36,727.62,1402.15,728.9,1401.94,730.19z"/>
			<path class="st4" d="M1235.71,621.75c0.36,0.12,0.72,0.25,1.08,0.37C1236.43,622,1236.07,621.87,1235.71,621.75z"/>
			<path class="st4" d="M1239.64,623.22c0.34,0.14,0.68,0.29,1.01,0.44C1240.31,623.51,1239.98,623.37,1239.64,623.22z"/>
			<path class="st4" d="M1237.71,622.46c0.35,0.13,0.7,0.27,1.04,0.4C1238.41,622.73,1238.07,622.59,1237.71,622.46z"/>
			<path class="st4" d="M1231.47,620.48c0.38,0.1,0.75,0.21,1.13,0.31C1232.23,620.69,1231.85,620.58,1231.47,620.48z"/>
			<path class="st4" d="M1233.63,621.09c0.37,0.11,0.74,0.23,1.11,0.34C1234.37,621.32,1234,621.2,1233.63,621.09z"/>
			<path class="st4" d="M1241.47,624.04c0.33,0.15,0.65,0.31,0.97,0.47C1242.13,624.35,1241.8,624.19,1241.47,624.04z"/>
			<path class="st4" d="M1244.89,625.85c0.3,0.18,0.6,0.36,0.89,0.54C1245.48,626.21,1245.19,626.03,1244.89,625.85z"/>
			<path class="st4" d="M1111.35,604.56c0.02,0.01,0.04,0.01,0.06,0.02C1111.39,604.57,1111.37,604.56,1111.35,604.56z"/>
			<path class="st4" d="M1113.71,605.42c0.02,0.01,0.05,0.02,0.07,0.02C1113.76,605.44,1113.73,605.43,1113.71,605.42z"/>
			<path class="st4" d="M1243.22,624.91c0.31,0.17,0.63,0.33,0.93,0.51C1243.85,625.25,1243.54,625.08,1243.22,624.91z"/>
			<path class="st4" d="M1226.95,619.39c0.39,0.08,0.77,0.17,1.15,0.26C1227.72,619.56,1227.34,619.48,1226.95,619.39z"/>
			<path class="st4" d="M1200.39,615.96c0.1,0.01,0.21,0.02,0.31,0.02C1200.6,615.97,1200.49,615.96,1200.39,615.96z"/>
			<path class="st4" d="M1206.2,616.44c0.06,0.01,0.12,0.01,0.18,0.02C1206.32,616.45,1206.26,616.45,1206.2,616.44z"/>
			<path class="st4" d="M1203.28,616.19c0.09,0.01,0.19,0.01,0.28,0.02C1203.47,616.2,1203.38,616.19,1203.28,616.19z"/>
			<path class="st4" d="M1197.52,615.75c0.09,0.01,0.18,0.01,0.27,0.02C1197.71,615.76,1197.61,615.75,1197.52,615.75z"/>
			<path class="st4" d="M1194.75,615.56c0.02,0,0.04,0,0.05,0C1194.79,615.56,1194.77,615.56,1194.75,615.56z"/>
			<path class="st4" d="M1217.16,617.68c0.3,0.04,0.6,0.09,0.9,0.13C1217.76,617.77,1217.46,617.73,1217.16,617.68z"/>
			<path class="st4" d="M1224.59,618.91c0.39,0.07,0.77,0.15,1.15,0.23C1225.36,619.06,1224.98,618.98,1224.59,618.91z"/>
			<path class="st4" d="M1222.18,618.47c0.38,0.07,0.75,0.14,1.12,0.2C1222.92,618.6,1222.55,618.53,1222.18,618.47z"/>
			<path class="st4" d="M1229.25,619.92c0.38,0.09,0.76,0.19,1.14,0.28C1230.01,620.1,1229.64,620.01,1229.25,619.92z"/>
			<path class="st4" d="M1219.7,618.06c0.35,0.05,0.7,0.11,1.05,0.17C1220.4,618.17,1220.05,618.11,1219.7,618.06z"/>
			<path class="st4" d="M1214.58,617.34c0.17,0.02,0.34,0.05,0.51,0.07C1214.91,617.39,1214.75,617.36,1214.58,617.34z"/>
			<path class="st4" d="M1109.05,603.64c0.01,0.01,0.02,0.01,0.04,0.01C1109.08,603.65,1109.06,603.64,1109.05,603.64z"/>
			<path class="st4" d="M1116.14,606.24c0.02,0.01,0.04,0.01,0.06,0.02C1116.18,606.25,1116.16,606.24,1116.14,606.24z"/>
			<path class="st4" d="M1118.63,607c0.01,0,0.01,0,0.02,0C1118.64,607,1118.63,607,1118.63,607z"/>
			<path class="st4" d="M1347.17,693.74c1.06,0.16,2.08,0.65,2.87,1.5c1.17,1.26,2.38,2.62,3,3.48c0.08,0.11,0.15,0.29,0.23,0.52
				c-0.07-0.23-0.15-0.41-0.23-0.52c-0.62-0.87-1.83-2.22-3-3.49c-0.3-0.32-0.65-0.58-1.01-0.81
				C1348.45,694.07,1347.82,693.84,1347.17,693.74L1347.17,693.74z"/>
			<path class="st3" d="M1350.63,764.82c1.43-1.19,2.76-2.41,4.01-3.66c-4.29-8.83-8.16-17.5-11.6-25.62
				c-7.24,1.17-17.19,2.57-25.09,2.96c-9.53,7.21-29.06,19.35-50.46,17.44c-3.98,4.93-8.1,11.17-12.33,18.1
				c8.75-5.36,20.16-8.61,32.66-8.61c0.39,0,0.77,0.01,1.16,0.02c0.39-0.01,0.77-0.02,1.16-0.02c19.56,0,36.47,7.95,44.64,19.52
				c-0.6-2.05-1.42-4.36-2.55-6.84c-0.33-0.72-0.62-1.51-0.89-2.35c0,0,0,0,0,0C1337.88,773.22,1344.76,769.68,1350.63,764.82z"/>
			<path class="st3" d="M1135.62,823.64c0,0-16.03,7.19-15.33,18.84c1.09,0,2.18,0.04,3.25,0.11c4.89-1.13,10.12-1.76,15.55-1.76
				c6.39,0,12.51,0.85,18.12,2.4C1143.49,834.91,1135.62,823.64,1135.62,823.64z"/>
			<path class="st3" d="M1340.81,643.68c-0.14-0.27-0.28-0.53-0.43-0.79c-2.92-0.93-6.31-2.73-8.85-6.29c-0.01,0-0.01,0-0.02,0
				l-15.14,9.27c-1.09,4.24-2.94,8.04-3.78,9.63c-0.99-1.03-2.43-1.77-4.27-1.57c-3.71,0.4-5.56,7.72,2.81,9.99
				c0.69,3.71,2.59,6.63,2.59,6.63c-0.01-0.01-0.01-0.01-0.02-0.02c2.54,4.06,6.33,7.17,11.42,8.3
				c15.56,3.45,19.13-7.93,18.02-23.96C1342.82,650.36,1342.11,646.64,1340.81,643.68z"/>
			<path class="st3" d="M1333.14,687.23c0,0,0.17,0.7,0.34,1.83c-2.76-0.78-5.45-1.44-8.06-1.99c-0.28-0.96-0.31-2.14,0.14-3.6
				c-4.2-1.9-7.37-5.85-9.17-8.59c-0.63,3.03-1.84,7.84-5.52,9.96c-3.87-0.37-7.35-0.53-10.33-0.57c-3.26-0.04-6.19,1.36-8.22,3.61
				c-7.98-5.65-26.71-21.31-36.66-49.58c-1.68-4.78-4.87-8.5-9.21-11.44c-0.23-0.15-0.45-0.31-0.68-0.45
				c-0.29-0.19-0.59-0.37-0.89-0.54c-0.24-0.14-0.48-0.29-0.73-0.43c-0.31-0.17-0.62-0.34-0.93-0.51c-0.26-0.14-0.52-0.27-0.78-0.4
				c-0.32-0.16-0.64-0.32-0.97-0.47c-0.27-0.13-0.55-0.26-0.83-0.38c-0.33-0.15-0.67-0.29-1.01-0.44c-0.29-0.12-0.58-0.24-0.88-0.36
				c-0.34-0.14-0.69-0.27-1.04-0.4c-0.31-0.11-0.62-0.23-0.93-0.34c-0.36-0.13-0.71-0.25-1.08-0.37c-0.32-0.11-0.65-0.21-0.98-0.32
				c-0.37-0.12-0.73-0.23-1.11-0.34c-0.34-0.1-0.68-0.2-1.03-0.3c-0.37-0.11-0.75-0.21-1.13-0.31c-0.36-0.1-0.72-0.19-1.08-0.28
				c-0.38-0.1-0.76-0.19-1.14-0.28c-0.38-0.09-0.76-0.18-1.15-0.27c-0.38-0.09-0.76-0.17-1.15-0.26c-0.4-0.09-0.8-0.17-1.21-0.25
				c-0.38-0.08-0.77-0.16-1.15-0.23c-0.43-0.08-0.86-0.16-1.3-0.24c-0.37-0.07-0.74-0.14-1.12-0.2c-0.47-0.08-0.95-0.16-1.43-0.24
				c-0.35-0.06-0.69-0.12-1.05-0.17c-0.54-0.08-1.09-0.16-1.64-0.24c-0.3-0.04-0.59-0.09-0.9-0.13c-0.69-0.1-1.38-0.19-2.08-0.28
				c-0.17-0.02-0.34-0.05-0.51-0.07c-2.66-0.33-5.4-0.63-8.2-0.88c-0.06-0.01-0.12-0.01-0.18-0.02c-0.87-0.08-1.75-0.16-2.63-0.23
				c-0.09-0.01-0.19-0.01-0.28-0.02c-0.86-0.07-1.71-0.14-2.58-0.21c-0.1-0.01-0.21-0.02-0.31-0.02c-0.86-0.07-1.72-0.13-2.59-0.19
				c-0.09-0.01-0.18-0.01-0.27-0.02c-0.9-0.06-1.81-0.12-2.72-0.18c-0.02,0-0.04,0-0.05,0c-25.32-1.65-53.8-2.04-76.11-8.56
				c-0.01,0-0.01,0-0.02,0c-0.82-0.24-1.63-0.49-2.43-0.74c-0.02-0.01-0.04-0.01-0.06-0.02c-0.79-0.25-1.58-0.52-2.36-0.79
				c-0.02-0.01-0.05-0.02-0.07-0.02c-0.78-0.27-1.55-0.55-2.3-0.84c-0.02-0.01-0.04-0.01-0.06-0.02c-0.76-0.29-1.52-0.6-2.26-0.91
				c-0.01,0-0.02-0.01-0.04-0.01c-1.51-0.63-2.98-1.31-4.4-2.03c6.59,4.94,14.82,10.25,23.64,14.01c0.9,0.39,1.8,0.74,2.71,1.1
				c15.36,5.9,70.46,6.75,88.53,15.02c0,0-17.76,0.48-16.23,3.61c1.52,3.13,14.38,4.04,14.38,4.04s-11.02,3.68-3.67,8.27
				c7.35,4.6,17.15-1.25,17.15-1.25s-6.75,6.46-2.46,8.61c4.29,2.14,15.62-2.34,15.62-2.34s18.69,28.97,45.48,39.95
				c-0.05,0.2-0.09,0.39-0.13,0.59c-4.22,7.76-8.24,20.19-16.53,24.73c-6.39,3.5-15.06,2.99-22.45,1.97
				c-3.82-0.53-7.28-1.19-9.92-1.5c-1.79-0.21-3.2-0.27-4.07-0.01c-0.28,0.09-0.52,0.2-0.68,0.36c-2.81,2.72-7.43,3.3-7.43,3.3
				c0.68,0.62,1.38,1.22,2.09,1.81c-11.79,2.46-21.99,7.32-28.24,13.15l23.75,1.44c2.39-1.21,7.33-3.62,11.25-5.03
				c1.23-0.44,2.89-1.05,4.63-1.69c24.04,13.85,56.17,17.81,69.32,9.46c2.26-1.44,4.18-2.79,5.82-4.05
				c0.09-0.16,0.18-0.31,0.26-0.47c14.12-0.53,35.9-4.7,35.9-4.7c3.46,0.38,11.8-4.23,14.57-6.81c0.17-0.16,0.33-0.31,0.45-0.46
				c2.17-2.45-7.88-9.51-9.11-9.24c-0.63,0.14-2.32,0.89-4.07,1.88c-0.54-5.68-1-12.46-1.56-16.12l-9.85,10.06
				c-0.81,2.21-1.88,4.52-3.27,6.79c0.29-1.45,0.53-2.84,0.72-4.19l-4.16,4.24c0.99,2.47,2.03,5.06,3.12,7.73
				c-0.38,0.05-0.77,0.1-1.17,0.15c-1.1-2.69-2.15-5.3-3.15-7.8l-0.14-0.34l5.74-5.85c0.5-4.25,0.56-7.9,0.39-10.91
				c1.15-1.15,2.27-2.4,3.22-3.72l1.29-0.22c0,0,0.15,5.16-1.78,11.67l8.79-8.97c-0.06-0.25-0.11-0.46-0.17-0.65
				c-0.07-0.23-0.15-0.41-0.23-0.52c-0.62-0.86-1.82-2.22-3-3.48c-0.78-0.84-1.8-1.34-2.87-1.5l0,0c0.65,0.1,1.28,0.33,1.86,0.69
				c-0.32-0.38-0.68-0.75-1.06-1.12c0,0-0.24-0.01-0.65,0c0.28-0.9,0.43-1.79,0.38-2.67c0,0-0.31-0.19-0.83-0.5
				C1344.22,688.6,1335.95,684.15,1333.14,687.23z M1310.38,722.01c-0.17-0.56-0.34-1.11-0.5-1.66c-0.25-1.24-0.4-2.88-0.63-5.11
				c1.3,3.55,3.38,6.97,6.83,9.52c-0.8-0.12-1.58-0.26-2.27-0.43C1311.92,723.87,1310.96,723.26,1310.38,722.01z"/>
			<path class="st4" d="M1322.7,594.47c16.06-1.82,28.75-6.23,28.33-9.84s-13.76-5.06-29.82-3.24c-16.06,1.82-28.74,6.23-28.33,9.84
				C1293.29,594.84,1306.64,596.29,1322.7,594.47z M1321.66,585.28c10.27-1.17,18.81-0.24,19.07,2.07c0.26,2.31-7.85,5.13-18.12,6.3
				c-10.27,1.17-18.81,0.24-19.07-2.07C1303.27,589.27,1311.39,586.45,1321.66,585.28z"/>
			<path class="st4" d="M1344.64,708.86c1.94-6.51,1.78-11.67,1.78-11.67l-1.29,0.22c-0.95,1.31-2.07,2.57-3.22,3.72
				c0.17,3.01,0.11,6.66-0.39,10.91l-5.74,5.85l0.14,0.34c1,2.5,2.05,5.11,3.15,7.8c0.39-0.05,0.79-0.1,1.17-0.15
				c-1.09-2.67-2.14-5.25-3.12-7.73l4.16-4.24c-0.19,1.34-0.43,2.74-0.72,4.19c1.39-2.27,2.46-4.58,3.27-6.79l9.85-10.06
				l29.45-30.06c-0.13,3.24,0.8,6.71,2.8,10.34c1.15,2.08,2.51,4,3.83,5.86c0.87,1.22,1.68,2.38,2.45,3.58
				c4.48,7.03,6.92,15.49,6.86,23.82c-0.01,1.41-0.1,2.82-0.22,4.22c-0.2,2.27-0.49,4.51-0.8,6.67c-0.37,2.55-0.79,5.11-1.29,7.63
				c-1.98,9.95-5.31,19.33-12.51,25.49c-1.99,1.71-4.23,3.11-6.59,4.6c-1.06,0.66-2.11,1.33-3.15,2.02
				c-3.08,2.06-6.91,4.97-9.2,9.22c-0.46,0.86-0.83,1.74-1.12,2.64c-3.08-5.66-5.99-11.36-8.73-16.99
				c3.63-3.81,6.44-7.81,8.62-11.62c-2.18,3.81-4.99,7.8-8.62,11.61c-4.16-8.58-7.92-17.01-11.29-24.93c5.07-0.83,8.55-1.5,8.55-1.5
				c2.56,0.28,7.77-2.16,11.44-4.5c1.61-1.02,2.92-2.03,3.58-2.77c0.33-0.37,0.37-0.85,0.22-1.39c-2.77,2.59-11.11,7.2-14.57,6.81
				c0,0-21.78,4.17-35.9,4.7c-0.09,0.16-0.18,0.31-0.26,0.47c-1.64,1.26-3.55,2.61-5.82,4.05c-13.15,8.35-45.29,4.39-69.32-9.46
				c-1.74,0.64-3.4,1.25-4.63,1.69c-3.92,1.41-8.86,3.82-11.25,5.03c-0.89,0.45-1.43,0.73-1.43,0.73
				c5.12,3.96,13.41,8.97,25.91,12.94l-84.56,39.36c8.3-0.9,20-1.47,32.88,0c6.39,0.73,12.26,0.85,17.47,0.62l-38.4,29.48
				c4.41,3.03,14.37,9,26.78,14.86c3.15-0.58,6.49-0.93,9.95-1.01c-4.88-3.55-7.8-8.02-7.8-12.87c0-3.19,1.26-6.21,3.51-8.92
				c-0.07-0.67-0.11-1.35-0.11-2.03c0-13.37,13.6-24.2,30.38-24.2c0.26,0,0.52,0.01,0.77,0.02c2.98-5.2,7.67-9.78,13.57-13.4
				c4.23-6.93,8.35-13.17,12.33-18.1c21.4,1.91,40.93-10.23,50.46-17.44c7.9-0.39,17.85-1.79,25.09-2.96
				c3.45,8.13,7.31,16.8,11.6,25.62c-1.24,1.25-2.57,2.48-4.01,3.66c-5.86,4.87-12.74,8.4-19.3,10.95c0,0,0,0,0,0
				c6.56-2.55,13.44-6.08,19.3-10.94c1.43-1.19,2.76-2.41,4-3.66c2.86,5.88,5.91,11.82,9.15,17.72c-0.7,3.44-0.15,6.92,1.66,9.58
				c0.51,0.75,1.39,1.1,2.24,0.97c0.32-0.05,0.63-0.17,0.92-0.37c1.04-0.71,1.31-2.12,0.6-3.16c-1.84-2.71-1.27-6.53,0.12-9.1
				c1.82-3.37,5.08-5.83,7.72-7.6c1-0.67,2.02-1.31,3.04-1.95c2.4-1.51,4.87-3.07,7.12-4.99c9.19-7.87,12.7-19.84,14.74-32.06
				c0.21-1.29,0.42-2.57,0.61-3.86c0.2-1.36,0.38-2.76,0.55-4.18c0.28-2.38,0.5-4.83,0.52-7.33c0.07-9.2-2.62-18.54-7.57-26.3
				c-0.83-1.3-1.72-2.55-2.58-3.76c-1.3-1.84-2.53-3.57-3.56-5.43c-1.3-2.34-2.71-5.85-2.12-9.24c0.52-2.96,2.75-5.39,5.24-5.65
				c1.25-0.13,2.15-1.25,2.02-2.5c-0.13-1.25-1.25-2.15-2.5-2.02c-4.48,0.48-8.37,4.43-9.23,9.39c0,0.03-0.01,0.05-0.01,0.08
				l-29.88,30.5L1344.64,708.86z"/>
			<path class="st4" d="M1411.36,734.94c-0.14,0.92,0.78,1.72,1.7,1.81c0.92,0.08,1.71-0.1,2.54-0.52c-0.3,0.6-0.57,1.38-0.14,1.89
				c0.37,0.44,1.05,0.41,1.6,0.26c0.98-0.26,1.97-0.69,2.68-1.41c-0.31,0.23-0.44,0.68-0.3,1.04s0.52,0.61,0.91,0.59
				c0.3-0.02,0.57-0.19,0.82-0.37c1.36-0.97,2.45-2.28,3.2-3.77c23.18,1.81,46.55,4.11,69.62,6.83c-0.95,0.69-1.72,1.61-2.21,2.68
				c-0.36,0.78-0.55,1.75-0.08,2.47c0.59,0.91,1.89,0.96,2.96,0.85c4.95-0.51,10.49-2.51,14.29-5.82c0.07-0.06,0.14-0.12,0.15-0.22
				c0.01-0.09-0.05-0.17-0.1-0.24c-1.58-1.96-4.26-3.69-6.3-5.17c-2.31-1.68-4.74-3.18-7.28-4.49c-0.71-0.36-1.55-0.72-2.27-0.37
				c-1.18,0.57-0.9,2.32-0.31,3.49c0.91,1.8,2.14,3.43,3.6,4.83c-23.83-2.84-48-5.23-71.97-7.1c-0.54-1.62-1.47-3.12-2.73-4.28
				c-0.22-0.21-0.47-0.41-0.77-0.47c-0.38-0.08-0.8,0.12-0.98,0.46c-0.18,0.34-0.11,0.8,0.17,1.07c-0.61-0.81-1.54-1.36-2.47-1.74
				c-0.53-0.22-1.2-0.33-1.62,0.06c-0.49,0.45-0.32,1.26-0.1,1.9c-0.76-0.53-1.52-0.81-2.45-0.84c-0.93-0.03-1.94,0.65-1.92,1.57
				c0.02,0.74,0.64,1.3,1.21,1.77c0.66,0.54,1.46,0.83,2.3,0.99c-0.82,0.06-1.62,0.25-2.33,0.68
				C1412.16,733.74,1411.47,734.21,1411.36,734.94z"/>
			<path class="st4" d="M1273.16,717.94c8.29-4.54,12.31-16.98,16.53-24.73c0.04-0.2,0.08-0.4,0.13-0.59
				c-26.8-10.98-45.48-39.95-45.48-39.95s-11.33,4.47-15.62,2.34c-4.29-2.15,2.46-8.61,2.46-8.61s-9.8,5.85-17.15,1.25
				c-7.35-4.58,3.67-8.27,3.67-8.27s-12.87-0.91-14.38-4.04c-1.53-3.13,16.23-3.61,16.23-3.61c-18.07-8.27-73.17-9.12-88.53-15.02
				c-0.91-0.36-1.81-0.71-2.71-1.1c-8.83-3.76-17.05-9.07-23.64-14.01c-0.83-0.41-1.63-0.85-2.43-1.29c-0.18-0.1-0.37-0.2-0.55-0.31
				c-0.84-0.48-1.66-0.98-2.46-1.5l0,0c0,0,0,0-0.01,0c0,0-2.18,20.51,24.77,29.62l-14.73,1.89c0,0,0,0.01,0,0.01l-0.01,0
				c0,0,11.67,20,26.36,21.27l-12.24,6.1l0,0l0,0c0,0,11.34,13.58,24.45,18.55c2.43,0.92,4.91,1.55,7.4,1.74l-9.18,6.61
				c0,0,21.43,19.09,47.77,12.36l-2.41,4.4l-2.14,3.91c0,0,0.01,0,0.01,0l0,0c0,0,23.73,3.41,35.89,0
				c8.7-2.44,35.94-1.48,54.56,4.84c-4.59,5.28-8.42,8.24-8.42,8.24s-8.94-0.34-17.56,1.23c-1.01,0.18-2.01,0.39-3,0.63
				C1258.1,720.93,1266.77,721.45,1273.16,717.94z"/>
			<path class="st4" d="M1309.25,715.24c0.23,2.23,0.39,3.87,0.63,5.11c0.16,0.55,0.33,1.1,0.5,1.66c0.58,1.26,1.54,1.86,3.42,2.32
				c0.7,0.17,1.47,0.31,2.27,0.43C1312.63,722.21,1310.55,718.78,1309.25,715.24z"/>
			<path class="st7" d="M1214.82,835.45c-3.46,0.08-6.8,0.43-9.95,1.01c-8.23,1.51-15.2,4.61-19.77,8.67
				c1.99,0.07,3.92,0.28,5.75,0.63c6.79-5.9,20.41-9.92,36.12-9.92c6.59,0,12.81,0.71,18.32,1.97c0.69-0.88,1.43-1.74,2.21-2.57
				c-2.16,0.39-4.4,0.6-6.7,0.6c-15.92,0-28.97-9.76-30.27-22.17c-2.25,2.71-3.51,5.73-3.51,8.92
				C1207.02,827.43,1209.94,831.9,1214.82,835.45z"/>
			<path class="st7" d="M1425.5,842.12c4.24-0.83,8.71-1.28,13.33-1.28c7.39,0,14.39,1.14,20.69,3.18
				c-0.47,0.36-0.91,0.73-1.34,1.11c1.99,0.07,3.92,0.28,5.75,0.63c6.79-5.9,20.41-9.92,36.12-9.92c6.59,0,12.81,0.71,18.32,1.97
				c0.69-0.88,1.43-1.74,2.21-2.57c-2.16,0.39-4.4,0.6-6.7,0.6c-15.92,0-28.97-9.76-30.27-22.17c-2.25,2.71-3.51,5.73-3.51,8.92
				c0,4.85,2.92,9.32,7.8,12.87c-10.7,0.23-20.24,3.05-26.73,7.38c-6.78-4.52-16.89-7.4-28.18-7.4c-9.66,0-18.45,2.1-25.03,5.54
				c1.39-0.08,2.79-0.13,4.21-0.13C1416.79,840.84,1421.26,841.29,1425.5,842.12z"/>
			<path class="st7" d="M1120.16,842.48c-20.42,0-36.98,11.17-36.98,24.95c0,3.54,1.11,6.89,3.08,9.94c0.99-0.1,2-0.19,3.01-0.25
				c-0.02-0.36-0.04-0.72-0.04-1.09c0-15.61,14.39-28.83,34.31-33.45c-1.07-0.07-2.15-0.1-3.25-0.11
				C1120.25,842.48,1120.2,842.48,1120.16,842.48z"/>
			<path class="st7" d="M1359.54,839.49c6.4,1.85,10.64,4.33,13.34,7.12c-10.01,4.47-16.61,12.12-16.61,20.82
				c0,3.53,1.11,6.89,3.08,9.94c0.99-0.1,2-0.19,3.02-0.25c75.14,15.03-1.71,44.22-1.71,44.22s5.5-0.25,12.45-2.07
				c8.6-1.22,23.21-1.35,32.95,9.05c0,0-7.81-13.08-26.7-11.06c7.95-3.04,16.23-8.33,19.94-17.51
				c8.21-20.27-36.94-22.63-36.94-22.63l0,0c-0.02-0.36-0.04-0.72-0.04-1.09c0-15.61,14.39-28.83,34.31-33.45
				c-1.12-0.07-2.24-0.11-3.39-0.11c-3.3,0-6.49,0.3-9.54,0.84c-3.4,0.61-6.6,1.54-9.54,2.73
				C1367.65,841.41,1358.78,839.27,1359.54,839.49z"/>
			<path class="st7" d="M1336.14,830.65c0,0,24.93-5.96,23.35-19.86c-1.58-13.9-23.35-20.48-23.35-20.48
				C1376.86,811.21,1336.14,830.65,1336.14,830.65z"/>
			<path class="st7" d="M1347.85,862.1c-9.06-7.61-41.65-7.7-38.3-7.61c33.27,0.91,42.63,14.84,45.22,23.54
				c0.74-0.14,1.5-0.26,2.26-0.37C1356.29,872.77,1353.34,866.71,1347.85,862.1z"/>
			<path class="st7" d="M1190.31,851.22c21.91,4.74,30.9,11.74,33.13,18.98c4.41,14.3-17.6,29.54-18.44,30.12
				c0.79-0.27,19.11-6.43,35.26,3.23c0,0,0.01,0,0.02-0.01c1.17-0.55,36.95-16.76,42.67,14.17c0.01-0.01,0.01-0.01,0.03-0.02
				c0.01,0,0.02-0.01,0.05-0.02c0.98-0.56,11.8-6.39,22.24-2.09c-1.42,1.53-2.44,3.25-2.95,5.08c1.14-0.1,2.31-0.16,3.49-0.16
				c2.48,0,4.86,0.23,7.1,0.66c5.2-4.51,14.39-7.93,25.46-9.28c-5.78-3.7-9.29-8.56-9.29-13.89c0-4.73,2.77-9.1,7.43-12.61
				c-6.96,3.4-12.1,8.39-14.24,14.18c-8.86-5.12-22.9,0.77-22.9,0.77s-1.77-14.9-14.23-20.03c-12.46-5.12-29.67,2.55-29.67,2.55
				s5.05-10.08-6.48-14.98c-11.53-4.9-22.55,1.83-22.55,1.83c-1.05-2.65-2.85-5.57-5.55-8.92
				C1210.76,848.21,1187.93,850.71,1190.31,851.22z"/>
			<path class="st7" d="M1087.56,921.35c0,0,5.5-0.25,12.45-2.07c8.6-1.22,23.21-1.35,32.95,9.05c0,0-7.81-13.08-26.7-11.06
				c7.95-3.04,16.23-8.33,19.94-17.51c8.21-20.27-36.94-22.63-36.94-22.63C1164.41,892.15,1087.56,921.35,1087.56,921.35z"/>
			<path class="st7" d="M1154.51,931.19c0.32,0.03,0.65,0.05,0.98,0.08c-2.82-3.99-9.19-8.77-22.53-2.94
				C1132.96,928.33,1147.5,925.47,1154.51,931.19z"/>
			<path class="st7" d="M1165.49,932.03c5.24-1.39,12.41-2,19.62,1.44c0.31,0.02,0.62,0.04,0.93,0.07
				c-4.04-2.72-13.11-7.17-23.47-1.73C1163.54,931.88,1164.51,931.96,1165.49,932.03z"/>
			<path class="st7" d="M1681.65,848.07c8.39-4.53,18.88-7.23,30.26-7.23c9.74,0,18.82,1.98,26.5,5.39
				c-6.31-6.44-18.42-10.79-32.33-10.79c-2.32,0-4.58,0.13-6.78,0.36c-2.6,0.27-5.1,0.7-7.47,1.26c-7.39,1.75-13.55,4.82-17.59,8.7
				C1676.96,846.25,1679.47,847.04,1681.65,848.07z"/>
			<path class="st7" d="M1632.62,839.49c31.71,9.17,10.49,33.86,10.49,33.86s13.06-8.94,10.49-19.2
				C1651.02,843.89,1631.51,839.17,1632.62,839.49z"/>
			<path class="st7" d="M1609.22,830.65c0,0,24.93-5.96,23.35-19.86c-1.58-13.9-23.35-20.48-23.35-20.48
				C1649.94,811.21,1609.22,830.65,1609.22,830.65z"/>
			<path class="st7" d="M1620.94,862.1c-9.06-7.61-41.65-7.7-38.3-7.61c48.61,1.32,46.17,30.45,46.17,30.45
				C1632.18,881.29,1630,869.71,1620.94,862.1z"/>
			<path class="st7" d="M1678.61,880.3c0,0-5.4-3.63-20.26-3.18c-14.87,0.47-29.54,7.82-29.54,7.82s45.48-3.97,59.07,18.85
				c0,0.01,0.01,0.01,0.01,0.02l0.01-0.01c0.46-0.29,0.92-0.57,1.38-0.82c4.8-2.52,22.15-9.01,53.77,6.79c0,0,0,0,0.01-0.01
				c0.57-0.4,16.98-11.27,40.66,5.97c0,0-2.92-19.2-16.63-23.34c-13.71-4.14-24.09-3.31-24.09-3.31s2.9-8.11-21.46-19.37
				C1697.19,858.44,1678.61,880.3,1678.61,880.3z"/>
			<path class="st7" d="M1463.39,851.22c21.91,4.74,30.9,11.74,33.13,18.98c4.41,14.3-17.6,29.54-18.44,30.12
				c0.79-0.27,19.11-6.43,35.26,3.23c0,0,0.01,0,0.02-0.01c1.17-0.55,36.95-16.76,42.67,14.17c0.01-0.01,0.01-0.01,0.02-0.02
				c0.01,0,0.02-0.01,0.05-0.02c1.33-0.75,20.72-11.22,32.74,6.99c0,0,0.01-0.01,0.05-0.02c0.05-0.03,0.09-0.06,0.14-0.08
				c0.36-0.19,0.71-0.37,1.06-0.54c0.06-0.03,0.12-0.06,0.19-0.09c0.04-0.02,0.09-0.04,0.12-0.06c2.58-1.2,8.08-3.35,14.2-3.29
				c5.48,0.05,11.45,1.88,16.32,7.72c0.49,0.58-1.62-7.97-11.67-9.04c0.6,0.02,8.35,0.2,5.36-5.53c-3.12-5.96-10.91-1.79-10.91-1.79
				s1.56-5.16-7.17-11.62c-8.73-6.45-24.09,0-24.09,0s-1.77-14.9-14.23-20.03c-12.46-5.12-29.67,2.55-29.67,2.55
				s5.05-10.08-6.48-14.98c-11.53-4.9-22.55,1.83-22.55,1.83c-1.05-2.65-2.85-5.57-5.55-8.92
				C1483.85,848.21,1461.01,850.71,1463.39,851.22z"/>
			<path class="st7" d="M1430.56,935.25c0,0-4.15-15.83-24.51-6.92C1406.05,928.33,1426.39,924.33,1430.56,935.25z"/>
			<path class="st7" d="M1461.37,935.25c0,0-14.62-13.57-30.81,0C1430.56,935.25,1446.52,925.51,1461.37,935.25z"/>
			<path class="st2" d="M1859.22,919.28c-0.45-2.87-3.14-4.84-6.01-4.4c-7.41,1.15-14.84,2.25-22.28,3.31
				c2.96-13.13,5.28-26.39,6.89-39.74c1.13-9.33,1.93-18.71,2.38-28.11c0.23-4.89,0.38-9.78,0.42-14.68
				c0.02-2.38,0.02-4.77-0.01-7.15c-0.05-4.77-0.19-9.53-0.43-14.3c-0.12-2.38-0.26-4.76-0.43-7.14c-1-14.27-2.86-28.48-5.64-42.54
				c-3.53-17.83-8.62-35.47-15.19-52.36c-0.32-0.83-0.63-1.66-0.96-2.48c-6.97-17.68-15.42-34.78-25.35-50.96
				c-5.65-9.25-11.79-18.18-18.33-26.8c-1.75-2.3-3.52-4.58-5.32-6.84c-5.51-6.87-11.28-13.52-17.29-19.93
				c-2.39-2.55-4.81-5.08-7.28-7.56c-1.66-1.67-3.34-3.32-5.04-4.96c-6.78-6.54-13.81-12.8-21.06-18.76l-5.44-4.47l-4.29-3.29
				l-1.3-0.99l-5.59-4.26l-5.79-4.12l-3.78-2.67l-2.03-1.43c-1.98-1.3-4.03-2.49-6.04-3.73c-4.05-2.49-8.05-4.77-12.1-7.11
				c-9.18-5.2-18.56-10.09-28.12-14.62c-1.66-0.78-3.32-1.56-4.99-2.32c-5.72-2.61-11.49-5.08-17.34-7.39
				c-17.38-6.89-35.29-12.39-53.46-16.46c-3.38-0.79-6.85-1.51-10.32-2.18c-1.16-0.22-2.31-0.44-3.46-0.65
				c-4.66-0.67-9.31-1.29-13.9-1.81c-8.07-0.92-16.17-1.6-24.29-2.06c-1.16-0.06-2.32-0.14-3.48-0.19c-2.32-0.1-4.64-0.19-6.96-0.25
				c-2.32-0.06-4.64-0.1-6.96-0.12c0,0-0.01,0-0.01,0c-9.15-0.07-18.29,0.2-27.4,0.8c-4.76,0.31-9.51,0.71-14.24,1.2
				c-4.61,0.49-9.2,1.05-13.78,1.68c-2.29,0.32-4.58,0.65-6.86,1.01s-4.57,0.72-6.86,1.11l-6.87,1.23l-6.77,1.69
				c-2.24,0.59-4.48,1.17-6.71,1.77s-4.45,1.21-6.66,1.87c-3.61,1.03-7.2,2.12-10.77,3.25c-9,2.84-17.89,6-26.64,9.52
				c-4.89,1.96-9.73,4.03-14.52,6.21c-13.81,6.36-27.1,13.8-39.64,22.33c-2.67,1.81-5.31,3.66-7.91,5.57c0,0,0,0,0,0c0,0,0,0,0,0
				c5.7-3.88,11.54-7.52,17.52-10.92c1.99-1.14,4-2.24,6.02-3.33c4.04-2.17,8.13-4.23,12.27-6.19c4.14-1.96,8.33-3.82,12.55-5.58
				c16.93-6.98,34.41-12.54,52.17-16.89c4.42-1.13,8.91-2.11,13.35-3.1l5.84-1.23l0.82-0.17l1.33-0.19l5.41-0.76
				c1.13-0.15,2.26-0.28,3.39-0.42c5.65-0.7,11.33-1.31,17.01-1.79c2.27-0.19,4.54-0.37,6.82-0.52c9.09-0.6,18.2-0.86,27.3-0.79
				c2.27,0.02,4.55,0.06,6.82,0.12c6.82,0.18,13.63,0.55,20.42,1.11c9.05,0.76,18.08,1.85,27.06,3.22c2.01,0.3,4,0.63,5.99,0.96
				c0.63,0.11,1.26,0.21,1.89,0.32c1.83,0.31,3.66,0.63,5.47,0.96c4.39,0.98,8.7,2.01,13.1,3.21c10.95,2.88,21.75,6.3,32.33,10.23
				c2.12,0.79,4.23,1.59,6.33,2.42c4.2,1.66,8.37,3.39,12.5,5.21c8.27,3.62,16.38,7.58,24.36,11.82c7.97,4.24,15.8,8.76,23.5,13.51
				c2.38,1.5,4.8,3,7.17,4.53c0.94,0.6,1.87,1.21,2.8,1.81c0.48,0.31,0.96,0.62,1.43,0.94c1.85,1.24,3.73,2.42,5.55,3.71l4.99,3.82
				l0.31,0.24l0.44,0.34l4.85,3.73l5.21,4.29l1.84,1.52l3.36,2.78l3.3,2.92l1.75,1.55c16.79,14.9,32.07,31.38,45.42,49.23
				c1.33,1.78,2.65,3.58,3.95,5.39c2.07,2.9,4.08,5.84,6.05,8.8c2.96,4.45,5.81,8.96,8.52,13.56c1.13,1.91,2.24,3.84,3.33,5.78
				c5.46,9.68,10.35,19.66,14.69,29.86c2.6,6.12,5.01,12.33,7.21,18.61c1.49,4.19,2.88,8.39,4.16,12.62
				c0.64,2.11,1.26,4.23,1.85,6.36c2.84,10.18,5.1,20.5,6.82,30.94c0.07,0.45,0.16,0.9,0.23,1.35c1.42,8.86,2.44,17.78,3.09,26.72
				c0.3,4.17,0.53,8.34,0.67,12.52c0.08,2.31,0.14,4.62,0.17,6.93c0.26,19.87-1.26,39.78-4.38,59.41c-0.38,2.38-0.78,4.75-1.2,7.13
				c-0.23,1.31-0.49,2.62-0.74,3.94c-0.2,1.04-0.38,2.07-0.59,3.11c-0.35,1.78-0.73,3.56-1.11,5.34c-0.12,0.54-0.22,1.09-0.34,1.64
				c-0.45,2.07-0.93,4.14-1.42,6.21c-0.06,0.23-0.11,0.47-0.16,0.7c-0.54,2.24-1.1,4.48-1.67,6.71c-0.01,0.05-0.03,0.11-0.04,0.16
				c-0.51,1.95-1.04,3.9-1.58,5.85c-4.3-1.56-9.31-2.73-14.78-3.4c5.78-3.7,9.29-8.56,9.29-13.89c0-10.87-14.59-19.81-33.28-20.86
				c0.02-0.36,0.04-0.72,0.04-1.09c0-12.56-9.33-23.58-23.36-29.81c-7.68-3.41-16.76-5.39-26.5-5.39c-11.38,0-21.87,2.7-30.26,7.23
				c-2.19-1.02-4.7-1.81-7.41-2.32c-2.21-0.42-4.55-0.65-6.99-0.65c-2.48,0-4.86,0.23-7.1,0.66c-3.02-2.62-7.42-4.86-12.72-6.55
				c-1.28-0.41-2.59-0.79-3.96-1.13c1.39-1.58,2.43-3.27,3.08-5.05c0.24-0.64,0.43-1.28,0.56-1.94c0.15-0.78,0.24-1.57,0.24-2.37
				c0-4.69-2.72-9.02-7.31-12.52c0.36-1.48,0.55-3.01,0.55-4.57c0-13-12.87-23.61-29.02-24.18c-0.39-0.01-0.79-0.02-1.19-0.02
				c-0.06,0-0.12,0-0.17,0c-0.26,0-0.52,0.01-0.78,0.02c-0.55-0.96-1.16-1.9-1.83-2.81c-8.25-11.39-25.03-19.2-44.4-19.2
				c-0.2,0-0.39,0.01-0.58,0.01c-0.19,0-0.39,0.01-0.58,0.01c-0.39-0.01-0.77-0.02-1.16-0.02c-1.91,0-3.79,0.08-5.64,0.22
				c-2.45,0.19-4.83,0.52-7.16,0.95c-15.23,2.85-27.6,10.66-33.43,20.83c-0.26-0.01-0.52-0.02-0.77-0.02
				c-16.78,0-30.38,10.84-30.38,24.2c0,0.69,0.04,1.36,0.11,2.03c1.3,12.41,14.35,22.17,30.27,22.17c2.3,0,4.54-0.21,6.7-0.6
				c-0.79,0.83-1.53,1.69-2.21,2.57c-5.51-1.26-11.73-1.97-18.32-1.97c-15.7,0-29.32,4.03-36.12,9.92
				c-1.83-0.35-3.76-0.56-5.75-0.63c0.43-0.38,0.87-0.75,1.34-1.11c-6.31-2.03-13.31-3.18-20.69-3.18c-4.62,0-9.08,0.45-13.33,1.28
				c-4.24-0.83-8.71-1.28-13.33-1.28c-1.42,0-2.82,0.05-4.21,0.13c-3.93,0.23-7.73,0.78-11.34,1.62
				c-19.92,4.61-34.31,17.84-34.31,33.45c0,0.36,0.02,0.72,0.04,1.09l0,0c0,0,45.15,2.37,36.94,22.63
				c-3.72,9.18-12,14.47-19.94,17.51c18.89-2.02,26.7,11.06,26.7,11.06c20.36-8.91,24.51,6.92,24.51,6.92
				c16.2-13.57,30.81,0,30.81,0c-14.85-9.74-30.81,0-30.81,0c-4.16-10.92-24.51-6.92-24.51-6.92c-9.74-10.4-24.35-10.27-32.95-9.05
				c-6.95,1.83-12.45,2.07-12.45,2.07s76.84-29.2,1.71-44.22c-1.02,0.06-2.02,0.14-3.02,0.25c-1.97-3.05-3.08-6.4-3.08-9.94
				c0-8.7,6.61-16.36,16.61-20.82c-2.7-2.78-6.94-5.27-13.34-7.12c-0.76-0.22,8.11,1.92,14.62,6.57c2.94-1.2,6.14-2.12,9.54-2.73
				c-3.53-2.16-8.08-3.96-13.32-5.26c2.48-2.82,3.88-5.99,3.88-9.35c0-4.69-2.72-9.02-7.31-12.52c0.36-1.48,0.55-3.01,0.55-4.57
				c0-13.37-13.6-24.2-30.38-24.2c-0.26,0-0.52,0.01-0.78,0.02c-0.48-0.85-1.02-1.67-1.59-2.49c-8.17-11.57-25.08-19.52-44.64-19.52
				c-0.39,0-0.77,0.01-1.16,0.02c-0.39-0.01-0.77-0.02-1.16-0.02c-12.5,0-23.91,3.25-32.66,8.61c-5.9,3.62-10.59,8.2-13.57,13.4
				c-0.26-0.01-0.52-0.02-0.77-0.02c-16.78,0-30.38,10.84-30.38,24.2c0,0.69,0.04,1.36,0.11,2.03c1.3,12.41,14.35,22.17,30.27,22.17
				c2.3,0,4.54-0.21,6.7-0.6c-0.79,0.83-1.53,1.69-2.21,2.57c-5.51-1.26-11.73-1.97-18.32-1.97c-15.7,0-29.32,4.03-36.12,9.92
				c-1.83-0.35-3.76-0.56-5.75-0.63c-0.45-0.02-0.89-0.03-1.34-0.03c-5.44,0-10.44,1.12-14.4,2.98c-3.68-1.99-7.76-3.62-12.14-4.83
				c-5.62-1.55-11.73-2.4-18.12-2.4c-5.43,0-10.65,0.62-15.55,1.76c-19.92,4.61-34.31,17.84-34.31,33.45c0,0.36,0.02,0.72,0.04,1.09
				c-1.02,0.06-2.02,0.15-3.01,0.25c-6.97,0.73-13.26,2.56-18.27,5.17c-6.5-43.92-5.05-89.21,4.56-132.86c0.44-2,0.89-4,1.36-6
				c3.29-13.9,7.45-27.61,12.37-41.05c-0.02,0.02-0.04,0.05-0.06,0.07c-0.01,0.01-0.02,0.02-0.03,0.03
				c5.48-15,11.93-29.67,19.33-43.87l-5.28-6.32l5.54-2.76c-4.91-5.39-8.07-10.5-9.18-12.39l-1.23-2.11
				c-1.5,2.46-2.93,4.96-4.45,7.41l-3.53,5.89c-1.18,1.96-2.19,4.02-3.29,6.02l-6.47,12.12c-3.88,8.29-8.05,16.48-11.4,25.03
				c-2.94,6.68-5.41,13.53-7.86,20.4c0,0,0,0,0,0c-0.64,1.78-1.27,3.57-1.91,5.35c-1.5,4.34-2.72,8.77-4.1,13.16l-1.44,4.74
				l-0.57,1.86l-0.37,1.47l-1.33,5.22c-8.71,33.4-12.94,68.02-12.64,102.69c0.21,24.82,2.75,49.66,7.63,74.1
				c-30.68-3.41-47.96-5.84-48.22-5.88c-2.88-0.39-5.54,1.64-5.92,4.52c-0.39,2.88,1.64,5.54,4.52,5.93
				c1.31,0.18,451.25,63.38,860.8-0.02C1857.7,924.84,1859.66,922.16,1859.22,919.28z M1186.04,933.54
				c-0.31-0.02-0.62-0.04-0.93-0.07c-7.21-3.44-14.39-2.83-19.62-1.44c-0.98-0.07-1.95-0.15-2.92-0.22
				C1172.93,926.36,1181.99,930.82,1186.04,933.54z M1582.63,854.48c-3.35-0.09,29.24,0,38.3,7.61s11.24,19.2,7.87,22.84
				C1628.8,884.94,1631.25,855.81,1582.63,854.48z M1721.55,869.7c24.37,11.26,21.46,19.37,21.46,19.37s10.38-0.83,24.09,3.31
				c13.71,4.14,16.63,23.34,16.63,23.34c-23.68-17.24-40.09-6.37-40.66-5.97c-0.01,0.01-0.01,0.01-0.01,0.01
				c-31.62-15.8-48.97-9.31-53.77-6.79c-0.46,0.26-0.92,0.54-1.38,0.82l-0.01,0.01c0-0.01-0.01-0.01-0.01-0.02
				c-13.59-22.82-59.07-18.85-59.07-18.85s14.67-7.35,29.54-7.82c14.86-0.46,20.26,3.18,20.26,3.18S1697.19,858.44,1721.55,869.7z
				 M1653.6,854.15c2.58,10.26-10.49,19.2-10.49,19.2s21.22-24.69-10.49-33.86C1631.51,839.17,1651.02,843.89,1653.6,854.15z
				 M1632.58,810.79c1.58,13.9-23.35,19.86-23.35,19.86s40.72-19.44,0-40.34C1609.22,790.31,1631,796.88,1632.58,810.79z
				 M1493.98,860.78c2.69,3.35,4.5,6.27,5.55,8.92c0,0,11.02-6.72,22.55-1.83c11.53,4.9,6.48,14.98,6.48,14.98s17.2-7.68,29.67-2.55
				c12.46,5.13,14.23,20.03,14.23,20.03s15.37-6.45,24.09,0c8.73,6.46,7.17,11.62,7.17,11.62s7.79-4.17,10.91,1.79
				c2.99,5.73-4.76,5.55-5.36,5.53c10.05,1.06,12.15,9.61,11.67,9.04c-4.86-5.84-10.83-7.67-16.32-7.72
				c-6.12-0.06-11.62,2.08-14.2,3.29c-0.04,0.02-0.09,0.04-0.12,0.06c-0.06,0.03-0.12,0.06-0.19,0.09c-0.35,0.17-0.7,0.35-1.06,0.54
				c-0.05,0.02-0.09,0.05-0.14,0.08c-0.04,0.01-0.05,0.02-0.05,0.02c-12.03-18.21-31.41-7.75-32.74-6.99
				c-0.03,0.01-0.04,0.02-0.05,0.02c-0.01,0.01-0.01,0.01-0.02,0.02c-5.72-30.93-41.5-14.72-42.67-14.17
				c-0.01,0.01-0.02,0.01-0.02,0.01c-16.15-9.65-34.48-3.5-35.26-3.23c0.83-0.58,22.85-15.82,18.44-30.12
				c-2.23-7.24-11.22-14.24-33.13-18.98C1461.01,850.71,1483.85,848.21,1493.98,860.78z M1357.03,877.65
				c-0.76,0.11-1.52,0.23-2.26,0.37c-2.59-8.7-11.95-22.63-45.22-23.54c-3.35-0.09,29.24,0,38.3,7.61
				C1353.34,866.71,1356.29,872.77,1357.03,877.65z M1359.49,810.79c1.58,13.9-23.35,19.86-23.35,19.86s40.72-19.44,0-40.34
				C1336.14,790.31,1357.92,796.88,1359.49,810.79z M1220.9,860.78c2.69,3.35,4.5,6.27,5.55,8.92c0,0,11.02-6.72,22.55-1.83
				c11.53,4.9,6.48,14.98,6.48,14.98s17.2-7.68,29.67-2.55c12.46,5.13,14.23,20.03,14.23,20.03s14.04-5.89,22.9-0.77
				c2.14-5.79,7.27-10.78,14.24-14.18c-4.67,3.51-7.43,7.88-7.43,12.61c0,5.33,3.51,10.19,9.29,13.89
				c-11.07,1.36-20.27,4.77-25.46,9.28c-2.24-0.42-4.62-0.66-7.1-0.66c-1.19,0-2.35,0.05-3.49,0.16c0.51-1.84,1.53-3.55,2.95-5.08
				c-10.44-4.3-21.25,1.54-22.24,2.09c-0.03,0.01-0.04,0.02-0.05,0.02c-0.01,0.01-0.01,0.01-0.03,0.02
				c-5.72-30.93-41.49-14.72-42.67-14.17c-0.01,0.01-0.02,0.01-0.02,0.01c-16.15-9.65-34.48-3.5-35.26-3.23
				c0.83-0.58,22.85-15.82,18.44-30.12c-2.23-7.24-11.22-14.24-33.13-18.98C1187.93,850.71,1210.76,848.21,1220.9,860.78z
				 M1126.21,899.76c-3.72,9.18-12,14.47-19.94,17.51c18.89-2.02,26.7,11.06,26.7,11.06c13.33-5.83,19.71-1.06,22.53,2.94
				c-0.33-0.03-0.66-0.05-0.98-0.08c-7.01-5.72-21.55-2.86-21.55-2.86c-9.74-10.4-24.35-10.27-32.95-9.05
				c-6.95,1.83-12.45,2.07-12.45,2.07s76.84-29.2,1.71-44.22C1089.27,877.12,1134.42,879.49,1126.21,899.76z"/>
		</g>
		<g>
			<g>
				<path class="st5" d="M1042.49,1228.96c-1.36-0.94-2.73-1.88-4.09-2.82c0-9.08,0-18.17,0-27.25c1.36-1.35,2.73-2.71,4.09-4.06
					c3.92-0.61,7.85-1.22,11.77-1.81c1.35,0.93,2.69,1.87,4.04,2.8c0,2.31,0,4.61,0,6.92c-2.29,0.34-4.58,0.69-6.87,1.04
					c0-1.62,0-3.25,0-4.87c-1.85,0.28-3.69,0.57-5.54,0.85c0,7.73,0,15.47,0,23.2c1.85-0.29,3.69-0.57,5.54-0.85
					c0-1.62,0-3.25,0-4.88c2.29-0.35,4.58-0.7,6.87-1.04c0,2.29,0,4.58,0,6.87c-1.35,1.35-2.69,2.71-4.04,4.07
					C1050.34,1227.74,1046.42,1228.35,1042.49,1228.96z"/>
				<path class="st5" d="M1089.55,1212.58c-1.75,0.24-3.51,0.48-5.26,0.72c-0.21,1.38-0.42,2.76-0.64,4.13
					c0.6-0.08,1.19-0.16,1.79-0.25c0,1.82,0,3.64,0,5.46c-3.37,0.46-6.74,0.94-10.11,1.41c0-1.82,0-3.64,0-5.46
					c0.56-0.08,1.12-0.16,1.68-0.24c1.68-9.79,3.35-19.58,5.03-29.37c3.6-0.5,7.2-0.99,10.81-1.48c1.66,9.33,3.31,18.66,4.97,28
					c0.58-0.08,1.16-0.15,1.73-0.23c0,1.82,0,3.64,0,5.46c-3.7,0.49-7.4,0.98-11.1,1.49c0-1.82,0-3.64,0-5.46
					c0.6-0.08,1.19-0.16,1.79-0.24C1090.02,1215.21,1089.79,1213.89,1089.55,1212.58z M1085.1,1207.92c1.21-0.17,2.43-0.33,3.64-0.5
					c-0.6-3.72-1.19-7.44-1.79-11.16C1086.34,1200.15,1085.72,1204.03,1085.1,1207.92z"/>
				<path class="st5" d="M1125.65,1212.01c1.22-0.15,2.43-0.29,3.65-0.43c0-1.64,0-3.28,0-4.92c2.3-0.27,4.59-0.54,6.89-0.81
					c0,3.46,0,6.92,0,10.38c-6.68,0.77-13.36,1.57-20.03,2.4c0-1.82,0-3.64,0-5.46c0.66-0.08,1.31-0.16,1.97-0.24
					c0-7.73,0-15.47,0-23.2c-0.66,0.08-1.31,0.16-1.97,0.24c0-1.82,0-3.64,0-5.46c3.8-0.47,7.6-0.93,11.4-1.39c0,1.82,0,3.64,0,5.46
					c-0.64,0.08-1.27,0.15-1.91,0.23C1125.65,1196.54,1125.65,1204.27,1125.65,1212.01z"/>
				<path class="st5" d="M1157.75,1213.84c-1.37-1.01-2.74-2.02-4.11-3.02c0-9.08,0-18.17,0-27.25c1.37-1.29,2.74-2.57,4.11-3.85
					c3.94-0.42,7.88-0.83,11.83-1.22c1.35,1,2.71,2,4.06,3.01c0,2.31,0,4.61,0,6.92c-2.3,0.23-4.6,0.46-6.9,0.69
					c0-1.62,0-3.25,0-4.87c-1.86,0.19-3.71,0.38-5.57,0.57c0,7.73,0,15.47,0,23.2c1.85-0.19,3.71-0.39,5.57-0.57
					c0-1.63,0-3.25,0-4.88c2.3-0.23,4.6-0.47,6.9-0.69c0,2.29,0,4.58,0,6.87c-1.35,1.29-2.71,2.58-4.06,3.87
					C1165.63,1213.01,1161.69,1213.42,1157.75,1213.84z"/>
				<path class="st5" d="M1204.09,1175.27c3.7-0.32,7.39-0.63,11.09-0.93c0,1.82,0,3.64,0,5.46c-0.66,0.05-1.32,0.11-1.97,0.16
					c0,8.4,0,16.8,0,25.2c-1.35,1.26-2.71,2.53-4.06,3.8c-3.99,0.33-7.97,0.68-11.96,1.03c-1.35-1.03-2.71-2.07-4.06-3.1
					c0-8.4,0-16.8,0-25.2c-0.66,0.06-1.32,0.12-1.97,0.18c0-1.82,0-3.64,0-5.46c3.79-0.35,7.58-0.68,11.37-1.01
					c0,1.82,0,3.64,0,5.46c-0.66,0.06-1.32,0.11-1.97,0.17c0,7.73,0,15.47,0,23.2c1.84-0.16,3.68-0.32,5.51-0.48
					c0-7.73,0-15.47,0-23.2c-0.66,0.06-1.32,0.11-1.97,0.17C1204.09,1178.91,1204.09,1177.09,1204.09,1175.27z"/>
				<path class="st5" d="M1241.72,1201.01c1.22-0.09,2.44-0.17,3.66-0.25c0-1.64,0-3.28,0-4.92c2.3-0.16,4.61-0.31,6.92-0.46
					c0,3.46,0,6.92,0,10.38c-6.7,0.44-13.4,0.9-20.1,1.4c0-1.82,0-3.64,0-5.46c0.66-0.05,1.32-0.1,1.98-0.15c0-7.73,0-15.47,0-23.2
					c-0.66,0.05-1.32,0.1-1.98,0.15c0-1.82,0-3.64,0-5.46c3.81-0.28,7.63-0.55,11.44-0.82c0,1.82,0,3.64,0,5.46
					c-0.64,0.04-1.28,0.09-1.92,0.13C1241.72,1185.54,1241.72,1193.27,1241.72,1201.01z"/>
				<path class="st5" d="M1283.22,1194.44c-1.76,0.09-3.53,0.18-5.29,0.28c-0.21,1.36-0.43,2.72-0.64,4.08
					c0.6-0.03,1.2-0.06,1.8-0.1c0,1.82,0,3.64,0,5.46c-3.39,0.18-6.78,0.37-10.17,0.57c0-1.82,0-3.64,0-5.46
					c0.56-0.03,1.12-0.06,1.69-0.1c1.69-9.65,3.37-19.3,5.06-28.95c3.62-0.2,7.25-0.39,10.87-0.57c1.67,9.47,3.33,18.94,5,28.42
					c0.58-0.03,1.16-0.06,1.74-0.08c0,1.82,0,3.64,0,5.46c-3.72,0.18-7.44,0.36-11.17,0.56c0-1.82,0-3.64,0-5.46
					c0.6-0.03,1.2-0.06,1.8-0.09C1283.69,1197.11,1283.46,1195.78,1283.22,1194.44z M1278.75,1189.41c1.22-0.07,2.44-0.13,3.66-0.19
					c-0.6-3.77-1.2-7.54-1.8-11.31C1279.99,1181.74,1279.37,1185.58,1278.75,1189.41z"/>
				<path class="st5" d="M1309.74,1168.6c8.38-0.34,16.75-0.63,25.13-0.88c0,3.46,0,6.92,0,10.38c-2.11,0.06-4.23,0.13-6.34,0.2
					c0-1.64,0-3.28,0-4.92c-0.81,0.03-1.63,0.05-2.44,0.08c0,7.73,0,15.47,0,23.2c0.64-0.02,1.28-0.04,1.92-0.06
					c0,1.82,0,3.64,0,5.46c-3.8,0.12-7.6,0.26-11.4,0.4c0-1.82,0-3.64,0-5.46c0.64-0.02,1.28-0.05,1.92-0.07c0-7.73,0-15.47,0-23.2
					c-0.81,0.03-1.63,0.06-2.44,0.09c0,1.64,0,3.28,0,4.92c-2.11,0.08-4.23,0.16-6.34,0.25
					C1309.74,1175.52,1309.74,1172.06,1309.74,1168.6z"/>
				<path class="st5" d="M1351.75,1201.4c0-1.82,0-3.64,0-5.46c0.66-0.02,1.32-0.03,1.98-0.04c0-7.73,0-15.47,0-23.2
					c-0.66,0.01-1.32,0.03-1.98,0.04c0-1.82,0-3.64,0-5.46c7.1-0.16,14.2-0.29,21.3-0.38c0,3.46,0,6.92,0,10.38
					c-2.31,0.03-4.62,0.07-6.93,0.1c0-1.64,0-3.28,0-4.92c-1.61,0.03-3.22,0.05-4.83,0.08c0,2.88,0,5.75,0,8.63
					c2.52-0.05,5.04-0.09,7.57-0.13c0,1.82,0,3.64,0,5.46c-2.52,0.04-5.04,0.08-7.57,0.13c0,3.04,0,6.08,0,9.12
					c1.61-0.03,3.22-0.06,4.83-0.08c0-1.64,0-3.28,0-4.92c2.31-0.04,4.62-0.07,6.93-0.1c0,3.46,0,6.92,0,10.38
					C1365.95,1201.12,1358.85,1201.24,1351.75,1201.4z"/>
				<path class="st5" d="M1412.57,1197.37c-1.38,1.15-2.76,2.3-4.13,3.45c-6.07-0.01-12.15,0-18.22,0.04c0-1.82,0-3.64,0-5.46
					c0.66,0,1.32-0.01,1.98-0.01c0-7.73,0-15.47,0-23.2c-0.66,0-1.32,0.01-1.98,0.01c0-1.82,0-3.64,0-5.46
					c6.07-0.04,12.15-0.05,18.22-0.04c1.38,1.14,2.76,2.28,4.13,3.42C1412.57,1179.2,1412.57,1188.28,1412.57,1197.37z
					 M1399.77,1195.36c1.75,0,3.49-0.01,5.24,0c0-7.73,0-15.47,0-23.2c-1.75,0-3.49,0-5.24,0
					C1399.77,1179.89,1399.77,1187.63,1399.77,1195.36z"/>
				<path class="st5" d="M1479.27,1198.56c-1.38,1.11-2.75,2.22-4.13,3.33c-6.07-0.18-12.14-0.34-18.21-0.48c0-1.82,0-3.64,0-5.46
					c0.66,0.01,1.32,0.03,1.98,0.05c0-7.73,0-15.47,0-23.2c-0.66-0.02-1.32-0.03-1.98-0.05c0-1.82,0-3.64,0-5.46
					c5.88,0.13,11.76,0.29,17.63,0.46c1.36,1.18,2.72,2.36,4.07,3.54c0,3.82,0,7.64,0,11.46c-0.68,0.55-1.36,1.09-2.04,1.64
					c0.89,0.76,1.78,1.52,2.68,2.28C1479.27,1190.63,1479.27,1194.59,1479.27,1198.56z M1466.46,1181.61
					c1.55,0.04,3.1,0.08,4.66,0.13c0-2.88,0-5.75,0-8.63c-1.55-0.04-3.1-0.09-4.66-0.13
					C1466.46,1175.86,1466.46,1178.73,1466.46,1181.61z M1466.46,1196.18c1.75,0.05,3.49,0.09,5.24,0.15c0-3.04,0-6.08,0-9.12
					c-1.75-0.05-3.49-0.1-5.24-0.15C1466.46,1190.11,1466.46,1193.14,1466.46,1196.18z"/>
				<path class="st5" d="M1506.38,1197.59c1.22,0.05,2.44,0.11,3.66,0.16c0-1.64,0-3.28,0-4.92c2.31,0.1,4.61,0.21,6.92,0.32
					c0,3.46,0,6.92,0,10.38c-6.71-0.32-13.42-0.62-20.12-0.88c0-1.82,0-3.64,0-5.46c0.66,0.03,1.32,0.05,1.98,0.08
					c0-7.73,0-15.47,0-23.2c-0.66-0.03-1.32-0.05-1.98-0.08c0-1.82,0-3.64,0-5.46c3.82,0.15,7.64,0.31,11.46,0.48
					c0,1.82,0,3.64,0,5.46c-0.64-0.03-1.28-0.06-1.92-0.08C1506.38,1182.12,1506.38,1189.85,1506.38,1197.59z"/>
				<path class="st5" d="M1543.53,1199.51c0.64,0.04,1.28,0.08,1.92,0.12c0,1.82,0,3.64,0,5.46c-3.82-0.23-7.63-0.45-11.45-0.66
					c0-1.82,0-3.64,0-5.46c0.66,0.04,1.32,0.07,1.98,0.11c0-7.73,0-15.47,0-23.2c-0.66-0.04-1.32-0.07-1.98-0.11
					c0-1.82,0-3.64,0-5.46c3.82,0.21,7.64,0.43,11.45,0.66c0,1.82,0,3.64,0,5.46c-0.64-0.04-1.28-0.08-1.92-0.12
					C1543.53,1184.04,1543.53,1191.77,1543.53,1199.51z"/>
				<path class="st5" d="M1575.9,1192.55c-2.81-0.21-5.62-0.41-8.42-0.6c-1.36-1.25-2.71-2.5-4.07-3.74c0-4.22,0-8.45,0-12.67
					c1.36-1.04,2.71-2.09,4.07-3.13c3.8,0.27,7.59,0.54,11.39,0.82c1.37,1.24,2.75,2.48,4.12,3.72c0,2.32,0,4.65,0,6.97
					c-2.36-0.18-4.72-0.36-7.09-0.53c0-1.64,0-3.28,0-4.92c-1.65-0.12-3.29-0.24-4.94-0.36c0,2.88,0,5.75,0,8.63
					c2.81,0.2,5.62,0.41,8.42,0.62c1.36,1.24,2.71,2.48,4.07,3.72c0,4.39,0,8.77,0,13.16c-1.36,1.05-2.71,2.1-4.07,3.15
					c-4.12-0.31-8.25-0.61-12.37-0.9c-1.38-1.25-2.75-2.5-4.13-3.75c0-2.31,0-4.61,0-6.92c2.36,0.16,4.73,0.33,7.09,0.49
					c0,1.64,0,3.28,0,4.92c1.98,0.14,3.95,0.28,5.93,0.43C1575.9,1198.63,1575.9,1195.59,1575.9,1192.55z"/>
				<path class="st5" d="M1614.21,1195.69c-2.8-0.25-5.61-0.5-8.42-0.74c-1.35-1.27-2.71-2.54-4.06-3.81c0-4.22,0-8.45,0-12.67
					c1.35-1.02,2.71-2.04,4.06-3.06c3.79,0.33,7.58,0.67,11.38,1.01c1.37,1.26,2.75,2.53,4.12,3.79c0,2.32,0,4.65,0,6.97
					c-2.36-0.22-4.72-0.44-7.08-0.65c0-1.64,0-3.28,0-4.92c-1.64-0.15-3.29-0.29-4.93-0.44c0,2.88,0,5.75,0,8.63
					c2.81,0.25,5.61,0.5,8.41,0.76c1.35,1.26,2.71,2.52,4.06,3.79c0,4.39,0,8.77,0,13.16c-1.35,1.03-2.71,2.06-4.06,3.08
					c-4.12-0.38-8.24-0.74-12.36-1.1c-1.37-1.27-2.75-2.54-4.12-3.81c0-2.31,0-4.61,0-6.92c2.36,0.2,4.72,0.4,7.08,0.61
					c0,1.64,0,3.28,0,4.92c1.97,0.17,3.95,0.35,5.92,0.53C1614.21,1201.76,1614.21,1198.73,1614.21,1195.69z"/>
				<path class="st5" d="M1665.82,1215.49c0-1.82,0-3.64,0-5.46c0.66,0.07,1.31,0.15,1.97,0.22c0-7.73,0-15.47,0-23.2
					c-0.66-0.07-1.31-0.15-1.97-0.22c0-1.82,0-3.64,0-5.46c7.07,0.8,14.13,1.62,21.19,2.48c0,3.46,0,6.92,0,10.38
					c-2.3-0.28-4.59-0.56-6.89-0.83c0-1.64,0-3.28,0-4.92c-1.6-0.19-3.2-0.38-4.81-0.57c0,2.88,0,5.75,0,8.63
					c2.51,0.29,5.02,0.59,7.53,0.89c0,1.82,0,3.64,0,5.46c-2.51-0.3-5.02-0.6-7.53-0.89c0,3.04,0,6.08,0,9.12
					c1.6,0.19,3.2,0.38,4.81,0.57c0-1.64,0-3.28,0-4.92c2.3,0.27,4.59,0.55,6.89,0.83c0,3.46,0,6.92,0,10.38
					C1679.95,1217.11,1672.89,1216.29,1665.82,1215.49z"/>
				<path class="st5" d="M1728.36,1194.73c-0.65-0.09-1.31-0.18-1.96-0.27c0,9.55,0,19.11,0,28.66c-2.48-0.35-4.97-0.69-7.46-1.02
					c-2.2-6.26-4.39-12.52-6.59-18.77c0,4.14,0,8.29,0,12.43c0.64,0.08,1.27,0.17,1.91,0.25c0,1.82,0,3.64,0,5.46
					c-3.39-0.45-6.79-0.9-10.18-1.34c0-1.82,0-3.64,0-5.46c0.66,0.08,1.31,0.17,1.97,0.25c0-7.73,0-15.47,0-23.2
					c-0.66-0.09-1.31-0.17-1.97-0.25c0-1.82,0-3.64,0-5.46c3.12,0.4,6.25,0.81,9.37,1.23c2.22,6.28,4.43,12.55,6.65,18.83
					c0-4.16,0-8.32,0-12.48c-0.64-0.09-1.27-0.17-1.91-0.26c0-1.82,0-3.64,0-5.46c3.39,0.46,6.78,0.93,10.17,1.4
					C1728.36,1191.09,1728.36,1192.91,1728.36,1194.73z"/>
				<path class="st5" d="M1745.11,1191.67c8.31,1.23,16.62,2.5,24.93,3.81c0,3.46,0,6.92,0,10.38c-2.1-0.33-4.19-0.66-6.29-0.99
					c0-1.64,0-3.28,0-4.92c-0.81-0.13-1.61-0.25-2.42-0.38c0,7.73,0,15.47,0,23.2c0.63,0.1,1.27,0.2,1.9,0.29c0,1.82,0,3.64,0,5.46
					c-3.77-0.59-7.54-1.16-11.31-1.73c0-1.82,0-3.64,0-5.46c0.63,0.1,1.27,0.19,1.9,0.29c0-7.73,0-15.47,0-23.2
					c-0.81-0.12-1.62-0.24-2.42-0.37c0,1.64,0,3.28,0,4.92c-2.1-0.31-4.19-0.63-6.29-0.94
					C1745.11,1198.59,1745.11,1195.13,1745.11,1191.67z"/>
			</g>
		</g>
	</g>
</g>
</svg>
