<?xml version="1.0" encoding="utf-8"?>
<!-- Generator: Adobe Illustrator 27.8.1, SVG Export Plug-In . SVG Version: 6.00 Build 0)  -->
<svg version="1.1" id="Layer_2" xmlns="http://www.w3.org/2000/svg" xmlns:xlink="http://www.w3.org/1999/xlink" x="0px" y="0px"
	 viewBox="0 0 2848 1720" style="enable-background:new 0 0 2848 1720;" xml:space="preserve">
<style type="text/css">
	.st0{display:none;fill:#F15BB5;}
	.st1{fill:none;}
	.st2{fill:#E6963E;}
	.st3{fill:#A64DB2;}
	.st4{fill:#893095;}
	.st5{fill:#8A3196;}
	.st6{fill:#FFD2CF;}
	.st7{fill:#D66431;}
	.st8{fill-rule:evenodd;clip-rule:evenodd;fill:#E6963E;}
</style>
<g>
	<g>
		<path class="st1" d="M1178.46,850.18l38.4-29.48c-5.21,0.23-11.08,0.11-17.47-0.62c-12.88-1.47-24.59-0.9-32.88,0l84.56-39.36
			c-12.5-3.97-20.79-8.98-25.91-12.94c0,0,0.55-0.29,1.43-0.73l-23.75-1.44c6.24-5.83,16.45-10.7,28.24-13.15
			c-0.71-0.59-1.41-1.19-2.09-1.81c0,0,4.62-0.57,7.43-3.3c0.16-0.16,0.39-0.27,0.68-0.36c-3.72,0.07-6.45,0.33-7.64,0.67
			c-14.4,4.04-37.45,1.04-41.92,0.39l-20.92-3l2.82-5.15c-19.04-4.05-32.01-15.39-32.78-16.08l-13.64-12.15l3.76-2.71
			c-7.42-5.67-12.63-11.61-14.29-13.59l-6.61-7.92c-7.4,14.2-13.85,28.87-19.33,43.87c0.01-0.01,0.02-0.02,0.03-0.03
			c0.02-0.02,0.04-0.05,0.06-0.07c-4.92,13.44-9.08,27.15-12.37,41.05c-0.46,1.94-0.9,3.88-1.32,5.82
			c-0.01,0.06-0.03,0.12-0.04,0.18c-7.03,31.92-9.7,64.71-8.08,97.21c0.19,3.82,0.44,7.64,0.75,11.45
			c0.45,5.51,1.02,11.02,1.71,16.5c0.05,0.43,0.11,0.86,0.17,1.29c0.28,2.14,0.58,4.28,0.89,6.41c5.01-2.61,11.3-4.45,18.27-5.17
			c-1.97-3.05-3.08-6.4-3.08-9.94c0-13.78,16.56-24.95,36.98-24.95c0.05,0,0.09,0,0.14,0c-0.7-11.66,15.33-18.84,15.33-18.84
			s7.87,11.26,21.59,19.59c4.38,1.21,8.46,2.84,12.14,4.83c3.96-1.86,8.96-2.98,14.4-2.98c0.45,0,0.9,0.02,1.34,0.03
			c4.57-4.05,11.54-7.16,19.77-8.67C1192.82,859.18,1182.87,853.21,1178.46,850.18z"/>
		<path class="st1" d="M1391.68,761.11c0,0-11.64,5.52-22.9,6.97c-1.06,2.8-2.5,6.01-4.45,9.38c-2.16,3.74-4.94,7.66-8.49,11.4
			c2.74,5.64,5.64,11.34,8.73,16.99c0.29-0.9,0.66-1.78,1.12-2.64c2.29-4.25,6.12-7.16,9.2-9.22c1.03-0.69,2.09-1.36,3.15-2.02
			c2.36-1.49,4.59-2.89,6.59-4.6c7.2-6.16,10.52-15.53,12.51-25.49c-0.21,0.11-0.37,0.17-0.45,0.2
			C1395.78,762.31,1391.68,761.11,1391.68,761.11z"/>
		<path class="st1" d="M1368.13,755.15c-0.66,0.75-1.98,1.75-3.58,2.77c0.48,0.07,0.95,0.13,1.42,0.18
			c1.47,0.16,2.69,0.97,3.45,2.08c8.97-0.52,18.71-4.44,18.71-4.44s1.67-3.27,3.47-5.26c1.54-1.7,5.68-3.02,7.62-2.91
			c0.12-1.4,0.21-2.81,0.22-4.22c0.06-8.34-2.38-16.79-6.86-23.82c-0.77-1.2-1.59-2.36-2.45-3.58c-1.32-1.86-2.68-3.78-3.83-5.86
			c-2-3.63-2.93-7.09-2.8-10.34l-29.45,30.06c0.57,3.67,1.02,10.44,1.56,16.12c1.75-0.99,3.45-1.74,4.07-1.88
			c1.23-0.27,11.28,6.79,9.11,9.24c-0.13,0.14-0.28,0.3-0.45,0.46C1368.5,754.31,1368.46,754.78,1368.13,755.15z"/>
		<path class="st1" d="M1254.09,747.85c-4.73-0.54-9.14-0.79-12.91-0.86c2.64,0.31,6.1,0.97,9.91,1.5
			C1252.07,748.25,1253.08,748.04,1254.09,747.85z"/>
		<path class="st1" d="M1089.52,1174.89c0.39,3.62,0.77,7.25,1.16,10.87c2.09-0.22,4.17-0.44,6.26-0.66
			c-0.38-3.62-0.76-7.25-1.14-10.87C1093.71,1174.44,1091.62,1174.66,1089.52,1174.89z"/>
		<path class="st1" d="M1028.15,1047.24l-8.49-0.19v24.26l8.49-0.19c8.58-0.19,17.17-0.37,25.75-0.55l7.33-0.15
			c1.43-7.46,2.86-14.92,4.3-22.39l-11.63-0.24C1045.32,1047.61,1036.73,1047.43,1028.15,1047.24z"/>
		<path class="st1" d="M1442.44,1140.5c-2.11-0.02-4.23-0.03-6.34-0.04c-0.02,4.38-0.05,8.77-0.07,13.15
			c2.11,0.01,4.21,0.02,6.32,0.04C1442.38,1149.27,1442.41,1144.88,1442.44,1140.5z"/>
		<path class="st1" d="M1322.98,622.23c10.27-1.17,18.38-3.99,18.12-6.3c-0.26-2.31-8.8-3.24-19.07-2.07
			c-10.27,1.17-18.38,3.98-18.12,6.3S1312.71,623.39,1322.98,622.23z"/>
		<path class="st1" d="M1093.35,1157.49c-1.87,0.2-3.74,0.39-5.61,0.59c0.37,3.43,0.73,6.86,1.1,10.29c1.87-0.2,3.73-0.4,5.6-0.59
			C1094.07,1164.35,1093.71,1160.92,1093.35,1157.49z"/>
		<path class="st1" d="M1506.95,737.11c-0.16,0.06-0.29,0.13-0.46,0.19l0.48,0.4C1506.96,737.5,1506.96,737.31,1506.95,737.11z"/>
		<path class="st1" d="M1290.78,1051.11l-8.69-0.06v16.27l8.69-0.06c8.59-0.06,17.19-0.12,25.78-0.17l4.52-0.03v-15.74l-4.52-0.03
			C1307.96,1051.23,1299.37,1051.17,1290.78,1051.11z"/>
		<path class="st1" d="M1774.28,1070.01c1.27,0.02,6.49,0.13,6.49,0.13v-21.91c0,0-5.23,0.1-6.49,0.13V1070.01z"/>
		<path class="st1" d="M1578.53,770.44c0.12-0.44,0.21-0.87,0.29-1.3c0-0.02,0.01-0.05,0.01-0.07c0.23-1.33,0.29-2.66,0.22-4.15
			c-2.05-0.42-3.48-1.69-4.38-3.63c-6.52,5.78-14.99,19.2-19.41,26.59c0.01,1.75-0.09,3.13-0.1,4.03c0,0.22,0,0.41,0.01,0.57
			c0.04,0.56,0.21,1.16,0.44,1.75c1.85-0.15,3.73-0.22,5.64-0.22c0.39,0,0.77,0.01,1.16,0.02c0.19,0,0.39-0.01,0.58-0.01
			c4.19-7.98,9.36-14.92,12.99-18.8C1577.23,773.88,1578.04,772.24,1578.53,770.44z"/>
		<path class="st1" d="M1603.7,661.5c2.66-7.6,6.4-14.42,9.28-19.1c-5.6-6.43-9.83-13.96-17.74-9.1c-3.2,1.96-5.21,5.34-6.44,9.28
			l0,0c-0.2,0.64-0.37,1.3-0.53,1.96h0c-1.5,6.23-1.33,13.47-0.85,18.83c2.23-0.29,4.31-0.51,6.19-0.67
			C1598.28,662.26,1602.24,661.71,1603.7,661.5z"/>
		<path class="st1" d="M1507.14,732.44c-0.35-0.84-0.67-1.62-0.95-2.33c-0.17,0.26-0.35,0.52-0.55,0.78l1.48,1.72
			C1507.13,732.55,1507.14,732.49,1507.14,732.44z"/>
		<path class="st1" d="M1514.72,1158.52c1.47,0.04,2.94,0.09,4.41,0.14c-0.58-4.58-1.16-9.16-1.75-13.74
			C1516.5,1149.45,1515.61,1153.99,1514.72,1158.52z"/>
		<path class="st2" d="M1842.66,1227.88c-409.55-63.4-859.49-0.2-860.8-0.02c-2.88,0.39-4.91,3.04-4.52,5.92
			c0.39,2.89,3.04,4.91,5.92,4.52c1.3-0.18,449.81-63.18,857.78-0.02c2.87,0.44,5.56-1.52,6.01-4.4
			C1847.5,1231.01,1845.54,1228.32,1842.66,1227.88z"/>
		<path class="st2" d="M1171.08,597.93c48.93-49.69,112.34-85.71,181.14-101.42c4.27-1.11,8.63-1.78,12.94-2.7
			c4.32-0.86,8.65-1.78,13.03-2.33l13.11-1.92c4.39-0.49,8.79-0.86,13.19-1.29l6.6-0.63l6.63-0.29l12.72-0.55l0.54-0.02
			c0.04,0,0.07,0,0.11,0c8.82-0.15,17.64,0.02,26.46,0.45c15.12,0.78,30.21,2.47,45.16,5.06c7.46,1.29,14.88,2.81,22.25,4.55
			c10.3,2.43,20.51,5.28,30.59,8.56c2.12,0.69,4.23,1.4,6.33,2.13c-7.64-2.98-15.38-5.69-23.21-8.17c-2.81-0.89-5.62-1.75-8.45-2.58
			c-23.18-6.74-47.05-11.28-71.18-13.52c-0.4-0.04-0.8-0.08-1.2-0.12c-6.69-0.58-13.4-1.02-20.12-1.28
			c-2.24-0.09-4.48-0.16-6.72-0.2l-7.53,0.04c0,0,0,0,0,0l-5.92,0.03l-6.73,0.04l-6.72,0.38c-4.48,0.27-8.97,0.48-13.46,0.8
			l-13.41,1.45c-4.49,0.39-8.92,1.15-13.36,1.86c-4.43,0.76-8.92,1.29-13.31,2.25c-70.87,13.35-137.85,47.83-190.88,97.7
			c-11.94,11.35-23.43,23.26-33.88,36.06c6.24,1.64,13.1,2.81,20.31,3.69C1153.92,616.21,1162.26,606.85,1171.08,597.93z"/>
		<path class="st3" d="M1528.44,765.49c-0.27-1.05-0.59-2.08-0.93-3.09C1527.85,763.41,1528.16,764.44,1528.44,765.49z"/>
		<path class="st3" d="M1555.26,787.88c-0.01-1.21-0.07-2.59-0.25-4.14c0.44,3.78,0.16,6.65,0.15,8.16
			C1555.17,791.01,1555.27,789.63,1555.26,787.88z"/>
		<path class="st4" d="M1555.17,792.47c-0.01-0.16-0.01-0.35-0.01-0.57c0.02-1.52,0.3-4.38-0.15-8.16c0.18,1.54,0.24,2.93,0.25,4.14
			c4.42-7.39,12.89-20.8,19.41-26.59c-1.38-2.99-1.52-7.51-0.85-12.68c-0.41-0.49-0.78-0.82-1.11-0.93
			c-0.97-0.35-0.53-2.46,0.91-5.27c1.35,2.9,2.36,4.86,2.36,4.86l2.66-6.34l0.61,3.48l2.25-6.95l1.43,2.04c0,0,0.6-1.06,1.46-3.02
			c0.2-0.46,0.41-0.96,0.64-1.51c0.27-0.67,0.56-1.42,0.85-2.22c1.51-4.17,3.2-10.08,4-17.23c2.61-5.17,4.85-10.46,6.73-15.67
			c0.62-1.72,1.2-3.43,1.74-5.12c17.12-15.25,23.02-29.21,21.24-46.55c0.66,0.36,1.34,0.67,2.05,0.93l0,0c0,0,0,0,0,0
			c0.21,0.07,0.42,0.15,0.63,0.21c0.3,0.09,0.6,0.18,0.91,0.25l0,0c0.31,0.07,0.63,0.12,0.95,0.16c0.05,0.01,0.09,0.02,0.14,0.02
			c0.51,0.07,1.03,0.11,1.56,0.12c0,0,0,0,0,0c1.97,0.02,4.02-0.54,5.97-1.55c0.45-0.24,0.9-0.5,1.34-0.78
			c0.16-0.1,0.31-0.2,0.46-0.31c1.69-1.17,3.24-2.69,4.51-4.49c1.11-1.57,2.01-3.36,2.59-5.29c0.23-0.78,0.42-1.57,0.55-2.4
			c0.7-4.52-0.29-9.69-4-14.93c-0.2,0.09-0.34,0.22-0.44,0.38c-0.51,0.83,0.06,2.57,0.62,4.81c0.06,0.22,0.11,0.45,0.17,0.69
			c0.81,3.47,1.34,7.94-2.02,12.03l0,0c-0.13,0.16-0.28,0.33-0.43,0.49c-0.13,0.14-0.25,0.29-0.39,0.43
			c-0.8,0.81-1.77,1.6-2.93,2.36c-2.17,1.41-4.03,1.5-5.76,0.71c0,0,0-0.01,0.01-0.01c-0.17-0.08-0.33-0.15-0.5-0.24c0,0,0,0,0,0
			c-0.1-0.06-0.2-0.12-0.3-0.18c-0.19-0.12-0.37-0.24-0.56-0.38c-0.13-0.1-0.27-0.2-0.4-0.31c-0.24-0.19-0.48-0.4-0.71-0.62
			c-0.46-0.43-0.91-0.91-1.36-1.43c-0.3-0.35-0.6-0.71-0.9-1.1c-0.45-0.57-0.9-1.18-1.36-1.81c-0.24-0.33-0.48-0.68-0.73-1.02
			c-0.33-0.46-0.66-0.93-0.99-1.41c-0.09-0.13-0.19-0.27-0.28-0.41c-0.22-0.32-0.45-0.64-0.68-0.97c-0.09-0.13-0.19-0.27-0.28-0.4
			c-0.4-0.57-0.82-1.14-1.24-1.7c-0.91-1.21-1.86-2.41-2.88-3.55c-0.38-0.43-0.77-0.84-1.18-1.25c-0.01-0.01-0.01-0.01-0.02-0.02
			c-1.31-1.31-2.72-2.49-4.28-3.45c-0.39-0.24-0.79-0.47-1.2-0.69c-3.07-1.58-6.68-2.3-11.07-1.52c-0.37,0.07-0.74,0.14-1.11,0.23
			c-0.75,0.17-1.53,0.39-2.32,0.65c-0.4,0.13-0.8,0.27-1.21,0.43c-3.52,1.32-6.37,3.67-8.68,6.63c-0.48,0.61-0.92,1.26-1.35,1.92
			l0,0c0,0,0,0,0,0c-0.41,0.63-0.8,1.28-1.17,1.95c0,0,0,0,0,0l0,0c-6.15,11.05-7.06,26.85-7.06,33.15c0,0.74,0.01,1.32,0.03,1.78
			c5.3-1.41,10.52-2.33,15.13-2.94c-0.48-5.36-0.64-12.6,0.85-18.83h0c0.16-0.67,0.33-1.32,0.53-1.96l0,0
			c1.23-3.95,3.25-7.32,6.44-9.28c7.91-4.86,12.14,2.68,17.74,9.1c-2.88,4.68-6.61,11.49-9.28,19.1c-1.46,0.21-5.42,0.76-10.11,1.2
			c-0.17,0.02-0.33,0.03-0.5,0.05c1.23,15.82-2.45,45.53-15.57,69.16c-1.03,0.03-2.08-0.26-2.97-0.91
			c-2.49-1.82-4.82-3.64-7.03-5.47c0.52,2.65,1.49,5.65,2.59,8.58c1.02,2.7,2.15,5.33,3.15,7.52c-2.55,6.96-2.43,17.79-12.17,21.98
			c-2.33,10.31-4.9,13.44-6.94,15.53c0.42,1.65,0.7,3.21,0.86,4.62c-0.2,0.5-0.48,0.91-0.87,1.2c-3.69,2.71-12.61-1.14-22.21-22.93
			c-2.65-6.01-6.83-10.35-9.82-14.11c-0.9,0.12-2-0.07-2-0.07c-0.13-0.11-0.27-0.22-0.41-0.33c1.75,2.46,5.48,8.14,7.8,14.89
			c0.35,1.01,0.66,2.04,0.93,3.09c0.18,0.7,0.34,1.41,0.48,2.12c1.87,9.48,5.54,20.99,19.54,27.57c2.32-0.44,4.71-0.76,7.16-0.95
			C1555.38,793.63,1555.21,793.03,1555.17,792.47z M1580.62,730.69c0.04-0.04,0.09-0.08,0.13-0.13
			C1580.7,730.6,1580.66,730.65,1580.62,730.69z M1578.74,731.72c0.19-0.05,0.38-0.12,0.56-0.2
			C1579.12,731.6,1578.93,731.66,1578.74,731.72z M1579.76,731.3c0.09-0.05,0.17-0.1,0.26-0.15
			C1579.93,731.2,1579.84,731.25,1579.76,731.3z M1578.5,731.78c-0.32,0.07-0.65,0.12-0.98,0.13
			C1577.85,731.9,1578.18,731.85,1578.5,731.78z"/>
		<path class="st4" d="M1565.46,668.4c-0.01-0.02-0.02-0.04-0.03-0.06c-1.49-3.4-11.04-22.02-24.11-29.59c0,0,0,0,0,0l0,0
			c-0.68-0.4-1.37-0.77-2.07-1.1c-3.39-1.6-6.99-2.42-10.73-2.01c-1.74,0.19-3.32,0.5-4.74,0.93c-7.11,2.13-10.43,7.01-12.24,12.5
			c-0.09,0.27-0.18,0.55-0.26,0.83c-1.08,3.61-1.56,7.44-2.07,10.9c-0.12,0.8-0.24,1.58-0.37,2.33c-0.13,0.75-0.27,1.48-0.42,2.17
			c-0.21,0.92-0.44,1.78-0.73,2.57c-0.21,0.59-0.45,1.13-0.73,1.63c-0.11,0.2-0.24,0.4-0.36,0.58c0,0,0,0,0,0
			c-0.11,0.16-0.22,0.3-0.34,0.44c0,0,0.01,0.01,0.01,0.01c-0.08,0.1-0.16,0.2-0.25,0.29c-0.23,0.26-0.49,0.49-0.76,0.69
			c-0.41,0.31-0.87,0.55-1.39,0.72c-0.34,0.12-0.71,0.2-1.11,0.25c-0.59,0.08-1.24,0.08-1.96,0c-1.63-0.18-3.01-0.53-4.22-1
			c-0.2-0.08-0.41-0.16-0.6-0.24l0,0c-5.49-2.43-6.74-7.54-7.53-11.18c-0.14-0.65-0.27-1.24-0.4-1.77
			c-0.13-0.53-0.28-0.99-0.45-1.35c-0.11-0.24-0.24-0.44-0.38-0.6c-0.15-0.15-0.31-0.26-0.5-0.3c-0.09-0.02-0.2-0.03-0.3-0.03
			c-0.86,5.78,0.25,10.48,2.46,14.08c0.88,1.44,1.94,2.7,3.12,3.79c0.88,0.81,1.84,1.52,2.83,2.14c2.98,1.83,6.36,2.75,9.48,2.72
			c0.39,0,0.78-0.02,1.16-0.06c1.65-0.14,3.2-0.56,4.56-1.25h0l0,0c0,0,0,0,0,0c0.48-0.25,0.92-0.52,1.35-0.81
			c0.04-0.03,0.07-0.05,0.11-0.08c0.27-0.19,0.53-0.37,0.78-0.57l0,0c0.25-0.2,0.48-0.41,0.7-0.63c0.16-0.15,0.32-0.31,0.47-0.47
			c0,0,0,0,0,0v0c8.22-8.68,3.13-27.13,16.47-26.01c3.74,0.31,7.06,2.41,9.94,5.38l0,0c0.47,0.48,0.92,0.99,1.36,1.51l0,0
			c5.04,5.95,8.56,14.34,10.38,19.42C1555.77,672.34,1560.55,670.13,1565.46,668.4z"/>
		<path class="st3" d="M1679.03,744.65c-10.21-24.3-22.86-47.76-23.52-62.19c-0.33-7.28,4.88-16.33,11.86-20.24
			c11.49-6.43,30.23-4.64,48.07,4.47l-7.55,5.16c12.81,5.79,25,11.67,32.89,18.1c-13.02-27.54-24.6-30.57-24.6-30.57l0.39,6.32
			c-18.74-10.05-36.9-11.83-49.93-4.53c-8.5,4.76-13.32,12.99-12.91,22.01c0.7,15.28,12.26,37.54,22.64,62.24
			c19.11,45.51,39.08,97.39,15.83,120.19c2.37-0.56,4.88-0.99,7.47-1.26C1718.31,838.18,1697.62,788.92,1679.03,744.65z"/>
		<path class="st3" d="M1578.83,769.07c0,0.02-0.01,0.05-0.01,0.07C1578.82,769.12,1578.83,769.09,1578.83,769.07z"/>
		<path class="st3" d="M1598.34,768.94c-6.15-2.51-13.21-1.72-19.81,1.5c0,0,0,0,0,0c-0.48,1.8-1.29,3.44-2.54,4.77
			c-3.64,3.88-8.8,10.82-12.99,18.8c0.19,0,0.39-0.01,0.58-0.01c19.37,0,36.14,7.81,44.4,19.2c1.26-6.39,0.27-13.65-3.09-22.73
			c0,0,8.42,11.02,5.87,25.53c0.4,0,0.79,0.01,1.19,0.02c0.45-0.89,0.88-1.79,1.26-2.72
			C1620.56,795.26,1612.28,774.63,1598.34,768.94z"/>
		<path class="st4" d="M1643.84,866.65c1.38,0.34,2.69,0.72,3.96,1.13c-0.2-2-0.48-4.1-0.88-6.18
			C1646.26,863.37,1645.23,865.07,1643.84,866.65z"/>
		<path class="st3" d="M1585.88,732.75c-0.29,0.81-0.58,1.55-0.85,2.22c2.82,0.36,5.41,0.78,5.41,0.78
			c-2.32,0.31-4.32,0.55-6.05,0.73c-0.86,1.96-1.46,3.02-1.46,3.02l-1.43-2.04l-2.25,6.95l-0.61-3.48l-2.66,6.34
			c0,0-1.02-1.95-2.36-4.86c-1.44,2.8-1.88,4.91-0.91,5.27c0.32,0.12,0.7,0.45,1.11,0.93c-0.67,5.17-0.53,9.69,0.85,12.68
			c0.9,1.94,2.33,3.21,4.38,3.63c0-0.01,0-0.01,0-0.02c4.75,1.24,9.4-1.48,11.65-4.55c6.75,5.77,15.58,6.95,20.14,4.4
			c2.92-1.64,4.18-4.79,4.72-8.45c-0.06-0.01-0.12-0.02-0.18-0.04c0,0,0.08-0.01,0.2-0.04c0-0.03,0.01-0.06,0.01-0.08
			c0.08,0.01,0.15,0.03,0.23,0.04c3.2-0.52,24.03-3.08,42.26,14.08c10.02,9.44,17.82,22.87,23.73,40.46c0,0,0.83,4.91,1.52,8.08
			c-0.02,0.05-0.05,0.1-0.07,0.15c-0.01,0.03-0.02,0.07-0.04,0.1c-0.12,0.15-0.24,0.3-0.35,0.44
			c-10.28-32.73-27.46-49.61-48.78-58.02c21.21,8.58,38.6,25.63,48.78,58.02c-1.65,2-2.71,2.81-2.74,2.93
			c-0.03,0.14-1.16,2.96-1.98,3.34c-0.82,0.38,0.34,1.02,1.19,0.2c0.79-0.76,1.96-2.67,3.13-2.86c-0.06,0.82-0.09,1.56-0.1,2.09
			c-0.34,1.71-1.27,4.91-1.55,6.54c-0.34,1.96,0.19,2.55,0.42,1.62c0.2-0.83,1.64-3.99,2.21-7.01c0.23,0.07,0.48,0.14,0.74,0.21
			c-0.18,1.81-0.52,4.31-0.57,5.68c-0.07,1.98,0.54,2.5,0.63,1.55c0.08-0.82,1.01-3.92,1.22-6.88c0.2,0.05,0.4,0.1,0.58,0.14
			c0.37,1.75,0.79,4.04,1.15,5.28c0.54,1.91,1.28,2.21,1.08,1.28c-0.17-0.77-0.24-3.71-0.86-6.48c0.2-0.83-1.17-5.83-2.18-7.52
			c-7.63-31.72-25.79-74.58-77-91.13C1600.58,734.29,1591.92,734.03,1585.88,732.75z M1576.65,761.99c0-0.85,1.1-1.53,2.45-1.53
			c1.35,0,2.45,0.69,2.45,1.53c0,0.85-1.1,1.53-2.45,1.53C1577.75,763.52,1576.65,762.84,1576.65,761.99z M1608.19,733.78
			c2.96,0,3.06,2.56,1.33,2.56c-2.45,0-6.85-0.1-14-0.61C1595.51,735.72,1605.22,733.78,1608.19,733.78z M1607.78,764.04
			c-1.35,0-2.45-0.69-2.45-1.53s1.1-1.53,2.45-1.53s2.45,0.69,2.45,1.53S1609.13,764.04,1607.78,764.04z"/>
		<path class="st4" d="M1682.86,819.51c0.11-0.14,0.24-0.29,0.35-0.44c0.01-0.03,0.02-0.07,0.04-0.1c0.02-0.06,0.05-0.1,0.07-0.15
			c-0.69-3.17-1.52-8.08-1.52-8.08c-5.91-17.59-13.7-31.03-23.73-40.46c-18.22-17.15-39.06-14.59-42.26-14.08
			c-0.08-0.01-0.15-0.03-0.23-0.04c0,0.03-0.01,0.06-0.01,0.08c-0.12,0.02-0.2,0.04-0.2,0.04c0.06,0.01,0.12,0.02,0.18,0.04
			c-0.54,3.66-1.79,6.81-4.72,8.45c-4.56,2.56-13.39,1.37-20.14-4.4c-2.25,3.07-6.91,5.79-11.65,4.55c0,0.01,0,0.01,0,0.02
			c0.06,1.49,0.01,2.82-0.22,4.15c0,0.02-0.01,0.05-0.01,0.07c-0.08,0.43-0.17,0.86-0.29,1.3c0,0,0,0,0,0
			c6.61-3.21,13.67-4.01,19.81-1.5c13.94,5.69,22.23,26.31,14.86,44.36c-0.38,0.93-0.81,1.83-1.26,2.72
			c16.15,0.57,29.02,11.17,29.02,24.18c0,1.56-0.19,3.09-0.55,4.57c4.59,3.49,7.31,7.83,7.31,12.52c0,0.8-0.08,1.59-0.24,2.37
			l1.66,2.65c0,0,0.89-11.64-1.61-22.16l2.96,3.31c0,0-1.26-13.49-6.37-23.83l4.34,2.93c0,0-3.17-8.9-8.58-16.94
			c-2.46-6.78-5.75-13.6-10.13-20.32c-0.16-0.25-0.33-0.48-0.49-0.72c0.05-8.48-0.97-17.24-3.06-25.78
			c2.68,0.78,5.31,1.67,7.88,2.68C1655.39,769.9,1672.58,786.78,1682.86,819.51z"/>
		<path class="st5" d="M1585.88,732.75c6.03,1.29,14.7,1.54,22.35-4.24c0.04-0.03,0.07-0.05,0.11-0.08
			c-7.82-10.97-11.21-21-11.73-28.58c-1.88,5.21-4.12,10.5-6.73,15.67C1589.09,722.67,1587.4,728.58,1585.88,732.75z"/>
		<path class="st5" d="M1609.52,736.33c1.73,0,1.64-2.56-1.33-2.56c-2.96,0-12.68,1.94-12.68,1.94
			C1602.67,736.23,1607.06,736.33,1609.52,736.33z"/>
		<path class="st5" d="M1585.03,734.97c-0.22,0.55-0.44,1.06-0.64,1.51c1.72-0.19,3.72-0.42,6.05-0.73
			C1590.44,735.75,1587.85,735.33,1585.03,734.97z"/>
		<path class="st4" d="M1604.88,790.48c3.36,9.08,4.36,16.34,3.09,22.73c0.66,0.92,1.28,1.85,1.83,2.81
			c0.26-0.01,0.52-0.02,0.78-0.02c0.06,0,0.12,0,0.17,0C1613.3,801.49,1604.88,790.48,1604.88,790.48z"/>
		<path class="st4" d="M1607.78,760.97c-1.35,0-2.45,0.69-2.45,1.53s1.1,1.53,2.45,1.53s2.45-0.69,2.45-1.53
			S1609.13,760.97,1607.78,760.97z"/>
		<path class="st4" d="M1581.56,761.99c0-0.85-1.1-1.53-2.45-1.53c-1.36,0-2.45,0.69-2.45,1.53c0,0.85,1.1,1.53,2.45,1.53
			C1580.46,763.52,1581.56,762.84,1581.56,761.99z"/>
		<path class="st4" d="M1542.25,683.9c1.19-1.63,2.55-3.14,4.03-4.54c-6.53-9.88-15.28-16.99-15.28-16.99
			c-1.53,16.4,2.52,27.92,16.18,37.84C1544.98,695.33,1543.32,689.97,1542.25,683.9z"/>
		<path class="st3" d="M1579.3,731.52c-0.18,0.08-0.37,0.14-0.56,0.2C1578.93,731.66,1579.12,731.6,1579.3,731.52z"/>
		<path class="st3" d="M1580.01,731.15c-0.08,0.05-0.17,0.1-0.26,0.15C1579.84,731.25,1579.93,731.2,1580.01,731.15z"/>
		<path class="st3" d="M1577.52,731.91c13.12-23.63,16.8-53.34,15.57-69.16c0.17-0.02,0.33-0.03,0.5-0.05
			c-1.88,0.16-3.96,0.38-6.19,0.67c-4.61,0.61-9.83,1.53-15.13,2.94c-2.27,0.6-4.56,1.3-6.82,2.09c-4.91,1.73-9.68,3.94-13.89,6.76
			c-1.89,1.27-3.66,2.67-5.29,4.2c-1.48,1.4-2.84,2.9-4.03,4.54c1.07,6.07,2.72,11.43,4.93,16.32c4.44,9.85,11.2,17.73,20.33,25.3
			c2.21,1.83,4.55,3.65,7.03,5.47C1575.44,731.65,1576.49,731.93,1577.52,731.91z"/>
		<path class="st3" d="M1577.52,731.91c0.33-0.01,0.66-0.05,0.98-0.13C1578.18,731.85,1577.85,731.9,1577.52,731.91z"/>
		<path class="st3" d="M1580.75,730.56c-0.04,0.04-0.08,0.09-0.13,0.13C1580.66,730.65,1580.7,730.6,1580.75,730.56z"/>
		<path class="st3" d="M1520.11,747.83c0,0,1.1,0.19,2,0.07c2.99,3.75,7.17,8.1,9.82,14.11c9.6,21.79,18.52,25.64,22.21,22.93
			c0.39-0.28,0.67-0.69,0.87-1.2c-0.17-1.42-0.45-2.97-0.86-4.62c2.04-2.08,4.6-5.21,6.94-15.53c9.74-4.19,9.62-15.01,12.17-21.98
			c-1-2.19-2.13-4.81-3.15-7.52c-9.91,10.9-16.62,28.49-19.31,36.44c-0.46-0.85-0.94-1.71-1.5-2.59
			c-6.17-9.81-21.44-19.4-26.97-22.66c-1.14-1.66-0.88-3.97-0.66-5.92c1.13-4.35,3.01-10.33,3.01-10.33c-2.47-1.6-4.78-10-4.78-10
			c-1.68,4.66,1.68,10.88,1.68,10.88s-1.18,3.41-3.87,5.97c-1.04,0.32-2.11,0.76-3.29,0.89c-1.63,0.18-3.54-3.2-4.9-5.46
			c-0.6-1.08-1.33-2.64-1.96-4.03c0.95-2.96,0.24-5.15,0.24-5.15c-0.1,0.67-0.56,1.85-1.14,3.13c-0.27-0.62-0.44-1.02-0.44-1.02
			c0.78-10.06-1.3-11.57-1.3-11.57c0.39,3.19-0.73,11.61-0.73,11.61s0.31,1.21,1.2,3.64c-0.94,1.89-1.8,3.46-1.8,3.46
			s0.99,1.46,2.94,3.93c-0.97,0.16-1.78,0.3-1.97,0.34c-0.52,0.13-0.13,2.07-0.13,2.07s1.62,2.14,3.56,3.95l0.01-0.06
			c2.05,2,8.48,3.32,11.71,5.86c1.75,2.46,5.48,8.14,7.8,14.89c-2.32-6.76-6.04-12.43-7.8-14.89
			C1519.84,747.61,1519.99,747.72,1520.11,747.83z M1506.2,730.1c0.28,0.71,0.59,1.49,0.95,2.33c-0.01,0.06-0.01,0.11-0.02,0.17
			l-1.48-1.72C1505.85,730.62,1506.03,730.36,1506.2,730.1z M1506.95,737.11c0,0.2,0.01,0.39,0.02,0.59l-0.48-0.4
			C1506.66,737.24,1506.8,737.17,1506.95,737.11z"/>
		<path class="st6" d="M1507.13,718.22c-0.07,0.29-0.14,0.66-0.18,1.03C1507.01,718.91,1507.07,718.57,1507.13,718.22z"/>
		<path class="st4" d="M1255.68,648.33l-9.25,2.63l0,0l0,0c0,0,0.11,1.82,0.47,4.52c-0.02-0.02-0.05-0.03-0.08-0.05
			c4.35,2.94,7.53,6.66,9.21,11.44c9.95,28.27,28.68,43.93,36.66,49.58c2.02-2.25,4.95-3.65,8.22-3.61
			c2.98,0.04,6.46,0.2,10.33,0.57c3.68-2.12,4.89-6.92,5.52-9.96c1.8,2.74,4.97,6.69,9.17,8.59c-0.44,1.46-0.42,2.64-0.14,3.6
			c2.61,0.55,5.31,1.22,8.06,1.99c-0.18-1.14-0.34-1.83-0.34-1.83c2.81-3.07,11.08,1.38,13.72,2.92c1.46-0.98,2.66-1.96,3.53-2.92
			c12.66-13.92,4.61-29.34-3.79-43.38c0,0,0,0,0,0c-0.02-0.14-0.05-0.26-0.08-0.4c-0.29-1.69-0.7-3.2-1.22-4.57
			c-4.44-11.98-15.93-12.05-16.16-12.05c-0.41-0.4-1.05-0.69-1.83-0.91c-6.16-25.25-55.07-30.76-69.43-59.23c0,0,0,0,0,0
			c-0.3-0.58-0.57-1.17-0.83-1.77c-0.06-0.14-0.13-0.28-0.19-0.42c-0.27-0.64-0.53-1.3-0.77-1.96c0,0,0,0,0,0c0,0,0,0,0,0
			c0,0-9.39,18.28,1.98,33.16l-8.96-1.84c0,0,0,0.01,0,0.01l-0.01,0c0,0-0.73,10.49,1.52,18.35
			C1251.94,644.09,1253.41,646.93,1255.68,648.33z M1325.48,707.4c-5.08-1.13-8.87-4.23-11.42-8.3c0.01,0.01,0.01,0.01,0.02,0.02
			c0,0-1.9-2.91-2.59-6.63c-8.36-2.28-6.51-9.6-2.81-9.99c1.85-0.2,3.28,0.54,4.27,1.57c0.83-1.6,2.68-5.4,3.78-9.63l15.14-9.27
			c0.01,0,0.01,0,0.02,0c2.54,3.56,5.93,5.37,8.85,6.29c0.15,0.26,0.29,0.51,0.43,0.79c1.31,2.96,2.01,6.69,2.32,11.19
			C1344.61,699.47,1341.04,710.86,1325.48,707.4z"/>
		<path class="st3" d="M1402.31,758.77c2.42-1.62,4.65-3.39,4.43-4.14c-0.24-0.8-1.73-2.42-3.27-3.89
			c-0.17,1.42-0.36,2.82-0.55,4.18C1402.73,756.19,1402.52,757.48,1402.31,758.77z"/>
		<path class="st3" d="M1391.6,750.49c-1.8,1.99-3.47,5.26-3.47,5.26s-9.74,3.92-18.71,4.44c-0.76-1.11-1.98-1.92-3.45-2.08
			c-0.47-0.05-0.94-0.11-1.42-0.18c-3.67,2.34-8.88,4.78-11.44,4.5c0,0-3.48,0.67-8.55,1.5c3.36,7.92,7.12,16.35,11.29,24.93
			c3.56-3.73,6.34-7.65,8.5-11.39c1.94-3.37,3.39-6.58,4.45-9.38c11.27-1.45,22.9-6.97,22.9-6.97s4.1,1.2,4.99,0.97
			c0.08-0.02,0.24-0.09,0.45-0.2c0.5-2.52,0.92-5.08,1.29-7.63c0.31-2.15,0.61-4.4,0.81-6.67
			C1397.28,747.47,1393.14,748.79,1391.6,750.49z"/>
		<path class="st4" d="M1231.85,649.06c0.38,0.1,0.75,0.21,1.12,0.31C1232.59,649.27,1232.22,649.16,1231.85,649.06z"/>
		<path class="st4" d="M1234,649.67c0.37,0.11,0.74,0.23,1.1,0.34C1234.74,649.9,1234.37,649.78,1234,649.67z"/>
		<path class="st4" d="M1241.84,652.62c0.33,0.15,0.65,0.31,0.97,0.47C1242.49,652.93,1242.17,652.77,1241.84,652.62z"/>
		<path class="st4" d="M1243.6,653.49c0.31,0.17,0.62,0.33,0.93,0.51C1244.22,653.83,1243.91,653.66,1243.6,653.49z"/>
		<path class="st4" d="M1240,651.8c0.34,0.14,0.68,0.29,1.01,0.44C1240.68,652.09,1240.34,651.94,1240,651.8z"/>
		<path class="st4" d="M1197.93,644.33c0.07,0.01,0.15,0.01,0.22,0.02C1198.08,644.34,1198.01,644.33,1197.93,644.33z"/>
		<path class="st4" d="M1200.76,644.53c0.1,0.01,0.2,0.02,0.31,0.02C1200.97,644.55,1200.87,644.54,1200.76,644.53z"/>
		<path class="st4" d="M1114.08,634c0.02,0.01,0.04,0.02,0.07,0.02C1114.12,634.02,1114.1,634.01,1114.08,634z"/>
		<path class="st4" d="M1236.08,650.33c0.36,0.12,0.72,0.25,1.08,0.37C1236.8,650.57,1236.44,650.45,1236.08,650.33z"/>
		<path class="st4" d="M1195.13,644.14c0.01,0,0.03,0,0.04,0C1195.16,644.14,1195.15,644.14,1195.13,644.14z"/>
		<path class="st4" d="M1111.72,633.14c0.02,0.01,0.04,0.01,0.06,0.02C1111.76,633.15,1111.74,633.14,1111.72,633.14z"/>
		<path class="st4" d="M1238.08,651.04c0.35,0.13,0.7,0.27,1.04,0.4C1238.78,651.31,1238.43,651.17,1238.08,651.04z"/>
		<path class="st4" d="M1109.42,632.21c0.01,0,0.02,0.01,0.04,0.01C1109.45,632.22,1109.43,632.22,1109.42,632.21z"/>
		<path class="st4" d="M1222.54,647.04c0.38,0.07,0.74,0.13,1.11,0.2C1223.29,647.18,1222.92,647.11,1222.54,647.04z"/>
		<path class="st4" d="M1224.97,647.49c0.38,0.07,0.76,0.15,1.14,0.23C1225.73,647.64,1225.35,647.56,1224.97,647.49z"/>
		<path class="st4" d="M1220.07,646.64c0.34,0.05,0.68,0.11,1.02,0.17C1220.75,646.75,1220.42,646.69,1220.07,646.64z"/>
		<path class="st4" d="M1203.66,644.76c0.09,0.01,0.18,0.01,0.28,0.02C1203.84,644.78,1203.75,644.77,1203.66,644.76z"/>
		<path class="st4" d="M1227.32,647.97c0.39,0.08,0.76,0.17,1.14,0.26C1228.09,648.14,1227.71,648.05,1227.32,647.97z"/>
		<path class="st4" d="M1229.62,648.49c0.38,0.09,0.76,0.19,1.13,0.28C1230.38,648.68,1230,648.59,1229.62,648.49z"/>
		<path class="st4" d="M1206.64,645.02c0.03,0,0.07,0.01,0.1,0.01C1206.71,645.03,1206.68,645.03,1206.64,645.02z"/>
		<path class="st4" d="M1214.95,645.92c0.17,0.02,0.33,0.04,0.49,0.07C1215.27,645.96,1215.11,645.94,1214.95,645.92z"/>
		<path class="st4" d="M1217.54,646.26c0.29,0.04,0.57,0.08,0.85,0.13C1218.1,646.35,1217.82,646.3,1217.54,646.26z"/>
		<path class="st4" d="M1245.26,654.43c0.3,0.18,0.6,0.36,0.88,0.54C1245.85,654.78,1245.56,654.61,1245.26,654.43z"/>
		<path class="st4" d="M1119,635.58c0.01,0,0.02,0,0.02,0.01C1119.01,635.58,1119,635.58,1119,635.58z"/>
		<path class="st4" d="M1116.5,634.81c0.02,0.01,0.04,0.01,0.06,0.02C1116.55,634.83,1116.53,634.82,1116.5,634.81z"/>
		<path class="st4" d="M1353.66,727.91c0,0.01,0,0.02,0.01,0.03C1353.66,727.93,1353.66,727.92,1353.66,727.91z"/>
		<path class="st4" d="M1347.53,722.32c1.06,0.16,2.08,0.65,2.87,1.5c1.17,1.26,2.38,2.62,3,3.48c0.08,0.12,0.16,0.31,0.24,0.55
			c-0.08-0.25-0.16-0.44-0.24-0.55c-0.62-0.87-1.83-2.22-3-3.49c-0.3-0.32-0.65-0.58-1.01-0.81
			C1348.81,722.65,1348.19,722.42,1347.53,722.32C1347.53,722.32,1347.53,722.32,1347.53,722.32z"/>
		<path class="st3" d="M1350.99,793.39c1.43-1.19,2.76-2.41,4.01-3.66c-4.29-8.83-8.16-17.5-11.6-25.62
			c-7.24,1.17-17.19,2.57-25.09,2.96c-9.53,7.21-29.06,19.35-50.46,17.44c-3.98,4.93-8.1,11.17-12.33,18.1
			c8.75-5.36,20.16-8.61,32.66-8.61c0.39,0,0.77,0.01,1.16,0.02c0.39-0.01,0.77-0.02,1.16-0.02c19.56,0,36.47,7.95,44.64,19.52
			c-0.6-2.05-1.42-4.36-2.55-6.84c-0.33-0.72-0.62-1.51-0.89-2.35c0,0,0,0,0,0C1338.25,801.8,1345.13,798.26,1350.99,793.39z"/>
		<path class="st3" d="M1135.99,852.22c0,0-16.03,7.19-15.33,18.84c1.1,0,2.18,0.04,3.25,0.11c4.89-1.13,10.12-1.76,15.55-1.76
			c6.39,0,12.51,0.85,18.12,2.4C1143.86,863.48,1135.99,852.22,1135.99,852.22z"/>
		<path class="st3" d="M1341.18,672.25c-0.14-0.28-0.28-0.53-0.43-0.79c-2.92-0.93-6.31-2.73-8.85-6.29c-0.01,0-0.01,0-0.02,0
			l-15.14,9.27c-1.09,4.24-2.94,8.04-3.78,9.63c-0.99-1.03-2.43-1.77-4.27-1.57c-3.71,0.4-5.56,7.72,2.81,9.99
			c0.69,3.71,2.59,6.63,2.59,6.63c-0.01-0.01-0.01-0.01-0.02-0.02c2.54,4.06,6.33,7.17,11.42,8.3c15.56,3.45,19.13-7.93,18.02-23.96
			C1343.19,678.94,1342.48,675.22,1341.18,672.25z"/>
		<path class="st3" d="M1333.51,715.8c0,0,0.16,0.7,0.34,1.83c-2.76-0.78-5.45-1.44-8.06-1.99c-0.28-0.96-0.31-2.14,0.14-3.6
			c-4.2-1.9-7.37-5.85-9.17-8.59c-0.63,3.03-1.84,7.84-5.52,9.96c-3.87-0.37-7.35-0.53-10.33-0.57c-3.26-0.04-6.19,1.36-8.22,3.61
			c-7.98-5.65-26.71-21.31-36.66-49.58c-1.68-4.78-4.87-8.5-9.21-11.44c-0.23-0.15-0.45-0.31-0.68-0.45
			c-0.29-0.18-0.59-0.36-0.88-0.54c-0.24-0.14-0.48-0.29-0.73-0.43c-0.3-0.17-0.62-0.34-0.93-0.51c-0.26-0.14-0.52-0.27-0.78-0.4
			c-0.32-0.16-0.64-0.32-0.97-0.47c-0.27-0.13-0.55-0.26-0.83-0.38c-0.33-0.15-0.67-0.29-1.01-0.44c-0.29-0.12-0.58-0.24-0.88-0.36
			c-0.34-0.14-0.69-0.27-1.04-0.4c-0.31-0.11-0.62-0.23-0.93-0.34c-0.36-0.13-0.71-0.25-1.08-0.37c-0.32-0.11-0.65-0.21-0.98-0.32
			c-0.36-0.12-0.73-0.23-1.1-0.34c-0.34-0.1-0.69-0.2-1.04-0.3c-0.37-0.1-0.74-0.21-1.12-0.31c-0.36-0.1-0.73-0.19-1.09-0.28
			c-0.38-0.1-0.75-0.19-1.13-0.28c-0.38-0.09-0.77-0.18-1.16-0.27c-0.38-0.09-0.76-0.17-1.14-0.26c-0.4-0.09-0.81-0.17-1.22-0.25
			c-0.38-0.08-0.76-0.16-1.14-0.23c-0.43-0.08-0.87-0.16-1.31-0.24c-0.37-0.07-0.74-0.14-1.11-0.2c-0.48-0.08-0.96-0.16-1.45-0.24
			c-0.34-0.06-0.68-0.11-1.02-0.17c-0.56-0.09-1.12-0.17-1.68-0.25c-0.28-0.04-0.57-0.08-0.85-0.13c-0.69-0.1-1.39-0.19-2.1-0.28
			c-0.17-0.02-0.33-0.04-0.49-0.07c-2.66-0.34-5.4-0.63-8.2-0.89c-0.03,0-0.07-0.01-0.1-0.01c-0.9-0.08-1.8-0.16-2.71-0.24
			c-0.09-0.01-0.18-0.01-0.28-0.02c-0.86-0.07-1.72-0.14-2.59-0.21c-0.1-0.01-0.2-0.02-0.31-0.02c-0.87-0.07-1.74-0.13-2.61-0.19
			c-0.07-0.01-0.15-0.01-0.22-0.02c-0.91-0.06-1.83-0.13-2.76-0.19c-0.01,0-0.03,0-0.04,0c-25.32-1.65-53.81-2.04-76.12-8.56
			c-0.01,0-0.02,0-0.02-0.01c-0.82-0.24-1.63-0.49-2.43-0.74c-0.02-0.01-0.04-0.01-0.06-0.02c-0.79-0.25-1.58-0.52-2.36-0.79
			c-0.02-0.01-0.04-0.02-0.07-0.02c-0.78-0.27-1.55-0.55-2.31-0.85c-0.02-0.01-0.04-0.01-0.06-0.02c-0.76-0.29-1.52-0.6-2.26-0.91
			c-0.01,0-0.02-0.01-0.04-0.01c-1.51-0.63-2.98-1.31-4.4-2.03c6.59,4.94,14.82,10.25,23.64,14.01c0.9,0.39,1.8,0.74,2.71,1.1
			c15.36,5.9,70.46,6.75,88.53,15.02c0,0-17.76,0.48-16.23,3.61c1.52,3.13,14.38,4.04,14.38,4.04s-11.02,3.68-3.67,8.27
			c7.35,4.6,17.15-1.25,17.15-1.25s-6.75,6.46-2.46,8.61c4.29,2.14,15.62-2.34,15.62-2.34s18.69,28.97,45.48,39.95
			c-0.05,0.2-0.09,0.39-0.13,0.59c-4.22,7.76-8.24,20.19-16.53,24.73c-6.39,3.5-15.06,2.99-22.45,1.97
			c-3.81-0.53-7.28-1.19-9.91-1.5c-1.8-0.21-3.21-0.27-4.08-0.01c-0.28,0.09-0.52,0.2-0.68,0.36c-2.81,2.72-7.43,3.3-7.43,3.3
			c0.68,0.62,1.38,1.22,2.09,1.81c-11.79,2.46-21.99,7.32-28.24,13.15l23.75,1.44c2.39-1.21,7.33-3.62,11.25-5.03
			c1.23-0.44,2.89-1.05,4.63-1.69c24.04,13.85,56.17,17.81,69.32,9.46c2.26-1.44,4.18-2.79,5.82-4.05c0.09-0.16,0.18-0.31,0.26-0.47
			c14.12-0.53,35.9-4.7,35.9-4.7c3.46,0.38,11.8-4.23,14.57-6.81c0.17-0.16,0.33-0.31,0.45-0.46c2.17-2.45-7.88-9.51-9.11-9.24
			c-0.63,0.14-2.32,0.89-4.07,1.88c-0.54-5.68-1-12.46-1.56-16.12l-9.85,10.06c-0.81,2.21-1.88,4.52-3.27,6.79
			c0.29-1.45,0.53-2.84,0.72-4.19l-4.16,4.24c0.99,2.47,2.03,5.06,3.12,7.73c-0.38,0.05-0.77,0.1-1.17,0.15
			c-1.1-2.69-2.15-5.3-3.15-7.8l-0.14-0.34l5.74-5.85c0.5-4.25,0.56-7.9,0.39-10.91c1.15-1.15,2.27-2.4,3.22-3.72l1.29-0.22
			c0,0,0.15,5.16-1.79,11.67l8.79-8.97c-0.04-0.2-0.09-0.37-0.13-0.53c0-0.01,0-0.02-0.01-0.03c-0.01-0.02-0.01-0.04-0.02-0.06
			c-0.08-0.25-0.16-0.44-0.24-0.55c-0.62-0.86-1.82-2.22-3-3.48c-0.78-0.84-1.8-1.34-2.87-1.5c0,0,0,0,0,0
			c0.65,0.1,1.28,0.33,1.86,0.69c-0.32-0.38-0.68-0.75-1.06-1.12c0,0-0.24-0.01-0.65,0c0.28-0.9,0.43-1.79,0.38-2.67
			c0,0-0.31-0.19-0.83-0.5C1344.59,717.18,1336.32,712.73,1333.51,715.8z M1310.75,750.58c-0.17-0.56-0.34-1.11-0.5-1.66
			c-0.25-1.24-0.4-2.88-0.63-5.11c1.3,3.55,3.38,6.97,6.83,9.52c-0.8-0.12-1.58-0.25-2.27-0.43
			C1312.29,752.45,1311.33,751.84,1310.75,750.58z"/>
		<path class="st4" d="M1323.07,623.05c16.06-1.82,28.75-6.23,28.34-9.84c-0.41-3.61-13.76-5.06-29.82-3.24
			c-16.06,1.82-28.74,6.23-28.33,9.84C1293.66,623.42,1307.01,624.87,1323.07,623.05z M1322.03,613.86
			c10.27-1.17,18.81-0.24,19.07,2.07c0.26,2.31-7.85,5.13-18.12,6.3c-10.27,1.17-18.81,0.24-19.07-2.07
			S1311.76,615.02,1322.03,613.86z"/>
		<path class="st4" d="M1345.01,737.44c1.94-6.51,1.79-11.67,1.79-11.67l-1.29,0.22c-0.95,1.31-2.07,2.57-3.22,3.72
			c0.17,3.01,0.11,6.66-0.39,10.91l-5.74,5.85l0.14,0.34c1,2.5,2.05,5.11,3.15,7.8c0.39-0.05,0.79-0.1,1.17-0.15
			c-1.09-2.67-2.13-5.25-3.12-7.73l4.16-4.24c-0.19,1.34-0.43,2.74-0.72,4.19c1.39-2.27,2.46-4.58,3.27-6.79l9.85-10.06l29.45-30.06
			c-0.13,3.24,0.8,6.71,2.8,10.34c1.15,2.08,2.51,4,3.83,5.86c0.87,1.22,1.68,2.38,2.45,3.58c4.48,7.03,6.92,15.49,6.86,23.82
			c-0.01,1.41-0.1,2.82-0.22,4.22c-0.2,2.27-0.49,4.51-0.81,6.67c-0.37,2.55-0.79,5.11-1.29,7.63c-1.98,9.95-5.31,19.33-12.51,25.49
			c-1.99,1.71-4.23,3.11-6.59,4.6c-1.06,0.66-2.11,1.33-3.15,2.02c-3.08,2.06-6.91,4.97-9.2,9.22c-0.46,0.86-0.83,1.74-1.12,2.64
			c-3.08-5.66-5.99-11.36-8.73-16.99c3.56-3.74,6.34-7.65,8.49-11.4c-2.16,3.74-4.94,7.66-8.5,11.39
			c-4.16-8.58-7.92-17.01-11.29-24.93c5.07-0.83,8.55-1.5,8.55-1.5c2.56,0.28,7.77-2.16,11.44-4.5c1.61-1.02,2.92-2.03,3.58-2.77
			c0.33-0.37,0.37-0.85,0.22-1.39c-2.77,2.59-11.11,7.2-14.57,6.81c0,0-21.78,4.17-35.9,4.7c-0.09,0.16-0.18,0.31-0.26,0.47
			c-1.64,1.26-3.55,2.61-5.82,4.05c-13.15,8.35-45.29,4.39-69.32-9.46c-1.74,0.64-3.39,1.25-4.63,1.69
			c-3.92,1.41-8.86,3.82-11.25,5.03c-0.89,0.45-1.43,0.73-1.43,0.73c5.12,3.96,13.41,8.97,25.91,12.94l-84.56,39.36
			c8.3-0.9,20-1.47,32.88,0c6.39,0.73,12.26,0.85,17.47,0.62l-38.4,29.48c4.41,3.03,14.37,9,26.78,14.86
			c3.15-0.58,6.49-0.93,9.95-1.01c-4.88-3.55-7.8-8.02-7.8-12.87c0-3.19,1.26-6.21,3.51-8.92c-0.07-0.67-0.11-1.35-0.11-2.03
			c0-13.37,13.6-24.2,30.38-24.2c0.26,0,0.52,0.01,0.77,0.02c2.98-5.2,7.67-9.78,13.57-13.4c4.23-6.93,8.35-13.17,12.33-18.1
			c21.4,1.91,40.93-10.23,50.46-17.44c7.9-0.39,17.85-1.79,25.09-2.96c3.45,8.13,7.31,16.8,11.6,25.62
			c-1.24,1.25-2.57,2.48-4.01,3.66c-5.86,4.87-12.74,8.4-19.3,10.95c0,0,0,0,0,0c6.56-2.55,13.44-6.08,19.3-10.94
			c1.43-1.19,2.76-2.41,4-3.66c2.86,5.88,5.91,11.82,9.15,17.72c-0.7,3.44-0.15,6.92,1.66,9.58c0.51,0.75,1.39,1.1,2.24,0.97
			c0.32-0.05,0.63-0.17,0.92-0.37c1.04-0.71,1.31-2.12,0.6-3.16c-1.84-2.71-1.27-6.53,0.12-9.1c1.82-3.37,5.08-5.83,7.72-7.6
			c1-0.67,2.02-1.31,3.04-1.95c2.4-1.51,4.87-3.07,7.12-4.99c9.19-7.87,12.7-19.84,14.74-32.06c0.21-1.29,0.42-2.57,0.61-3.86
			c0.2-1.36,0.38-2.76,0.55-4.18c0.28-2.38,0.5-4.83,0.52-7.33c0.07-9.2-2.62-18.54-7.57-26.3c-0.83-1.3-1.72-2.55-2.58-3.76
			c-1.3-1.84-2.53-3.57-3.56-5.43c-1.3-2.34-2.71-5.85-2.12-9.24c0.52-2.96,2.75-5.39,5.24-5.65c1.25-0.13,2.15-1.25,2.02-2.5
			c-0.13-1.25-1.25-2.15-2.5-2.02c-4.48,0.48-8.37,4.43-9.23,9.39c0,0.03-0.01,0.05-0.01,0.08l-29.88,30.5L1345.01,737.44z"/>
		<path class="st4" d="M1411.73,763.52c-0.14,0.92,0.78,1.72,1.7,1.81c0.92,0.08,1.71-0.1,2.54-0.52c-0.3,0.6-0.57,1.38-0.14,1.89
			c0.37,0.44,1.05,0.41,1.6,0.26c0.98-0.26,1.97-0.69,2.68-1.41c-0.31,0.23-0.44,0.68-0.3,1.04c0.14,0.36,0.52,0.61,0.91,0.59
			c0.3-0.02,0.57-0.19,0.82-0.37c1.36-0.96,2.45-2.28,3.2-3.77c23.18,1.81,46.55,4.11,69.62,6.83c-0.95,0.69-1.72,1.61-2.21,2.68
			c-0.36,0.78-0.55,1.75-0.08,2.47c0.59,0.91,1.89,0.96,2.96,0.85c4.95-0.51,10.49-2.51,14.29-5.82c0.07-0.06,0.14-0.12,0.15-0.22
			c0.01-0.09-0.05-0.17-0.1-0.24c-1.58-1.96-4.26-3.69-6.3-5.17c-2.31-1.68-4.74-3.18-7.28-4.49c-0.71-0.36-1.55-0.72-2.27-0.37
			c-1.18,0.57-0.9,2.32-0.31,3.49c0.91,1.8,2.14,3.43,3.6,4.83c-23.83-2.84-48-5.23-71.97-7.1c-0.54-1.62-1.47-3.12-2.73-4.28
			c-0.22-0.21-0.47-0.41-0.77-0.47c-0.38-0.08-0.8,0.12-0.98,0.46c-0.18,0.34-0.11,0.8,0.17,1.07c-0.61-0.81-1.54-1.36-2.47-1.74
			c-0.53-0.22-1.2-0.33-1.62,0.06c-0.49,0.45-0.32,1.26-0.1,1.9c-0.76-0.53-1.52-0.81-2.45-0.84c-0.93-0.03-1.94,0.65-1.92,1.57
			c0.02,0.74,0.64,1.3,1.21,1.77c0.66,0.54,1.46,0.83,2.3,0.99c-0.82,0.06-1.62,0.25-2.33,0.68
			C1412.53,762.31,1411.84,762.79,1411.73,763.52z"/>
		<path class="st4" d="M1273.53,746.52c8.29-4.54,12.31-16.98,16.53-24.73c0.04-0.2,0.08-0.4,0.13-0.59
			c-26.8-10.98-45.48-39.95-45.48-39.95s-11.33,4.47-15.62,2.34c-4.29-2.15,2.46-8.61,2.46-8.61s-9.8,5.85-17.15,1.25
			c-7.35-4.58,3.67-8.27,3.67-8.27s-12.87-0.91-14.38-4.04c-1.53-3.13,16.23-3.61,16.23-3.61c-18.07-8.27-73.17-9.12-88.53-15.02
			c-0.91-0.36-1.81-0.71-2.71-1.1c-8.83-3.76-17.05-9.07-23.64-14.01c-0.83-0.41-1.63-0.85-2.43-1.29c-0.18-0.1-0.37-0.2-0.55-0.31
			c-0.84-0.48-1.66-0.98-2.46-1.5l0,0c0,0,0,0-0.01,0c0,0-2.18,20.51,24.77,29.62l-14.73,1.89c0,0,0,0.01,0,0.01l-0.01,0
			c0,0,11.67,20,26.36,21.27l-12.24,6.1c0,0,0,0,0,0l0,0c0,0,11.34,13.58,24.45,18.55c2.43,0.92,4.91,1.55,7.4,1.74l-9.18,6.61
			c0,0,21.43,19.09,47.77,12.36l-2.41,4.4l-2.14,3.91c0,0,0.01,0,0.01,0l0,0c0,0,23.73,3.41,35.89,0c8.7-2.44,35.94-1.48,54.56,4.84
			c-4.59,5.28-8.42,8.24-8.42,8.24s-8.94-0.34-17.56,1.23c-1.01,0.18-2.01,0.39-3,0.63
			C1258.47,749.51,1267.14,750.03,1273.53,746.52z"/>
		<path class="st4" d="M1309.62,743.81c0.23,2.23,0.39,3.87,0.63,5.11c0.16,0.55,0.33,1.1,0.5,1.66c0.58,1.26,1.54,1.86,3.42,2.32
			c0.7,0.17,1.47,0.31,2.27,0.43C1312.99,750.79,1310.92,747.36,1309.62,743.81z"/>
		<path class="st7" d="M1215.19,864.03c-3.46,0.08-6.8,0.43-9.95,1.01c-8.23,1.51-15.2,4.61-19.77,8.67
			c1.99,0.07,3.92,0.28,5.75,0.63c6.79-5.9,20.41-9.92,36.12-9.92c6.59,0,12.81,0.71,18.32,1.97c0.69-0.88,1.43-1.74,2.21-2.57
			c-2.16,0.39-4.4,0.6-6.7,0.6c-15.92,0-28.97-9.76-30.27-22.17c-2.25,2.71-3.51,5.73-3.51,8.92
			C1207.39,856.01,1210.31,860.48,1215.19,864.03z"/>
		<path class="st7" d="M1425.87,870.69c4.24-0.83,8.71-1.28,13.33-1.28c7.39,0,14.39,1.14,20.69,3.18
			c-0.47,0.36-0.91,0.73-1.34,1.11c1.99,0.07,3.92,0.28,5.75,0.63c6.79-5.9,20.41-9.92,36.12-9.92c6.59,0,12.81,0.71,18.32,1.97
			c0.69-0.88,1.43-1.74,2.21-2.57c-2.16,0.39-4.4,0.6-6.7,0.6c-15.92,0-28.97-9.76-30.27-22.17c-2.25,2.71-3.51,5.73-3.51,8.92
			c0,4.85,2.92,9.32,7.8,12.87c-10.7,0.23-20.24,3.05-26.73,7.38c-6.78-4.52-16.89-7.4-28.18-7.4c-9.66,0-18.45,2.1-25.03,5.54
			c1.39-0.08,2.79-0.13,4.21-0.13C1417.16,869.41,1421.63,869.86,1425.87,870.69z"/>
		<path class="st7" d="M1120.53,871.06c-20.42,0-36.98,11.17-36.98,24.95c0,3.54,1.11,6.89,3.08,9.94c0.99-0.1,2-0.19,3.02-0.25
			c0,0,0,0,0,0c75.14,15.03-1.71,44.22-1.71,44.22s5.5-0.25,12.45-2.07c8.6-1.22,23.21-1.35,32.95,9.05c0,0-7.81-13.08-26.7-11.06
			c7.95-3.04,16.23-8.33,19.94-17.51c8.21-20.27-36.94-22.63-36.94-22.63c-0.02-0.36-0.04-0.72-0.04-1.09
			c0-15.61,14.39-28.83,34.31-33.45c-1.07-0.07-2.15-0.1-3.25-0.11C1120.62,871.06,1120.57,871.06,1120.53,871.06z"/>
		<path class="st7" d="M1359.91,868.07c6.4,1.85,10.64,4.33,13.34,7.12c-10.01,4.47-16.61,12.12-16.61,20.82
			c0,3.54,1.11,6.89,3.08,9.94c0.99-0.1,2-0.19,3.02-0.25c-0.02-0.36-0.04-0.72-0.04-1.09c0-15.61,14.39-28.83,34.31-33.45
			c-1.12-0.07-2.24-0.11-3.39-0.11c-3.3,0-6.49,0.3-9.54,0.84c-3.4,0.61-6.6,1.54-9.54,2.73
			C1368.02,869.98,1359.15,867.85,1359.91,868.07z"/>
		<path class="st7" d="M1336.51,859.23c0,0,24.93-5.96,23.35-19.86c-1.58-13.9-23.35-20.48-23.35-20.48
			C1377.23,839.79,1336.51,859.23,1336.51,859.23z"/>
		<path class="st7" d="M1348.22,890.67c-9.06-7.61-41.65-7.7-38.3-7.61c33.27,0.91,42.63,14.84,45.22,23.54
			c0.74-0.14,1.5-0.26,2.26-0.37C1356.66,901.35,1353.71,895.29,1348.22,890.67z"/>
		<path class="st7" d="M1190.68,879.8c21.91,4.74,30.9,11.74,33.13,18.98c4.41,14.3-17.6,29.54-18.44,30.12
			c0.79-0.27,19.11-6.43,35.26,3.23c0,0,0.01,0,0.03-0.01c1.17-0.55,36.95-16.76,42.67,14.17c0.01-0.01,0.01-0.01,0.02-0.02
			c0.01,0,0.03-0.01,0.05-0.02c0.98-0.56,11.8-6.39,22.24-2.09c-1.42,1.53-2.44,3.25-2.95,5.08c1.14-0.1,2.31-0.16,3.49-0.16
			c2.48,0,4.86,0.23,7.1,0.66c5.2-4.51,14.39-7.93,25.46-9.28c-5.78-3.7-9.29-8.56-9.29-13.89c0-4.73,2.77-9.1,7.43-12.61
			c-6.96,3.4-12.1,8.39-14.24,14.18c-8.86-5.12-22.9,0.77-22.9,0.77s-1.77-14.9-14.23-20.03c-12.46-5.12-29.67,2.55-29.67,2.55
			s5.05-10.08-6.48-14.98c-11.53-4.9-22.55,1.83-22.55,1.83c-1.05-2.65-2.85-5.57-5.55-8.92
			C1211.13,876.79,1188.29,879.29,1190.68,879.8z"/>
		<path class="st7" d="M1154.88,959.76c0.32,0.03,0.65,0.05,0.98,0.08c-2.82-3.99-9.19-8.77-22.53-2.94
			C1133.33,956.9,1147.87,954.05,1154.88,959.76z"/>
		<path class="st7" d="M1185.48,962.05c0.31,0.02,0.62,0.04,0.93,0.07c-4.04-2.72-13.11-7.17-23.47-1.73
			c0.97,0.07,1.94,0.15,2.92,0.22C1171.09,959.22,1178.27,958.61,1185.48,962.05z"/>
		<path class="st7" d="M1682.02,876.65c8.39-4.53,18.88-7.23,30.26-7.23c9.74,0,18.82,1.98,26.5,5.39
			c-6.31-6.44-18.42-10.79-32.33-10.79c-2.32,0-4.58,0.13-6.78,0.36c-2.6,0.27-5.1,0.7-7.47,1.26c-7.39,1.75-13.55,4.82-17.59,8.7
			C1677.33,874.83,1679.84,875.62,1682.02,876.65z"/>
		<path class="st7" d="M1632.99,868.07c31.71,9.17,10.49,33.86,10.49,33.86s13.06-8.94,10.49-19.2
			C1651.39,872.47,1631.88,867.75,1632.99,868.07z"/>
		<path class="st7" d="M1609.59,859.23c0,0,24.93-5.96,23.35-19.86c-1.58-13.9-23.35-20.48-23.35-20.48
			C1650.31,839.79,1609.59,859.23,1609.59,859.23z"/>
		<path class="st7" d="M1621.31,890.67c-9.06-7.61-41.65-7.7-38.3-7.61c48.61,1.32,46.17,30.45,46.17,30.45
			C1632.55,909.87,1630.37,898.29,1621.31,890.67z"/>
		<path class="st7" d="M1678.98,908.88c0,0-5.4-3.63-20.26-3.18c-14.87,0.47-29.54,7.82-29.54,7.82s45.48-3.97,59.07,18.85
			c0,0.01,0.01,0.01,0.01,0.02l0.01-0.01c0.46-0.29,0.92-0.57,1.38-0.82c4.8-2.52,22.15-9.01,53.77,6.79c0,0,0,0,0.01-0.01
			c0.57-0.4,16.98-11.27,40.66,5.97c0,0-2.92-19.2-16.63-23.34c-13.71-4.14-24.09-3.31-24.09-3.31s2.9-8.11-21.46-19.37
			C1697.56,887.02,1678.98,908.88,1678.98,908.88z"/>
		<path class="st7" d="M1463.76,879.8c21.91,4.74,30.9,11.74,33.13,18.98c4.41,14.3-17.6,29.54-18.44,30.12
			c0.79-0.27,19.11-6.43,35.26,3.23c0,0,0.01,0,0.02-0.01c1.17-0.55,36.95-16.76,42.67,14.17c0.01-0.01,0.01-0.01,0.02-0.02
			c0.01,0,0.03-0.01,0.05-0.02c1.33-0.75,20.72-11.22,32.74,6.99c0,0,0.01-0.01,0.05-0.02c0.05-0.03,0.09-0.06,0.14-0.08
			c0.36-0.19,0.71-0.37,1.06-0.54c0.06-0.03,0.12-0.06,0.19-0.09c0.04-0.02,0.09-0.04,0.12-0.06c2.58-1.2,8.08-3.35,14.2-3.29
			c5.48,0.05,11.46,1.88,16.32,7.72c0.49,0.58-1.62-7.97-11.67-9.04c0.6,0.02,8.35,0.2,5.36-5.53c-3.12-5.96-10.91-1.79-10.91-1.79
			s1.56-5.16-7.17-11.62c-8.73-6.45-24.09,0-24.09,0s-1.77-14.9-14.23-20.03c-12.46-5.12-29.67,2.55-29.67,2.55
			s5.05-10.08-6.48-14.98c-11.53-4.9-22.55,1.83-22.55,1.83c-1.05-2.65-2.85-5.57-5.55-8.92
			C1484.21,876.79,1461.38,879.29,1463.76,879.8z"/>
		<path class="st7" d="M1361.02,949.93c0,0,5.5-0.25,12.45-2.07c8.6-1.22,23.21-1.35,32.95,9.05c0,0-7.81-13.08-26.7-11.06
			c7.95-3.04,16.23-8.33,19.94-17.51c8.21-20.27-36.94-22.63-36.94-22.63C1437.86,920.73,1361.02,949.93,1361.02,949.93z"/>
		<path class="st7" d="M1430.92,963.83c0,0-4.15-15.83-24.51-6.92C1406.42,956.9,1426.76,952.9,1430.92,963.83z"/>
		<path class="st7" d="M1461.74,963.83c0,0-14.62-13.57-30.81,0C1430.92,963.83,1446.89,954.09,1461.74,963.83z"/>
		<path class="st2" d="M994.39,953.89c1.31,0.18,451.25,63.38,860.8-0.02c2.87-0.44,4.84-3.13,4.4-6.01
			c-0.45-2.87-3.14-4.84-6.01-4.4c-7.41,1.15-14.84,2.25-22.28,3.31c2.96-13.13,5.28-26.39,6.89-39.74
			c1.15-9.46,1.96-18.97,2.4-28.49c0.22-4.76,0.36-9.53,0.4-14.3c0.02-2.38,0.02-4.77-0.01-7.15c-0.23-21.45-2.33-42.89-6.5-63.98
			c-2.94-14.86-6.98-29.6-12.04-43.87c-1.31-3.69-2.66-7.35-4.11-10.97c-6.97-17.68-15.42-34.78-25.35-50.96
			c-5.25-8.59-10.92-16.91-16.93-24.95c-3.66-4.89-7.45-9.68-11.37-14.36c-0.47-0.57-0.95-1.13-1.43-1.69
			c-2.69-3.17-5.44-6.29-8.24-9.36c-3.35-3.66-6.76-7.25-10.26-10.76c-1.66-1.67-3.34-3.32-5.04-4.96
			c-6.78-6.54-13.81-12.8-21.06-18.76l-5.44-4.47l-3.69-2.83l-1.89-1.45l-5.59-4.26l-5.79-4.12l-3.92-2.77l-1.88-1.32
			c-1.98-1.3-4.03-2.49-6.04-3.73c-4.05-2.49-8.05-4.77-12.1-7.11c-16.23-9.19-33.05-17.47-50.44-24.33
			c-17.38-6.89-35.29-12.39-53.46-16.46c-4.51-1.05-9.18-1.99-13.78-2.83c-2.62-0.37-5.22-0.73-7.82-1.06
			c-2.03-0.26-4.06-0.52-6.08-0.74c-9.23-1.05-18.49-1.81-27.76-2.25c-4.64-0.21-9.28-0.33-13.92-0.36
			c-13.71-0.1-27.41,0.55-41.01,1.93c-0.22,0.02-0.43,0.04-0.65,0.06c-0.24,0.02-0.47,0.06-0.71,0.08c-4.37,0.47-8.73,1-13.07,1.6
			c-2.29,0.32-4.58,0.65-6.86,1.01c-2.29,0.35-4.57,0.72-6.86,1.11l-6.87,1.23l-2.54,0.63l-4.23,1.06
			c-4.49,1.18-8.94,2.33-13.37,3.64c-1.57,0.45-3.13,0.91-4.69,1.38c-1.34,0.4-2.68,0.81-4.02,1.22
			c-10.33,3.2-20.53,6.81-30.54,10.89c-4.27,1.74-8.5,3.57-12.69,5.49c-15.48,7.13-30.32,15.62-44.16,25.47
			c-1.13,0.81-2.27,1.6-3.39,2.43c0,0,0,0,0,0c0,0,0,0,0,0c0.93-0.63,1.87-1.24,2.8-1.86c3.69-2.44,7.43-4.78,11.23-7.02
			c3.14-1.85,6.3-3.65,9.5-5.37c2.02-1.08,4.05-2.14,6.1-3.17c6.14-3.09,12.39-5.96,18.73-8.59c16.93-6.98,34.41-12.54,52.17-16.89
			c4.42-1.13,8.91-2.11,13.35-3.1l5.39-1.14l1.27-0.27l1.33-0.19l5.41-0.76c1.19-0.16,2.39-0.3,3.59-0.44
			c5.38-0.66,10.78-1.24,16.18-1.71c2.48-0.21,4.97-0.41,7.45-0.58c9.09-0.6,18.2-0.86,27.3-0.79c0.04,0,0.08,0,0.12,0
			c9.06,0.07,18.1,0.48,27.12,1.22c9.05,0.76,18.08,1.85,27.06,3.21c2.04,0.31,4.05,0.63,6.06,0.97c0.61,0.1,1.21,0.21,1.82,0.31
			c1.83,0.31,3.66,0.63,5.47,0.96c4.39,0.98,8.7,2.01,13.1,3.21c15.33,4.04,30.35,9.11,44.94,15.19c2.08,0.87,4.16,1.76,6.22,2.67
			c6.2,2.72,12.32,5.62,18.35,8.69c2.01,1.02,4.01,2.07,6.01,3.13c7.97,4.24,15.8,8.76,23.5,13.51c1.91,1.2,3.84,2.4,5.75,3.61
			c1.87,1.19,3.73,2.38,5.53,3.59c0.04,0.03,0.08,0.05,0.12,0.08c1.85,1.24,3.73,2.42,5.55,3.71l4.89,3.75l0.41,0.32l0.61,0.47
			l4.68,3.6l5.21,4.29l0.23,0.19l4.96,4.11l3.99,3.53l1.06,0.94c26.86,23.83,49.87,51.74,67.27,82.76
			c3.27,5.81,6.34,11.72,9.21,17.73c4.78,10.01,9.01,20.28,12.68,30.74c5.96,16.74,10.27,33.82,13.07,51.28
			c1.01,6.31,1.81,12.65,2.43,19.01c1.09,11.22,1.59,22.49,1.52,33.77c-0.12,17.67-1.62,35.35-4.4,52.8
			c-0.38,2.38-0.78,4.75-1.2,7.13c-0.23,1.31-0.49,2.62-0.74,3.94c-0.2,1.04-0.38,2.07-0.59,3.11c-0.35,1.78-0.73,3.56-1.11,5.34
			c-0.12,0.54-0.22,1.09-0.34,1.64c-0.45,2.07-0.93,4.13-1.42,6.18c-0.06,0.24-0.11,0.49-0.17,0.73c-0.54,2.24-1.1,4.48-1.67,6.71
			c-0.01,0.05-0.03,0.11-0.04,0.16c-0.51,1.95-1.04,3.9-1.58,5.85c-4.3-1.56-9.31-2.73-14.78-3.4c5.78-3.7,9.29-8.56,9.29-13.89
			c0-10.87-14.59-19.81-33.28-20.86c0.02-0.36,0.04-0.72,0.04-1.09c0-12.56-9.33-23.58-23.36-29.81c-7.68-3.41-16.76-5.39-26.5-5.39
			c-11.38,0-21.87,2.7-30.26,7.23c-2.19-1.02-4.7-1.81-7.41-2.32c-2.21-0.42-4.55-0.65-6.99-0.65c-2.48,0-4.86,0.23-7.1,0.66
			c-3.02-2.62-7.42-4.86-12.72-6.55c-1.28-0.41-2.59-0.79-3.96-1.13c1.39-1.58,2.43-3.27,3.08-5.05c0.24-0.64,0.43-1.28,0.56-1.94
			c0.15-0.78,0.24-1.57,0.24-2.37c0-4.69-2.72-9.02-7.31-12.52c0.36-1.48,0.55-3.01,0.55-4.57c0-13-12.87-23.61-29.02-24.18
			c-0.39-0.01-0.79-0.02-1.19-0.02c-0.06,0-0.12,0-0.17,0c-0.26,0-0.52,0.01-0.78,0.02c-0.55-0.96-1.16-1.9-1.83-2.81
			c-8.25-11.39-25.03-19.2-44.4-19.2c-0.2,0-0.39,0.01-0.58,0.01c-0.19,0-0.39,0.01-0.58,0.01c-0.39-0.01-0.77-0.02-1.16-0.02
			c-1.91,0-3.79,0.08-5.64,0.22c-2.44,0.19-4.83,0.52-7.16,0.95c-15.23,2.85-27.6,10.66-33.43,20.83c-0.26-0.01-0.52-0.02-0.77-0.02
			c-16.78,0-30.38,10.84-30.38,24.2c0,0.69,0.04,1.36,0.11,2.03c1.3,12.41,14.35,22.17,30.27,22.17c2.3,0,4.54-0.21,6.7-0.6
			c-0.79,0.83-1.53,1.69-2.21,2.57c-5.51-1.26-11.73-1.97-18.32-1.97c-15.7,0-29.32,4.03-36.12,9.92c-1.83-0.35-3.76-0.56-5.75-0.63
			c0.43-0.38,0.87-0.75,1.34-1.11c-6.31-2.03-13.31-3.18-20.69-3.18c-4.62,0-9.08,0.45-13.33,1.28c-4.24-0.83-8.71-1.28-13.33-1.28
			c-1.42,0-2.82,0.05-4.21,0.13c-3.93,0.23-7.73,0.78-11.34,1.62c-19.92,4.61-34.31,17.84-34.31,33.45c0,0.36,0.02,0.72,0.04,1.09
			c0,0,45.15,2.37,36.94,22.63c-3.72,9.18-12,14.47-19.94,17.51c18.89-2.02,26.7,11.06,26.7,11.06c20.36-8.91,24.51,6.92,24.51,6.92
			c16.2-13.57,30.81,0,30.81,0c-14.85-9.74-30.81,0-30.81,0c-4.16-10.92-24.51-6.92-24.51-6.92c-9.74-10.4-24.35-10.27-32.95-9.05
			c-6.95,1.83-12.45,2.07-12.45,2.07s76.84-29.2,1.71-44.22c-1.02,0.06-2.02,0.14-3.02,0.25c-1.97-3.05-3.08-6.4-3.08-9.94
			c0-8.7,6.61-16.36,16.61-20.82c-2.7-2.78-6.94-5.27-13.34-7.12c-0.76-0.22,8.11,1.92,14.62,6.57c2.94-1.2,6.14-2.12,9.54-2.73
			c-3.53-2.16-8.08-3.96-13.32-5.26c2.48-2.82,3.88-5.99,3.88-9.35c0-4.69-2.72-9.02-7.31-12.52c0.36-1.48,0.55-3.01,0.55-4.57
			c0-13.37-13.6-24.2-30.38-24.2c-0.26,0-0.52,0.01-0.78,0.02c-0.48-0.85-1.02-1.67-1.59-2.49c-8.17-11.57-25.08-19.52-44.64-19.52
			c-0.39,0-0.77,0.01-1.16,0.02c-0.39-0.01-0.77-0.02-1.16-0.02c-12.5,0-23.91,3.25-32.66,8.61c-5.9,3.62-10.59,8.2-13.57,13.4
			c-0.26-0.01-0.52-0.02-0.77-0.02c-16.78,0-30.38,10.84-30.38,24.2c0,0.69,0.04,1.36,0.11,2.03c1.3,12.41,14.35,22.17,30.27,22.17
			c2.3,0,4.54-0.21,6.7-0.6c-0.79,0.83-1.53,1.69-2.21,2.57c-5.51-1.26-11.73-1.97-18.32-1.97c-15.7,0-29.32,4.03-36.12,9.92
			c-1.83-0.35-3.76-0.56-5.75-0.63c-0.45-0.02-0.89-0.03-1.34-0.03c-5.44,0-10.44,1.12-14.4,2.98c-3.68-1.99-7.76-3.62-12.14-4.83
			c-5.62-1.55-11.73-2.4-18.12-2.4c-5.43,0-10.65,0.62-15.55,1.76c-19.92,4.61-34.31,17.84-34.31,33.45c0,0.36,0.02,0.72,0.04,1.09
			c0,0,45.15,2.37,36.94,22.63c-3.72,9.18-12,14.47-19.94,17.51c18.89-2.02,26.7,11.06,26.7,11.06c13.33-5.84,19.71-1.06,22.53,2.94
			c-0.33-0.03-0.66-0.05-0.98-0.08c-7.01-5.72-21.55-2.86-21.55-2.86c-9.74-10.4-24.35-10.27-32.95-9.05
			c-6.95,1.83-12.45,2.07-12.45,2.07s76.84-29.2,1.71-44.22c0,0,0,0,0,0c-1.02,0.06-2.02,0.15-3.02,0.25
			c-6.97,0.73-13.26,2.56-18.27,5.17c-0.32-2.13-0.62-4.27-0.89-6.41c-0.06-0.43-0.11-0.86-0.17-1.29
			c-0.69-5.48-1.27-10.98-1.71-16.5c-0.31-3.81-0.56-7.63-0.75-11.45c-1.61-32.49,1.05-65.29,8.08-97.21
			c0.01-0.06,0.03-0.12,0.04-0.18c0.42-1.94,0.86-3.88,1.32-5.82c3.29-13.9,7.45-27.61,12.37-41.05c-0.02,0.02-0.04,0.05-0.06,0.07
			c-0.01,0.01-0.02,0.02-0.03,0.03c5.48-15,11.93-29.67,19.33-43.87l-5.28-6.32l5.53-2.76c-4.91-5.39-8.07-10.5-9.17-12.39
			l-1.23-2.11c-1.5,2.46-2.93,4.96-4.45,7.41l-3.53,5.89c-1.18,1.96-2.19,4.02-3.29,6.02l-6.47,12.12
			c-3.88,8.29-8.05,16.48-11.4,25.03c-2.94,6.67-5.41,13.53-7.86,20.4c0,0,0,0,0,0c-0.64,1.78-1.27,3.57-1.91,5.35
			c-1.5,4.34-2.72,8.77-4.1,13.16l-1.44,4.74l-0.57,1.86l-0.68,2.66l-1.02,4.03c-8.22,31.55-12.45,64.18-12.65,96.92
			c-0.16,26.74,2.38,53.54,7.64,79.86c-30.68-3.41-47.96-5.84-48.22-5.88c-2.88-0.39-5.54,1.64-5.92,4.52
			C989.48,950.85,991.51,953.5,994.39,953.89z M1583,883.06c-3.35-0.09,29.24,0,38.3,7.61c9.06,7.61,11.24,19.2,7.87,22.84
			C1629.17,913.51,1631.61,884.38,1583,883.06z M1721.92,898.28c24.37,11.26,21.46,19.37,21.46,19.37s10.38-0.83,24.09,3.31
			c13.71,4.14,16.63,23.34,16.63,23.34c-23.68-17.24-40.09-6.37-40.66-5.97c-0.01,0.01-0.01,0.01-0.01,0.01
			c-31.62-15.8-48.97-9.31-53.77-6.79c-0.46,0.26-0.92,0.54-1.38,0.82l-0.01,0.01c0-0.01-0.01-0.01-0.01-0.02
			c-13.59-22.82-59.07-18.85-59.07-18.85s14.67-7.35,29.54-7.82c14.86-0.46,20.26,3.18,20.26,3.18S1697.56,887.02,1721.92,898.28z
			 M1653.96,882.73c2.58,10.26-10.49,19.2-10.49,19.2s21.22-24.69-10.49-33.86C1631.88,867.75,1651.39,872.47,1653.96,882.73z
			 M1632.95,839.36c1.58,13.9-23.35,19.86-23.35,19.86s40.72-19.44,0-40.34C1609.59,818.89,1631.37,825.46,1632.95,839.36z
			 M1494.35,889.36c2.69,3.35,4.5,6.27,5.55,8.92c0,0,11.02-6.72,22.55-1.83c11.53,4.9,6.48,14.98,6.48,14.98s17.2-7.68,29.67-2.55
			c12.46,5.13,14.23,20.03,14.23,20.03s15.37-6.45,24.09,0c8.73,6.45,7.17,11.62,7.17,11.62s7.79-4.17,10.91,1.79
			c2.99,5.73-4.76,5.55-5.36,5.53c10.05,1.06,12.15,9.61,11.67,9.04c-4.86-5.84-10.83-7.67-16.32-7.72
			c-6.12-0.06-11.62,2.08-14.2,3.29c-0.04,0.02-0.09,0.04-0.12,0.06c-0.06,0.03-0.12,0.06-0.19,0.09c-0.35,0.17-0.7,0.35-1.06,0.54
			c-0.05,0.02-0.09,0.05-0.14,0.08c-0.04,0.01-0.05,0.02-0.05,0.02c-12.03-18.21-31.41-7.75-32.74-6.99
			c-0.03,0.01-0.04,0.02-0.05,0.02c-0.01,0.01-0.01,0.01-0.02,0.02c-5.72-30.93-41.49-14.72-42.67-14.17
			c-0.01,0.01-0.02,0.01-0.02,0.01c-16.15-9.65-34.48-3.5-35.26-3.23c0.83-0.58,22.85-15.82,18.44-30.12
			c-2.23-7.24-11.22-14.24-33.13-18.98C1461.38,879.29,1484.21,876.79,1494.35,889.36z M1357.39,906.23
			c-0.76,0.11-1.52,0.23-2.26,0.37c-2.59-8.7-11.95-22.63-45.22-23.54c-3.35-0.09,29.24,0,38.3,7.61
			C1353.71,895.29,1356.66,901.35,1357.39,906.23z M1359.86,839.36c1.58,13.9-23.35,19.86-23.35,19.86s40.72-19.44,0-40.34
			C1336.51,818.89,1358.29,825.46,1359.86,839.36z M1221.26,889.36c2.69,3.35,4.5,6.27,5.55,8.92c0,0,11.02-6.72,22.55-1.83
			c11.53,4.9,6.48,14.98,6.48,14.98s17.2-7.68,29.67-2.55c12.46,5.13,14.23,20.03,14.23,20.03s14.04-5.89,22.9-0.77
			c2.14-5.79,7.27-10.78,14.24-14.18c-4.67,3.51-7.43,7.88-7.43,12.61c0,5.33,3.51,10.19,9.29,13.89
			c-11.07,1.36-20.27,4.77-25.46,9.28c-2.24-0.42-4.62-0.66-7.1-0.66c-1.19,0-2.35,0.05-3.49,0.16c0.51-1.84,1.53-3.55,2.95-5.08
			c-10.44-4.3-21.25,1.54-22.24,2.09c-0.03,0.01-0.04,0.02-0.05,0.02c-0.01,0.01-0.01,0.01-0.02,0.02
			c-5.72-30.93-41.49-14.72-42.67-14.17c-0.01,0.01-0.03,0.01-0.03,0.01c-16.15-9.65-34.48-3.5-35.26-3.23
			c0.83-0.58,22.85-15.82,18.44-30.12c-2.23-7.24-11.22-14.24-33.13-18.98C1188.29,879.29,1211.13,876.79,1221.26,889.36z
			 M1186.4,962.11c-0.31-0.02-0.62-0.04-0.93-0.07c-7.21-3.44-14.39-2.83-19.62-1.44c-0.98-0.07-1.95-0.15-2.92-0.22
			C1173.29,954.94,1182.36,959.39,1186.4,962.11z"/>
		<path class="st5" d="M1366.79,1087.1c2.86-0.02,5.71-0.03,8.57-0.04v-55.76l-8.57-0.04V1087.1z"/>
		<path class="st5" d="M1541.49,1087.6L1541.49,1087.6l4.67,0.06v0l5.27,0.06l-0.01-0.05
			C1548.1,1087.65,1544.8,1087.62,1541.49,1087.6z"/>
		<path class="st5" d="M1586.69,1034.79c-2.1-9.72-4.23-19.49-6.36-29.29l-2.1-9.65l-9.87,0.2c-13.19,0.27-26.79,0.51-40.41,0.71
			l-9.49,0.14l-2.05,9.26c-4.35,19.63-8.87,39.95-13.49,60.62l-5.49-0.02c-8.59-0.03-17.19-0.06-25.78-0.09l-1.67,0v-29.36
			l7.14-0.03v-39.95l-12.07,0.07c-13.68,0.08-27.52,0.12-41.13,0.12l-8.58,0c-13.84-0.02-27.73-0.08-41.28-0.17l-5.84-0.04
			c-14.12-0.11-28.37-0.27-42.36-0.46l-12.17-0.17v5.63c-1.82-1.24-8.43-5.78-8.43-5.78l-3.61-0.06c-14.4-0.25-29.24-0.55-44.08-0.9
			l-3.7-0.09l-3.11,2.01c-5.14,3.33-10.28,6.68-15.42,10.06l-5.42,3.55v56.55c-7.59,0.08-15.18,0.17-22.77,0.26l-1.49,0.02v-32.8
			l7.14,0.15v-40.9l-11.62-0.37c-14.02-0.44-28.34-0.94-42.56-1.47l-12.45-0.47v41.64l7.36,0.19v40.16
			c-4.89-24.36-9.76-48.87-14.52-73.08l-1.82-9.28l-9.45-0.4c-13.25-0.56-26.83-1.16-40.39-1.81l-10.35-0.49l-1.99,10.17
			c-2.97,15.15-5.94,30.4-8.88,45.65v-38.77l-4.36-3.6c-5.04-4.16-10.09-8.39-15.01-12.57l-3.08-2.61l-4.03-0.22
			c-14.62-0.8-29.44-1.65-44.04-2.54l-4.42-0.27l-3.54,2.67c-5.21,3.94-10.42,7.93-15.49,11.88l-4.63,3.6v113.29l4.56,3.6
			c5.09,4.03,10.3,8.08,15.48,12.06l3.56,2.73l4.48-0.27c14.59-0.89,29.4-1.74,44.04-2.54l4.08-0.22c0,0,5-4.3,5.98-5.13v4.8
			l12.61-0.65c12.56-0.64,25.27-1.26,37.79-1.83l5.72-0.26l5.51-0.25c13.57-0.6,27.52-1.18,41.47-1.71l5.83-0.22
			c24.79-0.93,49.94-1.74,74.75-2.41l11.68-0.32v-5.99c1.88,1.24,8.78,5.78,8.78,5.78l3.75-0.09c14.54-0.34,29.37-0.65,44.08-0.9
			l3.65-0.06l3-2.09c5.03-3.5,10.06-6.98,15.1-10.44l1.53-1.05l1.49,0.99c5.06,3.35,10.12,6.69,15.17,10.03l3.06,2.02l3.67-0.04
			c14.75-0.16,29.73-0.27,44.52-0.34l3.62-0.02l3.01-2.01c3.66-2.45,7.32-4.9,10.98-7.34v9.3l13.64,0c24.19,0,48.8,0.13,73.14,0.38
			l5.62,0.06c12.62,0.14,25.34,0.32,37.82,0.52l6.09,0.1l5.15,0.09c13.74,0.25,27.69,0.54,41.49,0.87l12.29,0.29v-40.64l-8.76-0.14
			c-2.22-10.34-4.48-20.82-6.76-31.4l-3.5,0.03V1034.79z M1065.53,1048.03c-1.44,7.47-2.88,14.94-4.3,22.39l-7.33,0.15
			c-8.58,0.18-17.17,0.36-25.75,0.55l-8.49,0.19v-24.26l8.49,0.19c8.58,0.19,17.17,0.37,25.75,0.55L1065.53,1048.03z
			 M1592.09,1088.3l7.63,0.12v28.59l-6.14-0.15c-13.83-0.33-27.8-0.62-41.52-0.87l-5.15-0.09l-6.1-0.1
			c-12.56-0.21-25.29-0.38-37.85-0.52l-2.92-0.03l-2.71-0.03c-24.37-0.25-49-0.38-73.2-0.38l-7.64,0v-27.89h7.36v-55.53h-2.5v0
			l-1.05,0h-3.81v0l-2.5,0v70.58l-2.67,1.78c-5.05,3.37-10.1,6.74-15.14,10.12l-1.5,1.01l-1.81,0.01
			c-14.79,0.07-29.78,0.18-44.56,0.34l-1.83,0.02l-1.53-1.01c-5.05-3.33-10.11-6.67-15.16-10.02l-2.69-1.78v-71.48l-4.45-0.04v14.39
			l-6.04-0.04c-8.59-0.05-17.18-0.11-25.77-0.17l-5.96-0.04v-14.58c-2.93-0.04-5.85-0.08-8.78-0.12v57.63
			c2.93-0.04,5.85-0.08,8.78-0.12v-14.58l5.96-0.04c8.59-0.06,17.18-0.12,25.77-0.17l6.04-0.04v29.52l-2.6,1.79
			c-5.04,3.47-10.08,6.95-15.12,10.46l-1.5,1.04l-1.83,0.03c-14.64,0.25-29.48,0.56-44.12,0.9l-1.87,0.04l-1.56-1.03
			c-4.98-3.28-9.96-6.57-14.94-9.89v11.33l-5.84,0.16c-24.82,0.67-49.99,1.48-74.81,2.42l-2.09,0.08l-3.75,0.14
			c-13.77,0.53-27.74,1.11-41.5,1.72l-5.52,0.25l-5.73,0.26c-12.43,0.57-25.16,1.19-37.82,1.84l-6.31,0.32v-11.43
			c-4.3,3.62-8.6,7.26-12.79,10.87l-1.55,1.33l-2.04,0.11c-14.52,0.79-29.35,1.64-44.07,2.54l-2.24,0.14l-1.78-1.37
			c-5.15-3.95-10.34-7.99-15.42-12.01l-2.28-1.8v-107.45l2.31-1.8c5.04-3.92,10.22-7.9,15.42-11.83l1.77-1.34l2.21,0.13
			c14.57,0.89,29.4,1.74,44.07,2.54l2.02,0.11l1.54,1.31c4.93,4.19,10.01,8.43,15.08,12.62l2.18,1.8v33.02l-6.12-0.13
			c-8.58-0.18-17.16-0.36-25.74-0.55l-5.87-0.13v-17.44c-2.92-0.11-5.84-0.23-8.76-0.34v71.71c2.92-0.12,5.84-0.23,8.76-0.34v-17.44
			l5.87-0.13c8.58-0.19,17.16-0.37,25.74-0.55l6.12-0.13v16.86l2.84-0.1c5.87-30.87,11.9-62.09,17.93-92.87l1-5.09l5.18,0.25
			c13.41,0.64,27.01,1.25,40.42,1.81l4.72,0.2l0.91,4.64c5.74,29.21,11.66,58.92,17.6,88.38l1.45-0.04v0l1.58-0.04l4.57-0.12v0
			l1.2-0.03v-62.25l-7.36-0.19V998.3l6.23,0.23c14.13,0.53,28.46,1.03,42.59,1.47l5.81,0.18v28.96l-7.14-0.15v60.36
			c0.54-0.01,1.09-0.02,1.63-0.04v-15.34l5.93-0.07c8.59-0.1,17.18-0.2,25.76-0.29l2.94-0.03v-59.25l2.71-1.78
			c5.13-3.37,10.26-6.71,15.4-10.04l1.55-1.01l1.85,0.04c14.79,0.35,29.64,0.65,44.12,0.9l1.8,0.03l1.49,1.02
			c4.95,3.4,9.9,6.77,14.85,10.13v-10.89l6.08,0.08c13.96,0.19,28.22,0.35,42.39,0.46l5.84,0.04c13.59,0.1,27.5,0.15,41.31,0.17
			l3.2,0l5.38,0c13.61,0,27.45-0.04,41.16-0.12l6.03-0.04v27.94l-7.14,0.03v55.68c0.55,0,1.09,0,1.64,0.01v-14.37l6.02,0.02
			c8.59,0.02,17.18,0.05,25.77,0.09l5.98,0.02v14.46l1.11,0.01c6.13-27.4,12.11-54.22,17.77-79.79l1.03-4.63l4.74-0.07
			c13.59-0.2,27.19-0.44,40.44-0.71l4.94-0.1l1.05,4.82C1580.48,1034.39,1586.4,1061.79,1592.09,1088.3z M1321.08,1051.31v15.74
			l-4.52,0.03c-8.59,0.05-17.19,0.11-25.78,0.17l-8.69,0.06v-16.27l8.69,0.06c8.59,0.06,17.19,0.12,25.78,0.17L1321.08,1051.31z"/>
		<path class="st3" d="M1786.77,1025.09l-2.92,0.1v16.97l-5.88,0.12c-8.58,0.17-17.17,0.33-25.75,0.49l-6.11,0.11v-16.44
			c-1.99,0.06-3.97,0.12-5.96,0.18v16.68c7.36-0.06,28.12-0.23,28.12-0.23v30.57c0,0-8.94-0.06-17.17-0.12v2.06l1.11,0.02
			c8.58,0.16,17.17,0.32,25.75,0.49l5.88,0.12v16.97l2.92,0.1V1025.09z M1780.77,1070.13c0,0-5.22-0.1-6.49-0.13v-21.66
			c1.27-0.02,6.49-0.13,6.49-0.13V1070.13z"/>
		<path class="st5" d="M1875.82,998.82c-5.05-3.93-10.26-7.93-15.49-11.88l-3.54-2.67l-4.43,0.27c-22.4,1.36-45.14,2.63-67.57,3.78
			l-7.55,0.38c-26.14,1.31-52.74,2.49-79.04,3.51l-6.48,0.25c-30.91,1.17-62.31,2.16-93.33,2.92l-11.7,0.29v39.12v16.23l3.5-0.03
			l8.61-0.08c6.86-0.07,13.71-0.14,20.57-0.21v32.08l-7.14-0.14v40.69l11.66,0.33c13.98,0.39,28.23,0.84,42.34,1.32l12.41,0.43
			v-41.36l-7.14-0.17v-33.83c6.95-0.09,13.9-0.19,20.85-0.3l1.67-0.02v34.71l-7.36-0.19v41.46l11.53,0.45
			c26.31,1.02,52.9,2.21,79.04,3.51l7.56,0.38c22.43,1.15,45.16,2.42,67.57,3.78l4.48,0.27l3.56-2.73
			c5.2-3.99,10.41-8.05,15.49-12.06l4.56-3.6v-113.29L1875.82,998.82z M1874.45,1112.8l-2.28,1.8c-5.08,4.01-10.27,8.05-15.42,12.01
			l-1.78,1.37l-2.24-0.14c-22.43-1.36-45.18-2.63-67.62-3.78l-4.06-0.21l-3.5-0.18c-26.12-1.31-52.74-2.49-79.11-3.52l-5.77-0.22
			v-29.53l7.36,0.19v-62.85l-1.85,0.05v15.86l-5.91,0.09c-7.86,0.12-15.73,0.23-23.59,0.33l-3.17,0.04v45.61l7.14,0.17v29.29
			l-6.21-0.21c-14.06-0.48-28.32-0.93-42.38-1.33l-5.83-0.17v-28.74l7.14,0.14v-44.27l-3.02,0.03c-7.87,0.09-15.73,0.17-23.6,0.24
			l-6.06,0.06v-43.44l5.85-0.14c31-0.77,62.43-1.75,93.41-2.92l3.47-0.13l3.01-0.12c26.28-1.02,52.9-2.2,79.11-3.52l3.5-0.18
			l4.06-0.21c22.44-1.15,45.19-2.42,67.62-3.78l2.21-0.13l1.77,1.34c5.2,3.93,10.38,7.91,15.42,11.83l2.31,1.8V1112.8z"/>
		<path class="st3" d="M1028.41,1100.47c-6.92,0.26-13.84,0.53-20.76,0.81c0-28.07,0-56.13,0-84.2c6.92,0.28,13.84,0.55,20.76,0.81
			c0,5.78,0,11.57,0,17.35c8.58,0.19,17.16,0.37,25.73,0.55c0-8.02,0-16.05,0-24.07c-5.05-4.17-10.09-8.39-15.14-12.67
			c-14.71-0.8-29.41-1.65-44.11-2.54c-5.12,3.87-10.23,7.79-15.35,11.77c0,33.87,0,67.74,0,101.61c5.12,4.05,10.23,8.03,15.35,11.96
			c14.7-0.89,29.4-1.74,44.11-2.54c5.05-4.34,10.09-8.62,15.14-12.84c0-7.97,0-15.93,0-23.9c-8.58,0.18-17.16,0.36-25.73,0.55
			C1028.41,1088.9,1028.41,1094.68,1028.41,1100.47z"/>
		<path class="st3" d="M1127.26,1003.3c-13.49-0.57-26.97-1.17-40.45-1.81c-6.27,32.01-12.55,64.51-18.82,97.54
			c-2.09,0.07-4.18,0.14-6.27,0.22c0,6.29,0,12.57,0,18.86c12.62-0.65,25.23-1.26,37.85-1.84c0-6.09,0-12.18,0-18.27
			c-2.24,0.07-4.47,0.14-6.71,0.21c0.79-4.56,1.59-9.12,2.38-13.66c6.56-0.14,13.12-0.27,19.69-0.39c0.87,4.44,1.73,8.88,2.6,13.3
			c-2.24,0.07-4.47,0.13-6.71,0.2c0,6.04,0,12.07,0,18.11c13.85-0.61,27.69-1.19,41.54-1.72c0-5.85,0-11.7,0-17.56
			c-2.16,0.06-4.33,0.11-6.49,0.17C1139.66,1065.96,1133.46,1034.85,1127.26,1003.3z M1098.27,1066.85
			c2.31-12.75,4.61-25.43,6.92-38.04c2.24,12.72,4.47,25.37,6.71,37.96C1107.36,1066.8,1102.81,1066.83,1098.27,1066.85z"/>
		<path class="st3" d="M1207.32,1095.2c-4.54,0.09-9.09,0.19-13.63,0.29c0-24.21,0-48.42,0-72.63c2.38,0.05,4.76,0.1,7.14,0.16
			c0-5.67,0-11.34,0-17.01c-14.21-0.45-28.42-0.94-42.63-1.47c0,5.83,0,11.66,0,17.49c2.45,0.06,4.9,0.12,7.36,0.19
			c0,24.65,0,49.3,0,73.95c-2.45,0.06-4.9,0.12-7.36,0.19c0,5.83,0,11.66,0,17.49c24.96-0.94,49.91-1.74,74.88-2.42
			c0-10.6,0-21.19,0-31.78c-8.59,0.09-17.17,0.19-25.75,0.29C1207.32,1085.01,1207.32,1090.1,1207.32,1095.2z"/>
		<path class="st3" d="M1257.32,1007.56c-5.12,3.32-10.25,6.66-15.37,10.02c0,27.68,0,55.36,0,83.04
			c5.12,3.41,10.24,6.8,15.37,10.17c14.72-0.35,29.44-0.65,44.16-0.9c5.05-3.52,10.1-7.01,15.15-10.48c0-6.78,0-13.55,0-20.33
			c-8.59,0.05-17.17,0.11-25.76,0.17c0,4.85,0,9.7,0,14.54c-6.93,0.09-13.85,0.18-20.78,0.29c0-23.27,0-46.54,0-69.8
			c6.93,0.1,13.85,0.2,20.78,0.29c0,4.85,0,9.7,0,14.54c8.59,0.06,17.17,0.12,25.76,0.17c0-6.83,0-13.65,0-20.48
			c-5.05-3.43-10.1-6.87-15.15-10.34C1286.75,1008.21,1272.03,1007.91,1257.32,1007.56z"/>
		<path class="st3" d="M1373.99,1025.3c2.45,0.01,4.91,0.02,7.36,0.03c0,22.57,0,45.13,0,67.7c-6.86,0.03-13.71,0.06-20.57,0.1
			c0-22.64,0-45.27,0-67.91c2.45,0.02,4.91,0.03,7.36,0.04c0-5.32,0-10.64,0-15.96c-14.14-0.11-28.29-0.27-42.43-0.46
			c0,5.37,0,10.74,0,16.11c2.45,0.02,4.91,0.04,7.36,0.07c0,24.74,0,49.47,0,74.21c5.05,3.35,10.1,6.68,15.15,10.01
			c14.87-0.16,29.73-0.27,44.6-0.34c5.05-3.38,10.1-6.76,15.15-10.13c0-24.46,0-48.91,0-73.37c2.45,0,4.91,0.01,7.36,0.01
			c0-5.3,0-10.59,0-15.89c-13.78-0.02-27.57-0.07-41.35-0.17C1373.99,1014.67,1373.99,1019.98,1373.99,1025.3z"/>
		<path class="st3" d="M1471.63,1093.05c-4.55-0.02-9.09-0.04-13.64-0.05c0-22.55,0-45.09,0-67.64c2.38-0.01,4.76-0.02,7.14-0.03
			c0-5.31,0-10.62,0-15.93c-14.22,0.08-28.43,0.12-42.65,0.12c0,5.3,0,10.59,0,15.89c2.45,0,4.91,0,7.36,0c0,22.51,0,45.02,0,67.53
			c-2.45,0-4.91,0-7.36,0c0,5.3,0,10.59,0,15.89c24.97-0.01,49.94,0.12,74.91,0.38c0-10.15,0-20.3,0-30.45
			c-8.59-0.03-17.17-0.06-25.76-0.09C1471.63,1083.47,1471.63,1088.26,1471.63,1093.05z"/>
		<path class="st3" d="M1528.13,1008.76c-6.28,28.33-12.56,56.49-18.83,84.53c-2.09-0.02-4.19-0.03-6.28-0.05
			c0,5.34,0,10.69,0,16.03c12.63,0.14,25.26,0.32,37.88,0.52c0-5.4,0-10.8,0-16.2c-2.24-0.03-4.47-0.05-6.71-0.07
			c0.79-3.98,1.59-7.97,2.38-11.96c6.57,0.05,13.13,0.1,19.7,0.15c0.87,4.03,1.73,8.06,2.6,12.1c-2.24-0.03-4.47-0.06-6.71-0.08
			c0,5.42,0,10.84,0,16.26c13.85,0.25,27.71,0.54,41.56,0.87c0-5.51,0-11.03,0-16.54c-2.16-0.04-4.33-0.07-6.49-0.1
			c-6.2-28.96-12.41-57.67-18.61-86.17C1555.12,1008.33,1541.62,1008.56,1528.13,1008.76z M1539.6,1065.97
			c2.31-11.27,4.62-22.57,6.93-33.89c2.24,11.28,4.47,22.59,6.71,33.92C1548.69,1066,1544.15,1065.98,1539.6,1065.97z"/>
		<path class="st3" d="M1598.69,1038.9c7.86-0.08,15.73-0.16,23.59-0.24c0-5.04,0-10.09,0-15.13c3.03-0.06,6.06-0.12,9.09-0.18
			c0,23.89,0,47.77,0,71.66c-2.38-0.05-4.76-0.09-7.14-0.14c0,5.6,0,11.2,0,16.79c14.14,0.4,28.28,0.84,42.42,1.33
			c0-5.74,0-11.48,0-17.22c-2.38-0.06-4.76-0.11-7.14-0.16c0-24.29,0-48.57,0-72.86c3.03-0.07,6.06-0.14,9.09-0.21
			c0,5.18,0,10.37,0,15.55c7.86-0.11,15.72-0.22,23.59-0.33c0-11.1,0-22.21,0-33.31c-31.16,1.18-62.32,2.16-93.49,2.93
			C1598.69,1017.88,1598.69,1028.39,1598.69,1038.9z"/>
		<path class="st3" d="M1752.11,1098.12c-5.98-0.19-11.97-0.37-17.96-0.55c0-10.05,0-20.11,0-30.16c9.37,0.06,18.75,0.12,28.12,0.19
			c0-6.16,0-12.32,0-18.48c-9.37,0.08-18.75,0.15-28.12,0.22c0-9.52,0-19.03,0-28.55c5.99-0.18,11.97-0.36,17.96-0.55
			c0,5.51,0,11.02,0,16.52c8.58-0.16,17.16-0.32,25.74-0.49c0-11.87,0-23.74,0-35.6c-26.39,1.32-52.78,2.49-79.18,3.52
			c0,5.86,0,11.73,0,17.59c2.45-0.07,4.9-0.13,7.36-0.2c0,25.06,0,50.12,0,75.17c-2.45-0.07-4.9-0.13-7.36-0.2
			c0,5.86,0,11.73,0,17.59c26.4,1.03,52.79,2.2,79.18,3.52c0-11.87,0-23.74,0-35.6c-8.58-0.17-17.16-0.33-25.74-0.49
			C1752.11,1087.1,1752.11,1092.61,1752.11,1098.12z"/>
		<path class="st3" d="M1785.42,1000.29c0,6.28,0,12.56,0,18.84c2.45-0.09,4.9-0.17,7.35-0.26c0,26.87,0,53.73,0,80.6
			c-2.45-0.09-4.9-0.17-7.35-0.26c0,6.28,0,12.56,0,18.84c22.57,1.15,45.13,2.42,67.68,3.79c5.12-3.93,10.23-7.91,15.35-11.96
			c0-33.87,0-67.74,0-101.61c-5.12-3.98-10.23-7.91-15.35-11.77C1830.54,997.88,1807.98,999.14,1785.42,1000.29z M1840.34,1101.28
			c-6.49-0.26-12.97-0.51-19.46-0.76c0-27.56,0-55.12,0-82.67c6.49-0.25,12.97-0.5,19.46-0.76
			C1840.34,1045.15,1840.34,1073.21,1840.34,1101.28z"/>
		<path class="st5" d="M1102.15,1154.11c-1.78-1.19-3.56-2.38-5.34-3.57c-7.1,0.74-14.21,1.5-21.31,2.28
			c0.24,2.17,0.48,4.34,0.72,6.51c0.8-0.09,1.59-0.18,2.39-0.26c1.01,9.22,2.02,18.44,3.03,27.66c-0.79,0.09-1.58,0.17-2.36,0.26
			c0.24,2.17,0.48,4.34,0.72,6.51c7.24-0.8,14.48-1.57,21.72-2.32c1.5-1.55,3-3.09,4.51-4.63c-0.48-4.73-0.96-9.46-1.44-14.19
			c-1.16-0.76-2.32-1.53-3.48-2.29c0.75-0.76,1.49-1.52,2.24-2.29C1103.08,1163.22,1102.62,1158.67,1102.15,1154.11z
			 M1087.73,1158.09c1.87-0.2,3.74-0.4,5.61-0.59c0.36,3.43,0.72,6.86,1.08,10.29c-1.87,0.2-3.73,0.39-5.6,0.59
			C1088.46,1164.94,1088.1,1161.52,1087.73,1158.09z M1090.68,1185.76c-0.39-3.62-0.77-7.25-1.16-10.87
			c2.09-0.22,4.19-0.44,6.28-0.66c0.38,3.62,0.76,7.25,1.14,10.87C1094.86,1185.31,1092.77,1185.53,1090.68,1185.76z"/>
		<path class="st5" d="M1127.77,1147.5c-4.62,0.43-9.24,0.88-13.86,1.33c0.21,2.17,0.43,4.34,0.64,6.52
			c0.8-0.08,1.59-0.16,2.39-0.23c0.9,9.23,1.79,18.47,2.69,27.7c-0.79,0.08-1.58,0.15-2.37,0.23c0.21,2.17,0.43,4.34,0.64,6.52
			c8.01-0.78,16.02-1.54,24.04-2.26c-0.37-4.13-0.74-8.27-1.12-12.4c-2.77,0.25-5.54,0.5-8.3,0.76c0.18,1.96,0.36,3.92,0.55,5.88
			c-1.46,0.14-2.92,0.27-4.39,0.41c-0.87-9.24-1.74-18.47-2.61-27.71c0.77-0.07,1.55-0.15,2.32-0.22
			C1128.18,1151.84,1127.98,1149.67,1127.77,1147.5z"/>
		<path class="st5" d="M1162.91,1144.41c-4.63,0.38-9.25,0.77-13.88,1.17c0.19,2.17,0.38,4.35,0.57,6.52
			c0.8-0.07,1.59-0.14,2.39-0.21c0.79,9.24,1.59,18.48,2.38,27.73c-0.79,0.07-1.58,0.14-2.37,0.2c0.19,2.17,0.38,4.35,0.57,6.52
			c4.56-0.4,9.13-0.78,13.69-1.16c-0.18-2.18-0.36-4.35-0.54-6.53c-0.77,0.06-1.53,0.13-2.3,0.19c-0.77-9.24-1.53-18.49-2.3-27.73
			c0.77-0.06,1.55-0.13,2.32-0.19C1163.27,1148.76,1163.09,1146.59,1162.91,1144.41z"/>
		<path class="st5" d="M1190.88,1154.73c2.85-0.21,5.71-0.42,8.57-0.62c-0.2-2.78-0.39-5.56-0.59-8.34
			c-1.76-1.24-3.53-2.48-5.29-3.72c-4.6,0.33-9.21,0.68-13.81,1.03c-1.54,1.49-3.08,2.97-4.61,4.46c0.4,5.05,0.79,10.1,1.19,15.15
			c1.74,1.25,3.48,2.5,5.22,3.76c3.38-0.26,6.76-0.51,10.14-0.76c0.27,3.63,0.53,7.27,0.8,10.9c-2.37,0.17-4.74,0.35-7.11,0.53
			c-0.15-1.96-0.3-3.93-0.45-5.89c-2.84,0.22-5.68,0.43-8.52,0.66c0.22,2.76,0.43,5.52,0.65,8.28c1.76,1.25,3.51,2.5,5.26,3.75
			c4.94-0.38,9.88-0.75,14.82-1.1c1.52-1.5,3.05-2.99,4.58-4.49c-0.37-5.25-0.74-10.5-1.11-15.75c-1.73-1.25-3.46-2.49-5.2-3.73
			c-3.39,0.24-6.78,0.49-10.16,0.75c-0.26-3.44-0.52-6.88-0.78-10.32c1.99-0.15,3.99-0.3,5.98-0.44
			C1190.59,1150.8,1190.74,1152.76,1190.88,1154.73z"/>
		<path class="st5" d="M1227.39,1152.26c2.86-0.18,5.71-0.35,8.57-0.52c-0.16-2.78-0.33-5.56-0.49-8.34
			c-1.75-1.26-3.5-2.53-5.25-3.79c-4.61,0.28-9.21,0.57-13.82,0.87c-1.56,1.47-3.11,2.94-4.66,4.41c0.34,5.06,0.67,10.11,1.01,15.17
			c1.73,1.27,3.45,2.54,5.17,3.82c3.38-0.22,6.77-0.43,10.15-0.64c0.22,3.64,0.45,7.27,0.67,10.91c-2.37,0.15-4.74,0.29-7.11,0.45
			c-0.13-1.96-0.25-3.93-0.38-5.89c-2.84,0.18-5.68,0.37-8.52,0.56c0.18,2.76,0.37,5.52,0.55,8.28c1.74,1.27,3.48,2.54,5.22,3.82
			c4.94-0.32,9.88-0.63,14.82-0.93c1.54-1.48,3.08-2.96,4.63-4.43c-0.31-5.25-0.62-10.51-0.93-15.76c-1.71-1.27-3.43-2.53-5.15-3.79
			c-3.39,0.2-6.78,0.41-10.17,0.63c-0.22-3.44-0.44-6.88-0.66-10.33c1.99-0.13,3.99-0.25,5.98-0.38
			C1227.15,1148.33,1227.27,1150.29,1227.39,1152.26z"/>
		<path class="st5" d="M1287.61,1149.12c2.79-0.12,5.58-0.23,8.37-0.34c-0.16-4.15-0.33-8.29-0.49-12.44
			c-8.61,0.34-17.22,0.72-25.83,1.13c0.1,2.18,0.21,4.36,0.31,6.54c0.8-0.04,1.6-0.08,2.39-0.11c0.44,9.27,0.87,18.53,1.31,27.8
			c-0.79,0.04-1.58,0.07-2.37,0.11c0.1,2.18,0.21,4.36,0.31,6.54c8.5-0.41,16.99-0.78,25.49-1.12c-0.16-4.15-0.33-8.29-0.49-12.44
			c-2.77,0.11-5.55,0.22-8.32,0.34c0.08,1.97,0.17,3.93,0.25,5.9c-1.93,0.08-3.86,0.17-5.79,0.25c-0.16-3.64-0.32-7.28-0.48-10.92
			c3.04-0.13,6.07-0.26,9.11-0.39c-0.09-2.18-0.18-4.36-0.27-6.54c-3.04,0.13-6.08,0.26-9.12,0.39c-0.15-3.45-0.3-6.89-0.46-10.34
			c1.95-0.09,3.9-0.17,5.85-0.25C1287.45,1145.19,1287.53,1147.16,1287.61,1149.12z"/>
		<path class="st5" d="M1306.43,1135.92c0.08,2.18,0.16,4.36,0.24,6.54c0.8-0.03,1.6-0.06,2.39-0.09
			c0.33,9.27,0.66,18.54,0.99,27.81c-0.79,0.03-1.58,0.06-2.37,0.08c0.08,2.18,0.16,4.36,0.24,6.54c4.09-0.15,8.17-0.29,12.26-0.42
			c-0.07-2.18-0.14-4.36-0.21-6.54c-0.77,0.02-1.54,0.05-2.3,0.07c-0.16-4.97-0.33-9.93-0.49-14.9c2.9,7.06,5.78,14.12,8.65,21.19
			c3-0.09,5.99-0.18,8.99-0.26c-0.32-11.45-0.63-22.91-0.95-34.36c0.8-0.02,1.6-0.04,2.4-0.06c-0.06-2.18-0.12-4.36-0.18-6.55
			c-4.14,0.11-8.28,0.23-12.43,0.36c0.07,2.18,0.13,4.36,0.2,6.54c0.77-0.02,1.55-0.05,2.32-0.07c0.15,4.99,0.3,9.97,0.45,14.96
			c-2.9-7.09-5.82-14.17-8.76-21.25C1314.05,1135.65,1310.24,1135.79,1306.43,1135.92z"/>
		<path class="st5" d="M1369.67,1146.73c2.56-0.04,5.11-0.08,7.67-0.11c-0.06-4.15-0.11-8.3-0.17-12.45
			c-10.17,0.14-20.34,0.33-30.5,0.56c0.1,4.15,0.19,8.3,0.29,12.45c2.56-0.06,5.11-0.12,7.67-0.17c-0.04-1.97-0.08-3.94-0.12-5.9
			c0.99-0.02,1.97-0.04,2.96-0.06c0.19,9.27,0.37,18.55,0.56,27.82c-0.77,0.02-1.54,0.03-2.3,0.05c0.05,2.18,0.09,4.36,0.14,6.55
			c4.55-0.09,9.11-0.18,13.66-0.25c-0.04-2.18-0.07-4.36-0.11-6.55c-0.77,0.01-1.54,0.03-2.3,0.04c-0.16-9.27-0.32-18.55-0.47-27.82
			c0.99-0.02,1.97-0.03,2.96-0.05C1369.61,1142.79,1369.64,1144.76,1369.67,1146.73z"/>
		<path class="st5" d="M1405.26,1146.36c2.79-0.01,5.58-0.02,8.37-0.03c-0.01-4.15-0.02-8.3-0.03-12.45
			c-8.62,0.02-17.23,0.07-25.85,0.16c0.02,2.18,0.04,4.37,0.07,6.55c0.8-0.01,1.6-0.02,2.4-0.02c0.09,9.28,0.18,18.55,0.26,27.83
			c-0.79,0.01-1.58,0.02-2.37,0.02c0.02,2.18,0.04,4.36,0.07,6.55c8.5-0.09,17.01-0.14,25.51-0.16c-0.01-4.15-0.02-8.3-0.03-12.45
			c-2.78,0.01-5.55,0.01-8.33,0.03c0.01,1.97,0.02,3.94,0.03,5.9c-1.93,0.01-3.86,0.02-5.8,0.03c-0.02-3.64-0.05-7.29-0.07-10.93
			c3.04-0.02,6.07-0.04,9.11-0.05c-0.01-2.18-0.02-4.37-0.02-6.55c-3.04,0.01-6.09,0.03-9.13,0.05c-0.02-3.45-0.05-6.9-0.07-10.35
			c1.95-0.01,3.9-0.02,5.85-0.03C1405.24,1142.42,1405.25,1144.39,1405.26,1146.36z"/>
		<path class="st5" d="M1424.5,1168.25c0,2.18-0.01,4.37-0.01,6.55c4.58,0.01,9.15,0.02,13.73,0.05c0.01-2.18,0.03-4.37,0.04-6.55
			c-0.77,0-1.54-0.01-2.31-0.01c0.01-2.71,0.03-5.42,0.04-8.13c1.07,0.01,2.15,0.01,3.22,0.02c1.21,4.9,2.41,9.8,3.6,14.7
			c3.02,0.02,6.04,0.05,9.06,0.08c0.02-2.18,0.05-4.37,0.07-6.55c-0.63-0.01-1.26-0.01-1.89-0.02c-0.79-3.07-1.57-6.13-2.36-9.2
			c1.25-1,2.49-2,3.74-3c0.06-6.02,0.12-12.04,0.18-18.06c-1.66-1.38-3.31-2.76-4.97-4.14c-7.37-0.06-14.74-0.1-22.1-0.11
			c0,2.18-0.01,4.36-0.01,6.55c0.8,0,1.6,0,2.4,0c-0.02,9.28-0.04,18.55-0.06,27.83C1426.09,1168.25,1425.29,1168.25,1424.5,1168.25
			z M1436.1,1140.46c2.11,0.01,4.23,0.02,6.34,0.04c-0.03,4.38-0.06,8.77-0.09,13.15c-2.11-0.02-4.21-0.03-6.32-0.04
			C1436.06,1149.23,1436.08,1144.84,1436.1,1140.46z"/>
		<path class="st5" d="M1493.11,1147.18c0.1-4.15,0.19-8.3,0.29-12.45c-10.17-0.24-20.34-0.43-30.5-0.57
			c-0.06,4.15-0.11,8.3-0.17,12.45c2.56,0.04,5.11,0.07,7.67,0.11c0.03-1.97,0.06-3.94,0.1-5.9c0.99,0.02,1.97,0.03,2.96,0.05
			c-0.16,9.27-0.32,18.55-0.48,27.82c-0.77-0.01-1.54-0.03-2.3-0.04c-0.04,2.18-0.07,4.36-0.11,6.55c4.55,0.07,9.11,0.16,13.66,0.25
			c0.05-2.18,0.09-4.36,0.14-6.55c-0.77-0.02-1.54-0.03-2.3-0.05c0.19-9.27,0.37-18.55,0.56-27.82c0.99,0.02,1.97,0.04,2.96,0.06
			c-0.04,1.97-0.08,3.94-0.12,5.9C1488,1147.06,1490.56,1147.12,1493.11,1147.18z"/>
		<path class="st5" d="M1518.23,1176.35c4.46,0.14,8.92,0.29,13.38,0.45c0.08-2.18,0.16-4.36,0.24-6.54
			c-0.7-0.03-1.4-0.05-2.09-0.07c-1.6-11.52-3.21-23.04-4.86-34.56c-4.4-0.15-8.8-0.29-13.2-0.41c-2.38,11.39-4.74,22.79-7.08,34.19
			c-0.68-0.02-1.35-0.04-2.03-0.05c-0.06,2.18-0.12,4.36-0.17,6.55c4.06,0.11,8.13,0.22,12.19,0.35c0.07-2.18,0.13-4.36,0.2-6.54
			c-0.72-0.02-1.44-0.04-2.16-0.07c0.3-1.61,0.61-3.22,0.91-4.83c2.12,0.06,4.24,0.13,6.36,0.2c0.23,1.63,0.45,3.25,0.68,4.88
			c-0.72-0.02-1.44-0.05-2.16-0.07C1518.37,1171.99,1518.3,1174.17,1518.23,1176.35z M1514.72,1158.52
			c0.89-4.53,1.78-9.07,2.67-13.6c0.59,4.58,1.17,9.16,1.75,13.74C1517.67,1158.61,1516.2,1158.57,1514.72,1158.52z"/>
		<path class="st5" d="M1542.1,1170.65c-0.09,2.18-0.17,4.36-0.26,6.54c4.57,0.18,9.15,0.37,13.72,0.57
			c0.1-2.18,0.19-4.36,0.29-6.54c-0.77-0.03-1.54-0.07-2.3-0.1c0.4-9.27,0.8-18.54,1.2-27.8c0.77,0.03,1.55,0.07,2.32,0.1
			c0.1-2.18,0.19-4.36,0.29-6.54c-4.63-0.2-9.27-0.4-13.9-0.58c-0.09,2.18-0.17,4.36-0.26,6.54c0.8,0.03,1.6,0.06,2.39,0.1
			c-0.37,9.27-0.74,18.54-1.12,27.81C1543.68,1170.71,1542.89,1170.68,1542.1,1170.65z"/>
		<path class="st5" d="M1566.6,1171.71c-0.1,2.18-0.21,4.36-0.31,6.54c4.09,0.19,8.17,0.39,12.26,0.6c0.11-2.18,0.22-4.36,0.34-6.54
			c-0.77-0.04-1.53-0.08-2.3-0.12c0.25-4.96,0.5-9.93,0.75-14.89c2.3,7.28,4.59,14.56,6.86,21.84c2.99,0.16,5.99,0.32,8.98,0.49
			c0.64-11.44,1.28-22.88,1.92-34.32c0.8,0.04,1.6,0.09,2.39,0.14c0.12-2.18,0.25-4.36,0.37-6.54c-4.14-0.23-8.28-0.46-12.42-0.68
			c-0.12,2.18-0.23,4.36-0.35,6.54c0.77,0.04,1.55,0.08,2.32,0.12c-0.27,4.98-0.53,9.96-0.8,14.95c-2.3-7.31-4.62-14.61-6.96-21.91
			c-3.81-0.19-7.62-0.38-11.43-0.56c-0.1,2.18-0.21,4.36-0.31,6.54c0.8,0.04,1.6,0.08,2.39,0.11c-0.45,9.27-0.89,18.53-1.34,27.8
			C1568.18,1171.79,1567.39,1171.75,1566.6,1171.71z"/>
		<path class="st5" d="M1606.65,1173.86c-0.13,2.18-0.26,4.36-0.39,6.54c4.15,0.25,8.31,0.51,12.46,0.78
			c0.14-2.18,0.28-4.36,0.42-6.53c-0.77-0.05-1.53-0.1-2.3-0.15c0.35-5.47,0.69-10.93,1.04-16.39c1.33,5.22,2.66,10.44,3.98,15.66
			c1.86,0.12,3.72,0.24,5.58,0.37c2.05-5.18,4.11-10.35,6.18-15.52c-0.39,5.64-0.77,11.28-1.16,16.91c-0.77-0.05-1.53-0.1-2.3-0.16
			c-0.15,2.18-0.3,4.36-0.44,6.53c4.57,0.31,9.14,0.63,13.71,0.96c0.16-2.18,0.31-4.35,0.47-6.53c-0.79-0.06-1.58-0.11-2.37-0.17
			c0.66-9.25,1.32-18.5,1.99-27.76c0.8,0.06,1.59,0.11,2.39,0.17c0.16-2.18,0.31-4.35,0.47-6.53c-4.18-0.3-8.36-0.6-12.55-0.88
			c-2.56,6.09-5.12,12.19-7.66,18.29c-1.71-6.38-3.44-12.76-5.18-19.14c-4.09-0.26-8.18-0.52-12.27-0.76
			c-0.13,2.18-0.26,4.36-0.39,6.54c0.8,0.05,1.6,0.1,2.39,0.15c-0.56,9.26-1.13,18.52-1.69,27.78
			C1608.23,1173.96,1607.44,1173.91,1606.65,1173.86z"/>
		<path class="st5" d="M1654.62,1177.13c-0.16,2.18-0.33,4.35-0.49,6.53c8.49,0.64,16.97,1.32,25.45,2.03
			c0.35-4.14,0.7-8.27,1.04-12.41c-2.77-0.23-5.54-0.46-8.31-0.69c-0.16,1.96-0.32,3.92-0.48,5.88c-1.93-0.16-3.86-0.31-5.78-0.47
			c0.29-3.63,0.58-7.27,0.87-10.9c3.03,0.24,6.06,0.49,9.09,0.74c0.18-2.18,0.36-4.35,0.54-6.53c-3.04-0.25-6.07-0.5-9.11-0.74
			c0.27-3.44,0.55-6.88,0.82-10.32c1.95,0.15,3.89,0.31,5.84,0.47c-0.16,1.96-0.32,3.92-0.48,5.88c2.78,0.23,5.57,0.46,8.35,0.69
			c0.35-4.14,0.7-8.27,1.04-12.41c-8.59-0.72-17.19-1.41-25.79-2.06c-0.17,2.18-0.33,4.35-0.49,6.53c0.8,0.06,1.59,0.12,2.39,0.18
			c-0.71,9.25-1.42,18.5-2.12,27.75C1656.2,1177.25,1655.41,1177.19,1654.62,1177.13z"/>
		<path class="st5" d="M1690.92,1180.09c-0.19,2.17-0.38,4.35-0.57,6.52c4.08,0.36,8.15,0.72,12.23,1.1c0.2-2.17,0.4-4.35,0.6-6.52
			c-0.77-0.07-1.53-0.14-2.3-0.21c0.45-4.95,0.9-9.9,1.35-14.85c2.01,7.36,4,14.73,5.98,22.1c2.99,0.28,5.97,0.56,8.96,0.85
			c1.1-11.41,2.2-22.81,3.3-34.22c0.8,0.08,1.59,0.15,2.39,0.23c0.21-2.17,0.42-4.34,0.63-6.52c-4.13-0.4-8.26-0.79-12.39-1.18
			c-0.2,2.17-0.4,4.35-0.61,6.52c0.77,0.07,1.55,0.14,2.32,0.22c-0.47,4.97-0.93,9.93-1.4,14.9c-2.01-7.39-4.04-14.78-6.08-22.17
			c-3.8-0.35-7.6-0.69-11.41-1.02c-0.19,2.17-0.38,4.35-0.57,6.52c0.8,0.07,1.59,0.14,2.39,0.21c-0.82,9.24-1.63,18.48-2.45,27.72
			C1692.5,1180.23,1691.71,1180.16,1690.92,1180.09z"/>
		<path class="st5" d="M1763.05,1165.2c0.46-4.13,0.91-8.25,1.37-12.38c-10.12-1.12-20.25-2.19-30.38-3.2
			c-0.42,4.13-0.83,8.26-1.25,12.39c2.55,0.26,5.09,0.52,7.64,0.78c0.2-1.96,0.4-3.92,0.61-5.87c0.98,0.1,1.97,0.2,2.95,0.31
			c-0.96,9.23-1.92,18.45-2.88,27.68c-0.77-0.08-1.53-0.16-2.3-0.24c-0.22,2.17-0.45,4.34-0.67,6.51c4.54,0.47,9.07,0.95,13.6,1.44
			c0.23-2.17,0.47-4.34,0.7-6.51c-0.77-0.08-1.53-0.16-2.3-0.25c0.99-9.22,1.97-18.45,2.96-27.67c0.98,0.1,1.96,0.21,2.95,0.32
			c-0.21,1.96-0.42,3.91-0.63,5.87C1757.97,1164.64,1760.51,1164.92,1763.05,1165.2z"/>
	</g>
</g>
</svg>
